G75*
%MOIN*%
%OFA0B0*%
%FSLAX25Y25*%
%IPPOS*%
%LPD*%
%AMOC8*
5,1,8,0,0,1.08239X$1,22.5*
%
%ADD10C,0.01600*%
%ADD11C,0.02400*%
%ADD12C,0.00000*%
%ADD13C,0.00400*%
%ADD14C,0.00800*%
%ADD15C,0.01000*%
%ADD16C,0.00500*%
%ADD17C,0.01500*%
%ADD18C,0.00600*%
%ADD19C,0.00200*%
%ADD20R,0.01181X0.00591*%
%ADD21R,0.01181X0.01181*%
%ADD22C,0.01200*%
%ADD23R,0.00591X0.01181*%
%ADD24C,0.00100*%
%ADD25C,0.00300*%
%ADD26C,0.01100*%
%ADD27C,0.00700*%
%ADD28C,0.01300*%
%ADD29C,0.01400*%
D10*
X0002200Y0020744D02*
X0002200Y0024681D01*
X0168290Y0108224D02*
X0168292Y0108280D01*
X0168298Y0108337D01*
X0168308Y0108392D01*
X0168322Y0108447D01*
X0168339Y0108501D01*
X0168361Y0108553D01*
X0168386Y0108603D01*
X0168414Y0108652D01*
X0168446Y0108699D01*
X0168481Y0108743D01*
X0168519Y0108785D01*
X0168560Y0108824D01*
X0168604Y0108859D01*
X0168650Y0108892D01*
X0168698Y0108921D01*
X0168748Y0108947D01*
X0168800Y0108970D01*
X0168854Y0108988D01*
X0168908Y0109003D01*
X0168963Y0109014D01*
X0169019Y0109021D01*
X0169076Y0109024D01*
X0169132Y0109023D01*
X0169189Y0109018D01*
X0169244Y0109009D01*
X0169299Y0108996D01*
X0169353Y0108979D01*
X0169406Y0108959D01*
X0169457Y0108935D01*
X0169506Y0108907D01*
X0169553Y0108876D01*
X0169598Y0108842D01*
X0169641Y0108804D01*
X0169680Y0108764D01*
X0169717Y0108721D01*
X0169750Y0108676D01*
X0169780Y0108628D01*
X0169807Y0108578D01*
X0169830Y0108527D01*
X0169850Y0108474D01*
X0169866Y0108420D01*
X0169878Y0108364D01*
X0169886Y0108309D01*
X0169890Y0108252D01*
X0169890Y0108196D01*
X0169886Y0108139D01*
X0169878Y0108084D01*
X0169866Y0108028D01*
X0169850Y0107974D01*
X0169830Y0107921D01*
X0169807Y0107870D01*
X0169780Y0107820D01*
X0169750Y0107772D01*
X0169717Y0107727D01*
X0169680Y0107684D01*
X0169641Y0107644D01*
X0169598Y0107606D01*
X0169553Y0107572D01*
X0169506Y0107541D01*
X0169457Y0107513D01*
X0169406Y0107489D01*
X0169353Y0107469D01*
X0169299Y0107452D01*
X0169244Y0107439D01*
X0169189Y0107430D01*
X0169132Y0107425D01*
X0169076Y0107424D01*
X0169019Y0107427D01*
X0168963Y0107434D01*
X0168908Y0107445D01*
X0168854Y0107460D01*
X0168800Y0107478D01*
X0168748Y0107501D01*
X0168698Y0107527D01*
X0168650Y0107556D01*
X0168604Y0107589D01*
X0168560Y0107624D01*
X0168519Y0107663D01*
X0168481Y0107705D01*
X0168446Y0107749D01*
X0168414Y0107796D01*
X0168386Y0107845D01*
X0168361Y0107895D01*
X0168339Y0107947D01*
X0168322Y0108001D01*
X0168308Y0108056D01*
X0168298Y0108111D01*
X0168292Y0108168D01*
X0168290Y0108224D01*
D11*
X0002200Y0020744D02*
X0415586Y0020744D01*
X0415586Y0375075D01*
X0002200Y0375075D01*
X0002200Y0020744D01*
D12*
X0015586Y0040429D02*
X0015588Y0040587D01*
X0015594Y0040745D01*
X0015604Y0040903D01*
X0015618Y0041061D01*
X0015636Y0041218D01*
X0015657Y0041375D01*
X0015683Y0041531D01*
X0015713Y0041687D01*
X0015746Y0041842D01*
X0015784Y0041995D01*
X0015825Y0042148D01*
X0015870Y0042300D01*
X0015919Y0042451D01*
X0015972Y0042600D01*
X0016028Y0042748D01*
X0016088Y0042894D01*
X0016152Y0043039D01*
X0016220Y0043182D01*
X0016291Y0043324D01*
X0016365Y0043464D01*
X0016443Y0043601D01*
X0016525Y0043737D01*
X0016609Y0043871D01*
X0016698Y0044002D01*
X0016789Y0044131D01*
X0016884Y0044258D01*
X0016981Y0044383D01*
X0017082Y0044505D01*
X0017186Y0044624D01*
X0017293Y0044741D01*
X0017403Y0044855D01*
X0017516Y0044966D01*
X0017631Y0045075D01*
X0017749Y0045180D01*
X0017870Y0045282D01*
X0017993Y0045382D01*
X0018119Y0045478D01*
X0018247Y0045571D01*
X0018377Y0045661D01*
X0018510Y0045747D01*
X0018645Y0045831D01*
X0018781Y0045910D01*
X0018920Y0045987D01*
X0019061Y0046059D01*
X0019203Y0046129D01*
X0019347Y0046194D01*
X0019493Y0046256D01*
X0019640Y0046314D01*
X0019789Y0046369D01*
X0019939Y0046420D01*
X0020090Y0046467D01*
X0020242Y0046510D01*
X0020395Y0046549D01*
X0020550Y0046585D01*
X0020705Y0046616D01*
X0020861Y0046644D01*
X0021017Y0046668D01*
X0021174Y0046688D01*
X0021332Y0046704D01*
X0021489Y0046716D01*
X0021648Y0046724D01*
X0021806Y0046728D01*
X0021964Y0046728D01*
X0022122Y0046724D01*
X0022281Y0046716D01*
X0022438Y0046704D01*
X0022596Y0046688D01*
X0022753Y0046668D01*
X0022909Y0046644D01*
X0023065Y0046616D01*
X0023220Y0046585D01*
X0023375Y0046549D01*
X0023528Y0046510D01*
X0023680Y0046467D01*
X0023831Y0046420D01*
X0023981Y0046369D01*
X0024130Y0046314D01*
X0024277Y0046256D01*
X0024423Y0046194D01*
X0024567Y0046129D01*
X0024709Y0046059D01*
X0024850Y0045987D01*
X0024989Y0045910D01*
X0025125Y0045831D01*
X0025260Y0045747D01*
X0025393Y0045661D01*
X0025523Y0045571D01*
X0025651Y0045478D01*
X0025777Y0045382D01*
X0025900Y0045282D01*
X0026021Y0045180D01*
X0026139Y0045075D01*
X0026254Y0044966D01*
X0026367Y0044855D01*
X0026477Y0044741D01*
X0026584Y0044624D01*
X0026688Y0044505D01*
X0026789Y0044383D01*
X0026886Y0044258D01*
X0026981Y0044131D01*
X0027072Y0044002D01*
X0027161Y0043871D01*
X0027245Y0043737D01*
X0027327Y0043601D01*
X0027405Y0043464D01*
X0027479Y0043324D01*
X0027550Y0043182D01*
X0027618Y0043039D01*
X0027682Y0042894D01*
X0027742Y0042748D01*
X0027798Y0042600D01*
X0027851Y0042451D01*
X0027900Y0042300D01*
X0027945Y0042148D01*
X0027986Y0041995D01*
X0028024Y0041842D01*
X0028057Y0041687D01*
X0028087Y0041531D01*
X0028113Y0041375D01*
X0028134Y0041218D01*
X0028152Y0041061D01*
X0028166Y0040903D01*
X0028176Y0040745D01*
X0028182Y0040587D01*
X0028184Y0040429D01*
X0028182Y0040271D01*
X0028176Y0040113D01*
X0028166Y0039955D01*
X0028152Y0039797D01*
X0028134Y0039640D01*
X0028113Y0039483D01*
X0028087Y0039327D01*
X0028057Y0039171D01*
X0028024Y0039016D01*
X0027986Y0038863D01*
X0027945Y0038710D01*
X0027900Y0038558D01*
X0027851Y0038407D01*
X0027798Y0038258D01*
X0027742Y0038110D01*
X0027682Y0037964D01*
X0027618Y0037819D01*
X0027550Y0037676D01*
X0027479Y0037534D01*
X0027405Y0037394D01*
X0027327Y0037257D01*
X0027245Y0037121D01*
X0027161Y0036987D01*
X0027072Y0036856D01*
X0026981Y0036727D01*
X0026886Y0036600D01*
X0026789Y0036475D01*
X0026688Y0036353D01*
X0026584Y0036234D01*
X0026477Y0036117D01*
X0026367Y0036003D01*
X0026254Y0035892D01*
X0026139Y0035783D01*
X0026021Y0035678D01*
X0025900Y0035576D01*
X0025777Y0035476D01*
X0025651Y0035380D01*
X0025523Y0035287D01*
X0025393Y0035197D01*
X0025260Y0035111D01*
X0025125Y0035027D01*
X0024989Y0034948D01*
X0024850Y0034871D01*
X0024709Y0034799D01*
X0024567Y0034729D01*
X0024423Y0034664D01*
X0024277Y0034602D01*
X0024130Y0034544D01*
X0023981Y0034489D01*
X0023831Y0034438D01*
X0023680Y0034391D01*
X0023528Y0034348D01*
X0023375Y0034309D01*
X0023220Y0034273D01*
X0023065Y0034242D01*
X0022909Y0034214D01*
X0022753Y0034190D01*
X0022596Y0034170D01*
X0022438Y0034154D01*
X0022281Y0034142D01*
X0022122Y0034134D01*
X0021964Y0034130D01*
X0021806Y0034130D01*
X0021648Y0034134D01*
X0021489Y0034142D01*
X0021332Y0034154D01*
X0021174Y0034170D01*
X0021017Y0034190D01*
X0020861Y0034214D01*
X0020705Y0034242D01*
X0020550Y0034273D01*
X0020395Y0034309D01*
X0020242Y0034348D01*
X0020090Y0034391D01*
X0019939Y0034438D01*
X0019789Y0034489D01*
X0019640Y0034544D01*
X0019493Y0034602D01*
X0019347Y0034664D01*
X0019203Y0034729D01*
X0019061Y0034799D01*
X0018920Y0034871D01*
X0018781Y0034948D01*
X0018645Y0035027D01*
X0018510Y0035111D01*
X0018377Y0035197D01*
X0018247Y0035287D01*
X0018119Y0035380D01*
X0017993Y0035476D01*
X0017870Y0035576D01*
X0017749Y0035678D01*
X0017631Y0035783D01*
X0017516Y0035892D01*
X0017403Y0036003D01*
X0017293Y0036117D01*
X0017186Y0036234D01*
X0017082Y0036353D01*
X0016981Y0036475D01*
X0016884Y0036600D01*
X0016789Y0036727D01*
X0016698Y0036856D01*
X0016609Y0036987D01*
X0016525Y0037121D01*
X0016443Y0037257D01*
X0016365Y0037394D01*
X0016291Y0037534D01*
X0016220Y0037676D01*
X0016152Y0037819D01*
X0016088Y0037964D01*
X0016028Y0038110D01*
X0015972Y0038258D01*
X0015919Y0038407D01*
X0015870Y0038558D01*
X0015825Y0038710D01*
X0015784Y0038863D01*
X0015746Y0039016D01*
X0015713Y0039171D01*
X0015683Y0039327D01*
X0015657Y0039483D01*
X0015636Y0039640D01*
X0015618Y0039797D01*
X0015604Y0039955D01*
X0015594Y0040113D01*
X0015588Y0040271D01*
X0015586Y0040429D01*
X0015586Y0207752D02*
X0015588Y0207910D01*
X0015594Y0208068D01*
X0015604Y0208226D01*
X0015618Y0208384D01*
X0015636Y0208541D01*
X0015657Y0208698D01*
X0015683Y0208854D01*
X0015713Y0209010D01*
X0015746Y0209165D01*
X0015784Y0209318D01*
X0015825Y0209471D01*
X0015870Y0209623D01*
X0015919Y0209774D01*
X0015972Y0209923D01*
X0016028Y0210071D01*
X0016088Y0210217D01*
X0016152Y0210362D01*
X0016220Y0210505D01*
X0016291Y0210647D01*
X0016365Y0210787D01*
X0016443Y0210924D01*
X0016525Y0211060D01*
X0016609Y0211194D01*
X0016698Y0211325D01*
X0016789Y0211454D01*
X0016884Y0211581D01*
X0016981Y0211706D01*
X0017082Y0211828D01*
X0017186Y0211947D01*
X0017293Y0212064D01*
X0017403Y0212178D01*
X0017516Y0212289D01*
X0017631Y0212398D01*
X0017749Y0212503D01*
X0017870Y0212605D01*
X0017993Y0212705D01*
X0018119Y0212801D01*
X0018247Y0212894D01*
X0018377Y0212984D01*
X0018510Y0213070D01*
X0018645Y0213154D01*
X0018781Y0213233D01*
X0018920Y0213310D01*
X0019061Y0213382D01*
X0019203Y0213452D01*
X0019347Y0213517D01*
X0019493Y0213579D01*
X0019640Y0213637D01*
X0019789Y0213692D01*
X0019939Y0213743D01*
X0020090Y0213790D01*
X0020242Y0213833D01*
X0020395Y0213872D01*
X0020550Y0213908D01*
X0020705Y0213939D01*
X0020861Y0213967D01*
X0021017Y0213991D01*
X0021174Y0214011D01*
X0021332Y0214027D01*
X0021489Y0214039D01*
X0021648Y0214047D01*
X0021806Y0214051D01*
X0021964Y0214051D01*
X0022122Y0214047D01*
X0022281Y0214039D01*
X0022438Y0214027D01*
X0022596Y0214011D01*
X0022753Y0213991D01*
X0022909Y0213967D01*
X0023065Y0213939D01*
X0023220Y0213908D01*
X0023375Y0213872D01*
X0023528Y0213833D01*
X0023680Y0213790D01*
X0023831Y0213743D01*
X0023981Y0213692D01*
X0024130Y0213637D01*
X0024277Y0213579D01*
X0024423Y0213517D01*
X0024567Y0213452D01*
X0024709Y0213382D01*
X0024850Y0213310D01*
X0024989Y0213233D01*
X0025125Y0213154D01*
X0025260Y0213070D01*
X0025393Y0212984D01*
X0025523Y0212894D01*
X0025651Y0212801D01*
X0025777Y0212705D01*
X0025900Y0212605D01*
X0026021Y0212503D01*
X0026139Y0212398D01*
X0026254Y0212289D01*
X0026367Y0212178D01*
X0026477Y0212064D01*
X0026584Y0211947D01*
X0026688Y0211828D01*
X0026789Y0211706D01*
X0026886Y0211581D01*
X0026981Y0211454D01*
X0027072Y0211325D01*
X0027161Y0211194D01*
X0027245Y0211060D01*
X0027327Y0210924D01*
X0027405Y0210787D01*
X0027479Y0210647D01*
X0027550Y0210505D01*
X0027618Y0210362D01*
X0027682Y0210217D01*
X0027742Y0210071D01*
X0027798Y0209923D01*
X0027851Y0209774D01*
X0027900Y0209623D01*
X0027945Y0209471D01*
X0027986Y0209318D01*
X0028024Y0209165D01*
X0028057Y0209010D01*
X0028087Y0208854D01*
X0028113Y0208698D01*
X0028134Y0208541D01*
X0028152Y0208384D01*
X0028166Y0208226D01*
X0028176Y0208068D01*
X0028182Y0207910D01*
X0028184Y0207752D01*
X0028182Y0207594D01*
X0028176Y0207436D01*
X0028166Y0207278D01*
X0028152Y0207120D01*
X0028134Y0206963D01*
X0028113Y0206806D01*
X0028087Y0206650D01*
X0028057Y0206494D01*
X0028024Y0206339D01*
X0027986Y0206186D01*
X0027945Y0206033D01*
X0027900Y0205881D01*
X0027851Y0205730D01*
X0027798Y0205581D01*
X0027742Y0205433D01*
X0027682Y0205287D01*
X0027618Y0205142D01*
X0027550Y0204999D01*
X0027479Y0204857D01*
X0027405Y0204717D01*
X0027327Y0204580D01*
X0027245Y0204444D01*
X0027161Y0204310D01*
X0027072Y0204179D01*
X0026981Y0204050D01*
X0026886Y0203923D01*
X0026789Y0203798D01*
X0026688Y0203676D01*
X0026584Y0203557D01*
X0026477Y0203440D01*
X0026367Y0203326D01*
X0026254Y0203215D01*
X0026139Y0203106D01*
X0026021Y0203001D01*
X0025900Y0202899D01*
X0025777Y0202799D01*
X0025651Y0202703D01*
X0025523Y0202610D01*
X0025393Y0202520D01*
X0025260Y0202434D01*
X0025125Y0202350D01*
X0024989Y0202271D01*
X0024850Y0202194D01*
X0024709Y0202122D01*
X0024567Y0202052D01*
X0024423Y0201987D01*
X0024277Y0201925D01*
X0024130Y0201867D01*
X0023981Y0201812D01*
X0023831Y0201761D01*
X0023680Y0201714D01*
X0023528Y0201671D01*
X0023375Y0201632D01*
X0023220Y0201596D01*
X0023065Y0201565D01*
X0022909Y0201537D01*
X0022753Y0201513D01*
X0022596Y0201493D01*
X0022438Y0201477D01*
X0022281Y0201465D01*
X0022122Y0201457D01*
X0021964Y0201453D01*
X0021806Y0201453D01*
X0021648Y0201457D01*
X0021489Y0201465D01*
X0021332Y0201477D01*
X0021174Y0201493D01*
X0021017Y0201513D01*
X0020861Y0201537D01*
X0020705Y0201565D01*
X0020550Y0201596D01*
X0020395Y0201632D01*
X0020242Y0201671D01*
X0020090Y0201714D01*
X0019939Y0201761D01*
X0019789Y0201812D01*
X0019640Y0201867D01*
X0019493Y0201925D01*
X0019347Y0201987D01*
X0019203Y0202052D01*
X0019061Y0202122D01*
X0018920Y0202194D01*
X0018781Y0202271D01*
X0018645Y0202350D01*
X0018510Y0202434D01*
X0018377Y0202520D01*
X0018247Y0202610D01*
X0018119Y0202703D01*
X0017993Y0202799D01*
X0017870Y0202899D01*
X0017749Y0203001D01*
X0017631Y0203106D01*
X0017516Y0203215D01*
X0017403Y0203326D01*
X0017293Y0203440D01*
X0017186Y0203557D01*
X0017082Y0203676D01*
X0016981Y0203798D01*
X0016884Y0203923D01*
X0016789Y0204050D01*
X0016698Y0204179D01*
X0016609Y0204310D01*
X0016525Y0204444D01*
X0016443Y0204580D01*
X0016365Y0204717D01*
X0016291Y0204857D01*
X0016220Y0204999D01*
X0016152Y0205142D01*
X0016088Y0205287D01*
X0016028Y0205433D01*
X0015972Y0205581D01*
X0015919Y0205730D01*
X0015870Y0205881D01*
X0015825Y0206033D01*
X0015784Y0206186D01*
X0015746Y0206339D01*
X0015713Y0206494D01*
X0015683Y0206650D01*
X0015657Y0206806D01*
X0015636Y0206963D01*
X0015618Y0207120D01*
X0015604Y0207278D01*
X0015594Y0207436D01*
X0015588Y0207594D01*
X0015586Y0207752D01*
X0015586Y0331768D02*
X0015588Y0331926D01*
X0015594Y0332084D01*
X0015604Y0332242D01*
X0015618Y0332400D01*
X0015636Y0332557D01*
X0015657Y0332714D01*
X0015683Y0332870D01*
X0015713Y0333026D01*
X0015746Y0333181D01*
X0015784Y0333334D01*
X0015825Y0333487D01*
X0015870Y0333639D01*
X0015919Y0333790D01*
X0015972Y0333939D01*
X0016028Y0334087D01*
X0016088Y0334233D01*
X0016152Y0334378D01*
X0016220Y0334521D01*
X0016291Y0334663D01*
X0016365Y0334803D01*
X0016443Y0334940D01*
X0016525Y0335076D01*
X0016609Y0335210D01*
X0016698Y0335341D01*
X0016789Y0335470D01*
X0016884Y0335597D01*
X0016981Y0335722D01*
X0017082Y0335844D01*
X0017186Y0335963D01*
X0017293Y0336080D01*
X0017403Y0336194D01*
X0017516Y0336305D01*
X0017631Y0336414D01*
X0017749Y0336519D01*
X0017870Y0336621D01*
X0017993Y0336721D01*
X0018119Y0336817D01*
X0018247Y0336910D01*
X0018377Y0337000D01*
X0018510Y0337086D01*
X0018645Y0337170D01*
X0018781Y0337249D01*
X0018920Y0337326D01*
X0019061Y0337398D01*
X0019203Y0337468D01*
X0019347Y0337533D01*
X0019493Y0337595D01*
X0019640Y0337653D01*
X0019789Y0337708D01*
X0019939Y0337759D01*
X0020090Y0337806D01*
X0020242Y0337849D01*
X0020395Y0337888D01*
X0020550Y0337924D01*
X0020705Y0337955D01*
X0020861Y0337983D01*
X0021017Y0338007D01*
X0021174Y0338027D01*
X0021332Y0338043D01*
X0021489Y0338055D01*
X0021648Y0338063D01*
X0021806Y0338067D01*
X0021964Y0338067D01*
X0022122Y0338063D01*
X0022281Y0338055D01*
X0022438Y0338043D01*
X0022596Y0338027D01*
X0022753Y0338007D01*
X0022909Y0337983D01*
X0023065Y0337955D01*
X0023220Y0337924D01*
X0023375Y0337888D01*
X0023528Y0337849D01*
X0023680Y0337806D01*
X0023831Y0337759D01*
X0023981Y0337708D01*
X0024130Y0337653D01*
X0024277Y0337595D01*
X0024423Y0337533D01*
X0024567Y0337468D01*
X0024709Y0337398D01*
X0024850Y0337326D01*
X0024989Y0337249D01*
X0025125Y0337170D01*
X0025260Y0337086D01*
X0025393Y0337000D01*
X0025523Y0336910D01*
X0025651Y0336817D01*
X0025777Y0336721D01*
X0025900Y0336621D01*
X0026021Y0336519D01*
X0026139Y0336414D01*
X0026254Y0336305D01*
X0026367Y0336194D01*
X0026477Y0336080D01*
X0026584Y0335963D01*
X0026688Y0335844D01*
X0026789Y0335722D01*
X0026886Y0335597D01*
X0026981Y0335470D01*
X0027072Y0335341D01*
X0027161Y0335210D01*
X0027245Y0335076D01*
X0027327Y0334940D01*
X0027405Y0334803D01*
X0027479Y0334663D01*
X0027550Y0334521D01*
X0027618Y0334378D01*
X0027682Y0334233D01*
X0027742Y0334087D01*
X0027798Y0333939D01*
X0027851Y0333790D01*
X0027900Y0333639D01*
X0027945Y0333487D01*
X0027986Y0333334D01*
X0028024Y0333181D01*
X0028057Y0333026D01*
X0028087Y0332870D01*
X0028113Y0332714D01*
X0028134Y0332557D01*
X0028152Y0332400D01*
X0028166Y0332242D01*
X0028176Y0332084D01*
X0028182Y0331926D01*
X0028184Y0331768D01*
X0028182Y0331610D01*
X0028176Y0331452D01*
X0028166Y0331294D01*
X0028152Y0331136D01*
X0028134Y0330979D01*
X0028113Y0330822D01*
X0028087Y0330666D01*
X0028057Y0330510D01*
X0028024Y0330355D01*
X0027986Y0330202D01*
X0027945Y0330049D01*
X0027900Y0329897D01*
X0027851Y0329746D01*
X0027798Y0329597D01*
X0027742Y0329449D01*
X0027682Y0329303D01*
X0027618Y0329158D01*
X0027550Y0329015D01*
X0027479Y0328873D01*
X0027405Y0328733D01*
X0027327Y0328596D01*
X0027245Y0328460D01*
X0027161Y0328326D01*
X0027072Y0328195D01*
X0026981Y0328066D01*
X0026886Y0327939D01*
X0026789Y0327814D01*
X0026688Y0327692D01*
X0026584Y0327573D01*
X0026477Y0327456D01*
X0026367Y0327342D01*
X0026254Y0327231D01*
X0026139Y0327122D01*
X0026021Y0327017D01*
X0025900Y0326915D01*
X0025777Y0326815D01*
X0025651Y0326719D01*
X0025523Y0326626D01*
X0025393Y0326536D01*
X0025260Y0326450D01*
X0025125Y0326366D01*
X0024989Y0326287D01*
X0024850Y0326210D01*
X0024709Y0326138D01*
X0024567Y0326068D01*
X0024423Y0326003D01*
X0024277Y0325941D01*
X0024130Y0325883D01*
X0023981Y0325828D01*
X0023831Y0325777D01*
X0023680Y0325730D01*
X0023528Y0325687D01*
X0023375Y0325648D01*
X0023220Y0325612D01*
X0023065Y0325581D01*
X0022909Y0325553D01*
X0022753Y0325529D01*
X0022596Y0325509D01*
X0022438Y0325493D01*
X0022281Y0325481D01*
X0022122Y0325473D01*
X0021964Y0325469D01*
X0021806Y0325469D01*
X0021648Y0325473D01*
X0021489Y0325481D01*
X0021332Y0325493D01*
X0021174Y0325509D01*
X0021017Y0325529D01*
X0020861Y0325553D01*
X0020705Y0325581D01*
X0020550Y0325612D01*
X0020395Y0325648D01*
X0020242Y0325687D01*
X0020090Y0325730D01*
X0019939Y0325777D01*
X0019789Y0325828D01*
X0019640Y0325883D01*
X0019493Y0325941D01*
X0019347Y0326003D01*
X0019203Y0326068D01*
X0019061Y0326138D01*
X0018920Y0326210D01*
X0018781Y0326287D01*
X0018645Y0326366D01*
X0018510Y0326450D01*
X0018377Y0326536D01*
X0018247Y0326626D01*
X0018119Y0326719D01*
X0017993Y0326815D01*
X0017870Y0326915D01*
X0017749Y0327017D01*
X0017631Y0327122D01*
X0017516Y0327231D01*
X0017403Y0327342D01*
X0017293Y0327456D01*
X0017186Y0327573D01*
X0017082Y0327692D01*
X0016981Y0327814D01*
X0016884Y0327939D01*
X0016789Y0328066D01*
X0016698Y0328195D01*
X0016609Y0328326D01*
X0016525Y0328460D01*
X0016443Y0328596D01*
X0016365Y0328733D01*
X0016291Y0328873D01*
X0016220Y0329015D01*
X0016152Y0329158D01*
X0016088Y0329303D01*
X0016028Y0329449D01*
X0015972Y0329597D01*
X0015919Y0329746D01*
X0015870Y0329897D01*
X0015825Y0330049D01*
X0015784Y0330202D01*
X0015746Y0330355D01*
X0015713Y0330510D01*
X0015683Y0330666D01*
X0015657Y0330822D01*
X0015636Y0330979D01*
X0015618Y0331136D01*
X0015604Y0331294D01*
X0015594Y0331452D01*
X0015588Y0331610D01*
X0015586Y0331768D01*
X0015586Y0355390D02*
X0015588Y0355548D01*
X0015594Y0355706D01*
X0015604Y0355864D01*
X0015618Y0356022D01*
X0015636Y0356179D01*
X0015657Y0356336D01*
X0015683Y0356492D01*
X0015713Y0356648D01*
X0015746Y0356803D01*
X0015784Y0356956D01*
X0015825Y0357109D01*
X0015870Y0357261D01*
X0015919Y0357412D01*
X0015972Y0357561D01*
X0016028Y0357709D01*
X0016088Y0357855D01*
X0016152Y0358000D01*
X0016220Y0358143D01*
X0016291Y0358285D01*
X0016365Y0358425D01*
X0016443Y0358562D01*
X0016525Y0358698D01*
X0016609Y0358832D01*
X0016698Y0358963D01*
X0016789Y0359092D01*
X0016884Y0359219D01*
X0016981Y0359344D01*
X0017082Y0359466D01*
X0017186Y0359585D01*
X0017293Y0359702D01*
X0017403Y0359816D01*
X0017516Y0359927D01*
X0017631Y0360036D01*
X0017749Y0360141D01*
X0017870Y0360243D01*
X0017993Y0360343D01*
X0018119Y0360439D01*
X0018247Y0360532D01*
X0018377Y0360622D01*
X0018510Y0360708D01*
X0018645Y0360792D01*
X0018781Y0360871D01*
X0018920Y0360948D01*
X0019061Y0361020D01*
X0019203Y0361090D01*
X0019347Y0361155D01*
X0019493Y0361217D01*
X0019640Y0361275D01*
X0019789Y0361330D01*
X0019939Y0361381D01*
X0020090Y0361428D01*
X0020242Y0361471D01*
X0020395Y0361510D01*
X0020550Y0361546D01*
X0020705Y0361577D01*
X0020861Y0361605D01*
X0021017Y0361629D01*
X0021174Y0361649D01*
X0021332Y0361665D01*
X0021489Y0361677D01*
X0021648Y0361685D01*
X0021806Y0361689D01*
X0021964Y0361689D01*
X0022122Y0361685D01*
X0022281Y0361677D01*
X0022438Y0361665D01*
X0022596Y0361649D01*
X0022753Y0361629D01*
X0022909Y0361605D01*
X0023065Y0361577D01*
X0023220Y0361546D01*
X0023375Y0361510D01*
X0023528Y0361471D01*
X0023680Y0361428D01*
X0023831Y0361381D01*
X0023981Y0361330D01*
X0024130Y0361275D01*
X0024277Y0361217D01*
X0024423Y0361155D01*
X0024567Y0361090D01*
X0024709Y0361020D01*
X0024850Y0360948D01*
X0024989Y0360871D01*
X0025125Y0360792D01*
X0025260Y0360708D01*
X0025393Y0360622D01*
X0025523Y0360532D01*
X0025651Y0360439D01*
X0025777Y0360343D01*
X0025900Y0360243D01*
X0026021Y0360141D01*
X0026139Y0360036D01*
X0026254Y0359927D01*
X0026367Y0359816D01*
X0026477Y0359702D01*
X0026584Y0359585D01*
X0026688Y0359466D01*
X0026789Y0359344D01*
X0026886Y0359219D01*
X0026981Y0359092D01*
X0027072Y0358963D01*
X0027161Y0358832D01*
X0027245Y0358698D01*
X0027327Y0358562D01*
X0027405Y0358425D01*
X0027479Y0358285D01*
X0027550Y0358143D01*
X0027618Y0358000D01*
X0027682Y0357855D01*
X0027742Y0357709D01*
X0027798Y0357561D01*
X0027851Y0357412D01*
X0027900Y0357261D01*
X0027945Y0357109D01*
X0027986Y0356956D01*
X0028024Y0356803D01*
X0028057Y0356648D01*
X0028087Y0356492D01*
X0028113Y0356336D01*
X0028134Y0356179D01*
X0028152Y0356022D01*
X0028166Y0355864D01*
X0028176Y0355706D01*
X0028182Y0355548D01*
X0028184Y0355390D01*
X0028182Y0355232D01*
X0028176Y0355074D01*
X0028166Y0354916D01*
X0028152Y0354758D01*
X0028134Y0354601D01*
X0028113Y0354444D01*
X0028087Y0354288D01*
X0028057Y0354132D01*
X0028024Y0353977D01*
X0027986Y0353824D01*
X0027945Y0353671D01*
X0027900Y0353519D01*
X0027851Y0353368D01*
X0027798Y0353219D01*
X0027742Y0353071D01*
X0027682Y0352925D01*
X0027618Y0352780D01*
X0027550Y0352637D01*
X0027479Y0352495D01*
X0027405Y0352355D01*
X0027327Y0352218D01*
X0027245Y0352082D01*
X0027161Y0351948D01*
X0027072Y0351817D01*
X0026981Y0351688D01*
X0026886Y0351561D01*
X0026789Y0351436D01*
X0026688Y0351314D01*
X0026584Y0351195D01*
X0026477Y0351078D01*
X0026367Y0350964D01*
X0026254Y0350853D01*
X0026139Y0350744D01*
X0026021Y0350639D01*
X0025900Y0350537D01*
X0025777Y0350437D01*
X0025651Y0350341D01*
X0025523Y0350248D01*
X0025393Y0350158D01*
X0025260Y0350072D01*
X0025125Y0349988D01*
X0024989Y0349909D01*
X0024850Y0349832D01*
X0024709Y0349760D01*
X0024567Y0349690D01*
X0024423Y0349625D01*
X0024277Y0349563D01*
X0024130Y0349505D01*
X0023981Y0349450D01*
X0023831Y0349399D01*
X0023680Y0349352D01*
X0023528Y0349309D01*
X0023375Y0349270D01*
X0023220Y0349234D01*
X0023065Y0349203D01*
X0022909Y0349175D01*
X0022753Y0349151D01*
X0022596Y0349131D01*
X0022438Y0349115D01*
X0022281Y0349103D01*
X0022122Y0349095D01*
X0021964Y0349091D01*
X0021806Y0349091D01*
X0021648Y0349095D01*
X0021489Y0349103D01*
X0021332Y0349115D01*
X0021174Y0349131D01*
X0021017Y0349151D01*
X0020861Y0349175D01*
X0020705Y0349203D01*
X0020550Y0349234D01*
X0020395Y0349270D01*
X0020242Y0349309D01*
X0020090Y0349352D01*
X0019939Y0349399D01*
X0019789Y0349450D01*
X0019640Y0349505D01*
X0019493Y0349563D01*
X0019347Y0349625D01*
X0019203Y0349690D01*
X0019061Y0349760D01*
X0018920Y0349832D01*
X0018781Y0349909D01*
X0018645Y0349988D01*
X0018510Y0350072D01*
X0018377Y0350158D01*
X0018247Y0350248D01*
X0018119Y0350341D01*
X0017993Y0350437D01*
X0017870Y0350537D01*
X0017749Y0350639D01*
X0017631Y0350744D01*
X0017516Y0350853D01*
X0017403Y0350964D01*
X0017293Y0351078D01*
X0017186Y0351195D01*
X0017082Y0351314D01*
X0016981Y0351436D01*
X0016884Y0351561D01*
X0016789Y0351688D01*
X0016698Y0351817D01*
X0016609Y0351948D01*
X0016525Y0352082D01*
X0016443Y0352218D01*
X0016365Y0352355D01*
X0016291Y0352495D01*
X0016220Y0352637D01*
X0016152Y0352780D01*
X0016088Y0352925D01*
X0016028Y0353071D01*
X0015972Y0353219D01*
X0015919Y0353368D01*
X0015870Y0353519D01*
X0015825Y0353671D01*
X0015784Y0353824D01*
X0015746Y0353977D01*
X0015713Y0354132D01*
X0015683Y0354288D01*
X0015657Y0354444D01*
X0015636Y0354601D01*
X0015618Y0354758D01*
X0015604Y0354916D01*
X0015594Y0355074D01*
X0015588Y0355232D01*
X0015586Y0355390D01*
X0310862Y0331768D02*
X0310864Y0331926D01*
X0310870Y0332084D01*
X0310880Y0332242D01*
X0310894Y0332400D01*
X0310912Y0332557D01*
X0310933Y0332714D01*
X0310959Y0332870D01*
X0310989Y0333026D01*
X0311022Y0333181D01*
X0311060Y0333334D01*
X0311101Y0333487D01*
X0311146Y0333639D01*
X0311195Y0333790D01*
X0311248Y0333939D01*
X0311304Y0334087D01*
X0311364Y0334233D01*
X0311428Y0334378D01*
X0311496Y0334521D01*
X0311567Y0334663D01*
X0311641Y0334803D01*
X0311719Y0334940D01*
X0311801Y0335076D01*
X0311885Y0335210D01*
X0311974Y0335341D01*
X0312065Y0335470D01*
X0312160Y0335597D01*
X0312257Y0335722D01*
X0312358Y0335844D01*
X0312462Y0335963D01*
X0312569Y0336080D01*
X0312679Y0336194D01*
X0312792Y0336305D01*
X0312907Y0336414D01*
X0313025Y0336519D01*
X0313146Y0336621D01*
X0313269Y0336721D01*
X0313395Y0336817D01*
X0313523Y0336910D01*
X0313653Y0337000D01*
X0313786Y0337086D01*
X0313921Y0337170D01*
X0314057Y0337249D01*
X0314196Y0337326D01*
X0314337Y0337398D01*
X0314479Y0337468D01*
X0314623Y0337533D01*
X0314769Y0337595D01*
X0314916Y0337653D01*
X0315065Y0337708D01*
X0315215Y0337759D01*
X0315366Y0337806D01*
X0315518Y0337849D01*
X0315671Y0337888D01*
X0315826Y0337924D01*
X0315981Y0337955D01*
X0316137Y0337983D01*
X0316293Y0338007D01*
X0316450Y0338027D01*
X0316608Y0338043D01*
X0316765Y0338055D01*
X0316924Y0338063D01*
X0317082Y0338067D01*
X0317240Y0338067D01*
X0317398Y0338063D01*
X0317557Y0338055D01*
X0317714Y0338043D01*
X0317872Y0338027D01*
X0318029Y0338007D01*
X0318185Y0337983D01*
X0318341Y0337955D01*
X0318496Y0337924D01*
X0318651Y0337888D01*
X0318804Y0337849D01*
X0318956Y0337806D01*
X0319107Y0337759D01*
X0319257Y0337708D01*
X0319406Y0337653D01*
X0319553Y0337595D01*
X0319699Y0337533D01*
X0319843Y0337468D01*
X0319985Y0337398D01*
X0320126Y0337326D01*
X0320265Y0337249D01*
X0320401Y0337170D01*
X0320536Y0337086D01*
X0320669Y0337000D01*
X0320799Y0336910D01*
X0320927Y0336817D01*
X0321053Y0336721D01*
X0321176Y0336621D01*
X0321297Y0336519D01*
X0321415Y0336414D01*
X0321530Y0336305D01*
X0321643Y0336194D01*
X0321753Y0336080D01*
X0321860Y0335963D01*
X0321964Y0335844D01*
X0322065Y0335722D01*
X0322162Y0335597D01*
X0322257Y0335470D01*
X0322348Y0335341D01*
X0322437Y0335210D01*
X0322521Y0335076D01*
X0322603Y0334940D01*
X0322681Y0334803D01*
X0322755Y0334663D01*
X0322826Y0334521D01*
X0322894Y0334378D01*
X0322958Y0334233D01*
X0323018Y0334087D01*
X0323074Y0333939D01*
X0323127Y0333790D01*
X0323176Y0333639D01*
X0323221Y0333487D01*
X0323262Y0333334D01*
X0323300Y0333181D01*
X0323333Y0333026D01*
X0323363Y0332870D01*
X0323389Y0332714D01*
X0323410Y0332557D01*
X0323428Y0332400D01*
X0323442Y0332242D01*
X0323452Y0332084D01*
X0323458Y0331926D01*
X0323460Y0331768D01*
X0323458Y0331610D01*
X0323452Y0331452D01*
X0323442Y0331294D01*
X0323428Y0331136D01*
X0323410Y0330979D01*
X0323389Y0330822D01*
X0323363Y0330666D01*
X0323333Y0330510D01*
X0323300Y0330355D01*
X0323262Y0330202D01*
X0323221Y0330049D01*
X0323176Y0329897D01*
X0323127Y0329746D01*
X0323074Y0329597D01*
X0323018Y0329449D01*
X0322958Y0329303D01*
X0322894Y0329158D01*
X0322826Y0329015D01*
X0322755Y0328873D01*
X0322681Y0328733D01*
X0322603Y0328596D01*
X0322521Y0328460D01*
X0322437Y0328326D01*
X0322348Y0328195D01*
X0322257Y0328066D01*
X0322162Y0327939D01*
X0322065Y0327814D01*
X0321964Y0327692D01*
X0321860Y0327573D01*
X0321753Y0327456D01*
X0321643Y0327342D01*
X0321530Y0327231D01*
X0321415Y0327122D01*
X0321297Y0327017D01*
X0321176Y0326915D01*
X0321053Y0326815D01*
X0320927Y0326719D01*
X0320799Y0326626D01*
X0320669Y0326536D01*
X0320536Y0326450D01*
X0320401Y0326366D01*
X0320265Y0326287D01*
X0320126Y0326210D01*
X0319985Y0326138D01*
X0319843Y0326068D01*
X0319699Y0326003D01*
X0319553Y0325941D01*
X0319406Y0325883D01*
X0319257Y0325828D01*
X0319107Y0325777D01*
X0318956Y0325730D01*
X0318804Y0325687D01*
X0318651Y0325648D01*
X0318496Y0325612D01*
X0318341Y0325581D01*
X0318185Y0325553D01*
X0318029Y0325529D01*
X0317872Y0325509D01*
X0317714Y0325493D01*
X0317557Y0325481D01*
X0317398Y0325473D01*
X0317240Y0325469D01*
X0317082Y0325469D01*
X0316924Y0325473D01*
X0316765Y0325481D01*
X0316608Y0325493D01*
X0316450Y0325509D01*
X0316293Y0325529D01*
X0316137Y0325553D01*
X0315981Y0325581D01*
X0315826Y0325612D01*
X0315671Y0325648D01*
X0315518Y0325687D01*
X0315366Y0325730D01*
X0315215Y0325777D01*
X0315065Y0325828D01*
X0314916Y0325883D01*
X0314769Y0325941D01*
X0314623Y0326003D01*
X0314479Y0326068D01*
X0314337Y0326138D01*
X0314196Y0326210D01*
X0314057Y0326287D01*
X0313921Y0326366D01*
X0313786Y0326450D01*
X0313653Y0326536D01*
X0313523Y0326626D01*
X0313395Y0326719D01*
X0313269Y0326815D01*
X0313146Y0326915D01*
X0313025Y0327017D01*
X0312907Y0327122D01*
X0312792Y0327231D01*
X0312679Y0327342D01*
X0312569Y0327456D01*
X0312462Y0327573D01*
X0312358Y0327692D01*
X0312257Y0327814D01*
X0312160Y0327939D01*
X0312065Y0328066D01*
X0311974Y0328195D01*
X0311885Y0328326D01*
X0311801Y0328460D01*
X0311719Y0328596D01*
X0311641Y0328733D01*
X0311567Y0328873D01*
X0311496Y0329015D01*
X0311428Y0329158D01*
X0311364Y0329303D01*
X0311304Y0329449D01*
X0311248Y0329597D01*
X0311195Y0329746D01*
X0311146Y0329897D01*
X0311101Y0330049D01*
X0311060Y0330202D01*
X0311022Y0330355D01*
X0310989Y0330510D01*
X0310959Y0330666D01*
X0310933Y0330822D01*
X0310912Y0330979D01*
X0310894Y0331136D01*
X0310880Y0331294D01*
X0310870Y0331452D01*
X0310864Y0331610D01*
X0310862Y0331768D01*
X0366570Y0282949D02*
X0366572Y0283057D01*
X0366578Y0283166D01*
X0366588Y0283274D01*
X0366602Y0283381D01*
X0366620Y0283488D01*
X0366641Y0283595D01*
X0366667Y0283700D01*
X0366697Y0283805D01*
X0366730Y0283908D01*
X0366767Y0284010D01*
X0366808Y0284110D01*
X0366852Y0284209D01*
X0366901Y0284307D01*
X0366952Y0284402D01*
X0367007Y0284495D01*
X0367066Y0284587D01*
X0367128Y0284676D01*
X0367193Y0284763D01*
X0367261Y0284847D01*
X0367332Y0284929D01*
X0367406Y0285008D01*
X0367483Y0285084D01*
X0367563Y0285158D01*
X0367646Y0285228D01*
X0367731Y0285296D01*
X0367818Y0285360D01*
X0367908Y0285421D01*
X0368000Y0285479D01*
X0368094Y0285533D01*
X0368190Y0285584D01*
X0368287Y0285631D01*
X0368387Y0285675D01*
X0368488Y0285715D01*
X0368590Y0285751D01*
X0368693Y0285783D01*
X0368798Y0285812D01*
X0368904Y0285836D01*
X0369010Y0285857D01*
X0369117Y0285874D01*
X0369225Y0285887D01*
X0369333Y0285896D01*
X0369442Y0285901D01*
X0369550Y0285902D01*
X0369659Y0285899D01*
X0369767Y0285892D01*
X0369875Y0285881D01*
X0369982Y0285866D01*
X0370089Y0285847D01*
X0370195Y0285824D01*
X0370300Y0285798D01*
X0370405Y0285767D01*
X0370507Y0285733D01*
X0370609Y0285695D01*
X0370709Y0285653D01*
X0370808Y0285608D01*
X0370905Y0285559D01*
X0370999Y0285506D01*
X0371092Y0285450D01*
X0371183Y0285391D01*
X0371272Y0285328D01*
X0371358Y0285263D01*
X0371442Y0285194D01*
X0371523Y0285122D01*
X0371601Y0285047D01*
X0371677Y0284969D01*
X0371750Y0284888D01*
X0371820Y0284805D01*
X0371886Y0284720D01*
X0371950Y0284632D01*
X0372010Y0284541D01*
X0372067Y0284449D01*
X0372120Y0284354D01*
X0372170Y0284258D01*
X0372216Y0284160D01*
X0372259Y0284060D01*
X0372298Y0283959D01*
X0372333Y0283856D01*
X0372365Y0283753D01*
X0372392Y0283648D01*
X0372416Y0283542D01*
X0372436Y0283435D01*
X0372452Y0283328D01*
X0372464Y0283220D01*
X0372472Y0283112D01*
X0372476Y0283003D01*
X0372476Y0282895D01*
X0372472Y0282786D01*
X0372464Y0282678D01*
X0372452Y0282570D01*
X0372436Y0282463D01*
X0372416Y0282356D01*
X0372392Y0282250D01*
X0372365Y0282145D01*
X0372333Y0282042D01*
X0372298Y0281939D01*
X0372259Y0281838D01*
X0372216Y0281738D01*
X0372170Y0281640D01*
X0372120Y0281544D01*
X0372067Y0281449D01*
X0372010Y0281357D01*
X0371950Y0281266D01*
X0371886Y0281178D01*
X0371820Y0281093D01*
X0371750Y0281010D01*
X0371677Y0280929D01*
X0371601Y0280851D01*
X0371523Y0280776D01*
X0371442Y0280704D01*
X0371358Y0280635D01*
X0371272Y0280570D01*
X0371183Y0280507D01*
X0371092Y0280448D01*
X0371000Y0280392D01*
X0370905Y0280339D01*
X0370808Y0280290D01*
X0370709Y0280245D01*
X0370609Y0280203D01*
X0370507Y0280165D01*
X0370405Y0280131D01*
X0370300Y0280100D01*
X0370195Y0280074D01*
X0370089Y0280051D01*
X0369982Y0280032D01*
X0369875Y0280017D01*
X0369767Y0280006D01*
X0369659Y0279999D01*
X0369550Y0279996D01*
X0369442Y0279997D01*
X0369333Y0280002D01*
X0369225Y0280011D01*
X0369117Y0280024D01*
X0369010Y0280041D01*
X0368904Y0280062D01*
X0368798Y0280086D01*
X0368693Y0280115D01*
X0368590Y0280147D01*
X0368488Y0280183D01*
X0368387Y0280223D01*
X0368287Y0280267D01*
X0368190Y0280314D01*
X0368094Y0280365D01*
X0368000Y0280419D01*
X0367908Y0280477D01*
X0367818Y0280538D01*
X0367731Y0280602D01*
X0367646Y0280670D01*
X0367563Y0280740D01*
X0367483Y0280814D01*
X0367406Y0280890D01*
X0367332Y0280969D01*
X0367261Y0281051D01*
X0367193Y0281135D01*
X0367128Y0281222D01*
X0367066Y0281311D01*
X0367007Y0281403D01*
X0366952Y0281496D01*
X0366901Y0281591D01*
X0366852Y0281689D01*
X0366808Y0281788D01*
X0366767Y0281888D01*
X0366730Y0281990D01*
X0366697Y0282093D01*
X0366667Y0282198D01*
X0366641Y0282303D01*
X0366620Y0282410D01*
X0366602Y0282517D01*
X0366588Y0282624D01*
X0366578Y0282732D01*
X0366572Y0282841D01*
X0366570Y0282949D01*
X0386255Y0302634D02*
X0386257Y0302742D01*
X0386263Y0302851D01*
X0386273Y0302959D01*
X0386287Y0303066D01*
X0386305Y0303173D01*
X0386326Y0303280D01*
X0386352Y0303385D01*
X0386382Y0303490D01*
X0386415Y0303593D01*
X0386452Y0303695D01*
X0386493Y0303795D01*
X0386537Y0303894D01*
X0386586Y0303992D01*
X0386637Y0304087D01*
X0386692Y0304180D01*
X0386751Y0304272D01*
X0386813Y0304361D01*
X0386878Y0304448D01*
X0386946Y0304532D01*
X0387017Y0304614D01*
X0387091Y0304693D01*
X0387168Y0304769D01*
X0387248Y0304843D01*
X0387331Y0304913D01*
X0387416Y0304981D01*
X0387503Y0305045D01*
X0387593Y0305106D01*
X0387685Y0305164D01*
X0387779Y0305218D01*
X0387875Y0305269D01*
X0387972Y0305316D01*
X0388072Y0305360D01*
X0388173Y0305400D01*
X0388275Y0305436D01*
X0388378Y0305468D01*
X0388483Y0305497D01*
X0388589Y0305521D01*
X0388695Y0305542D01*
X0388802Y0305559D01*
X0388910Y0305572D01*
X0389018Y0305581D01*
X0389127Y0305586D01*
X0389235Y0305587D01*
X0389344Y0305584D01*
X0389452Y0305577D01*
X0389560Y0305566D01*
X0389667Y0305551D01*
X0389774Y0305532D01*
X0389880Y0305509D01*
X0389985Y0305483D01*
X0390090Y0305452D01*
X0390192Y0305418D01*
X0390294Y0305380D01*
X0390394Y0305338D01*
X0390493Y0305293D01*
X0390590Y0305244D01*
X0390684Y0305191D01*
X0390777Y0305135D01*
X0390868Y0305076D01*
X0390957Y0305013D01*
X0391043Y0304948D01*
X0391127Y0304879D01*
X0391208Y0304807D01*
X0391286Y0304732D01*
X0391362Y0304654D01*
X0391435Y0304573D01*
X0391505Y0304490D01*
X0391571Y0304405D01*
X0391635Y0304317D01*
X0391695Y0304226D01*
X0391752Y0304134D01*
X0391805Y0304039D01*
X0391855Y0303943D01*
X0391901Y0303845D01*
X0391944Y0303745D01*
X0391983Y0303644D01*
X0392018Y0303541D01*
X0392050Y0303438D01*
X0392077Y0303333D01*
X0392101Y0303227D01*
X0392121Y0303120D01*
X0392137Y0303013D01*
X0392149Y0302905D01*
X0392157Y0302797D01*
X0392161Y0302688D01*
X0392161Y0302580D01*
X0392157Y0302471D01*
X0392149Y0302363D01*
X0392137Y0302255D01*
X0392121Y0302148D01*
X0392101Y0302041D01*
X0392077Y0301935D01*
X0392050Y0301830D01*
X0392018Y0301727D01*
X0391983Y0301624D01*
X0391944Y0301523D01*
X0391901Y0301423D01*
X0391855Y0301325D01*
X0391805Y0301229D01*
X0391752Y0301134D01*
X0391695Y0301042D01*
X0391635Y0300951D01*
X0391571Y0300863D01*
X0391505Y0300778D01*
X0391435Y0300695D01*
X0391362Y0300614D01*
X0391286Y0300536D01*
X0391208Y0300461D01*
X0391127Y0300389D01*
X0391043Y0300320D01*
X0390957Y0300255D01*
X0390868Y0300192D01*
X0390777Y0300133D01*
X0390685Y0300077D01*
X0390590Y0300024D01*
X0390493Y0299975D01*
X0390394Y0299930D01*
X0390294Y0299888D01*
X0390192Y0299850D01*
X0390090Y0299816D01*
X0389985Y0299785D01*
X0389880Y0299759D01*
X0389774Y0299736D01*
X0389667Y0299717D01*
X0389560Y0299702D01*
X0389452Y0299691D01*
X0389344Y0299684D01*
X0389235Y0299681D01*
X0389127Y0299682D01*
X0389018Y0299687D01*
X0388910Y0299696D01*
X0388802Y0299709D01*
X0388695Y0299726D01*
X0388589Y0299747D01*
X0388483Y0299771D01*
X0388378Y0299800D01*
X0388275Y0299832D01*
X0388173Y0299868D01*
X0388072Y0299908D01*
X0387972Y0299952D01*
X0387875Y0299999D01*
X0387779Y0300050D01*
X0387685Y0300104D01*
X0387593Y0300162D01*
X0387503Y0300223D01*
X0387416Y0300287D01*
X0387331Y0300355D01*
X0387248Y0300425D01*
X0387168Y0300499D01*
X0387091Y0300575D01*
X0387017Y0300654D01*
X0386946Y0300736D01*
X0386878Y0300820D01*
X0386813Y0300907D01*
X0386751Y0300996D01*
X0386692Y0301088D01*
X0386637Y0301181D01*
X0386586Y0301276D01*
X0386537Y0301374D01*
X0386493Y0301473D01*
X0386452Y0301573D01*
X0386415Y0301675D01*
X0386382Y0301778D01*
X0386352Y0301883D01*
X0386326Y0301988D01*
X0386305Y0302095D01*
X0386287Y0302202D01*
X0386273Y0302309D01*
X0386263Y0302417D01*
X0386257Y0302526D01*
X0386255Y0302634D01*
X0386255Y0263264D02*
X0386257Y0263372D01*
X0386263Y0263481D01*
X0386273Y0263589D01*
X0386287Y0263696D01*
X0386305Y0263803D01*
X0386326Y0263910D01*
X0386352Y0264015D01*
X0386382Y0264120D01*
X0386415Y0264223D01*
X0386452Y0264325D01*
X0386493Y0264425D01*
X0386537Y0264524D01*
X0386586Y0264622D01*
X0386637Y0264717D01*
X0386692Y0264810D01*
X0386751Y0264902D01*
X0386813Y0264991D01*
X0386878Y0265078D01*
X0386946Y0265162D01*
X0387017Y0265244D01*
X0387091Y0265323D01*
X0387168Y0265399D01*
X0387248Y0265473D01*
X0387331Y0265543D01*
X0387416Y0265611D01*
X0387503Y0265675D01*
X0387593Y0265736D01*
X0387685Y0265794D01*
X0387779Y0265848D01*
X0387875Y0265899D01*
X0387972Y0265946D01*
X0388072Y0265990D01*
X0388173Y0266030D01*
X0388275Y0266066D01*
X0388378Y0266098D01*
X0388483Y0266127D01*
X0388589Y0266151D01*
X0388695Y0266172D01*
X0388802Y0266189D01*
X0388910Y0266202D01*
X0389018Y0266211D01*
X0389127Y0266216D01*
X0389235Y0266217D01*
X0389344Y0266214D01*
X0389452Y0266207D01*
X0389560Y0266196D01*
X0389667Y0266181D01*
X0389774Y0266162D01*
X0389880Y0266139D01*
X0389985Y0266113D01*
X0390090Y0266082D01*
X0390192Y0266048D01*
X0390294Y0266010D01*
X0390394Y0265968D01*
X0390493Y0265923D01*
X0390590Y0265874D01*
X0390684Y0265821D01*
X0390777Y0265765D01*
X0390868Y0265706D01*
X0390957Y0265643D01*
X0391043Y0265578D01*
X0391127Y0265509D01*
X0391208Y0265437D01*
X0391286Y0265362D01*
X0391362Y0265284D01*
X0391435Y0265203D01*
X0391505Y0265120D01*
X0391571Y0265035D01*
X0391635Y0264947D01*
X0391695Y0264856D01*
X0391752Y0264764D01*
X0391805Y0264669D01*
X0391855Y0264573D01*
X0391901Y0264475D01*
X0391944Y0264375D01*
X0391983Y0264274D01*
X0392018Y0264171D01*
X0392050Y0264068D01*
X0392077Y0263963D01*
X0392101Y0263857D01*
X0392121Y0263750D01*
X0392137Y0263643D01*
X0392149Y0263535D01*
X0392157Y0263427D01*
X0392161Y0263318D01*
X0392161Y0263210D01*
X0392157Y0263101D01*
X0392149Y0262993D01*
X0392137Y0262885D01*
X0392121Y0262778D01*
X0392101Y0262671D01*
X0392077Y0262565D01*
X0392050Y0262460D01*
X0392018Y0262357D01*
X0391983Y0262254D01*
X0391944Y0262153D01*
X0391901Y0262053D01*
X0391855Y0261955D01*
X0391805Y0261859D01*
X0391752Y0261764D01*
X0391695Y0261672D01*
X0391635Y0261581D01*
X0391571Y0261493D01*
X0391505Y0261408D01*
X0391435Y0261325D01*
X0391362Y0261244D01*
X0391286Y0261166D01*
X0391208Y0261091D01*
X0391127Y0261019D01*
X0391043Y0260950D01*
X0390957Y0260885D01*
X0390868Y0260822D01*
X0390777Y0260763D01*
X0390685Y0260707D01*
X0390590Y0260654D01*
X0390493Y0260605D01*
X0390394Y0260560D01*
X0390294Y0260518D01*
X0390192Y0260480D01*
X0390090Y0260446D01*
X0389985Y0260415D01*
X0389880Y0260389D01*
X0389774Y0260366D01*
X0389667Y0260347D01*
X0389560Y0260332D01*
X0389452Y0260321D01*
X0389344Y0260314D01*
X0389235Y0260311D01*
X0389127Y0260312D01*
X0389018Y0260317D01*
X0388910Y0260326D01*
X0388802Y0260339D01*
X0388695Y0260356D01*
X0388589Y0260377D01*
X0388483Y0260401D01*
X0388378Y0260430D01*
X0388275Y0260462D01*
X0388173Y0260498D01*
X0388072Y0260538D01*
X0387972Y0260582D01*
X0387875Y0260629D01*
X0387779Y0260680D01*
X0387685Y0260734D01*
X0387593Y0260792D01*
X0387503Y0260853D01*
X0387416Y0260917D01*
X0387331Y0260985D01*
X0387248Y0261055D01*
X0387168Y0261129D01*
X0387091Y0261205D01*
X0387017Y0261284D01*
X0386946Y0261366D01*
X0386878Y0261450D01*
X0386813Y0261537D01*
X0386751Y0261626D01*
X0386692Y0261718D01*
X0386637Y0261811D01*
X0386586Y0261906D01*
X0386537Y0262004D01*
X0386493Y0262103D01*
X0386452Y0262203D01*
X0386415Y0262305D01*
X0386382Y0262408D01*
X0386352Y0262513D01*
X0386326Y0262618D01*
X0386305Y0262725D01*
X0386287Y0262832D01*
X0386273Y0262939D01*
X0386263Y0263047D01*
X0386257Y0263156D01*
X0386255Y0263264D01*
X0386255Y0245547D02*
X0386257Y0245655D01*
X0386263Y0245764D01*
X0386273Y0245872D01*
X0386287Y0245979D01*
X0386305Y0246086D01*
X0386326Y0246193D01*
X0386352Y0246298D01*
X0386382Y0246403D01*
X0386415Y0246506D01*
X0386452Y0246608D01*
X0386493Y0246708D01*
X0386537Y0246807D01*
X0386586Y0246905D01*
X0386637Y0247000D01*
X0386692Y0247093D01*
X0386751Y0247185D01*
X0386813Y0247274D01*
X0386878Y0247361D01*
X0386946Y0247445D01*
X0387017Y0247527D01*
X0387091Y0247606D01*
X0387168Y0247682D01*
X0387248Y0247756D01*
X0387331Y0247826D01*
X0387416Y0247894D01*
X0387503Y0247958D01*
X0387593Y0248019D01*
X0387685Y0248077D01*
X0387779Y0248131D01*
X0387875Y0248182D01*
X0387972Y0248229D01*
X0388072Y0248273D01*
X0388173Y0248313D01*
X0388275Y0248349D01*
X0388378Y0248381D01*
X0388483Y0248410D01*
X0388589Y0248434D01*
X0388695Y0248455D01*
X0388802Y0248472D01*
X0388910Y0248485D01*
X0389018Y0248494D01*
X0389127Y0248499D01*
X0389235Y0248500D01*
X0389344Y0248497D01*
X0389452Y0248490D01*
X0389560Y0248479D01*
X0389667Y0248464D01*
X0389774Y0248445D01*
X0389880Y0248422D01*
X0389985Y0248396D01*
X0390090Y0248365D01*
X0390192Y0248331D01*
X0390294Y0248293D01*
X0390394Y0248251D01*
X0390493Y0248206D01*
X0390590Y0248157D01*
X0390684Y0248104D01*
X0390777Y0248048D01*
X0390868Y0247989D01*
X0390957Y0247926D01*
X0391043Y0247861D01*
X0391127Y0247792D01*
X0391208Y0247720D01*
X0391286Y0247645D01*
X0391362Y0247567D01*
X0391435Y0247486D01*
X0391505Y0247403D01*
X0391571Y0247318D01*
X0391635Y0247230D01*
X0391695Y0247139D01*
X0391752Y0247047D01*
X0391805Y0246952D01*
X0391855Y0246856D01*
X0391901Y0246758D01*
X0391944Y0246658D01*
X0391983Y0246557D01*
X0392018Y0246454D01*
X0392050Y0246351D01*
X0392077Y0246246D01*
X0392101Y0246140D01*
X0392121Y0246033D01*
X0392137Y0245926D01*
X0392149Y0245818D01*
X0392157Y0245710D01*
X0392161Y0245601D01*
X0392161Y0245493D01*
X0392157Y0245384D01*
X0392149Y0245276D01*
X0392137Y0245168D01*
X0392121Y0245061D01*
X0392101Y0244954D01*
X0392077Y0244848D01*
X0392050Y0244743D01*
X0392018Y0244640D01*
X0391983Y0244537D01*
X0391944Y0244436D01*
X0391901Y0244336D01*
X0391855Y0244238D01*
X0391805Y0244142D01*
X0391752Y0244047D01*
X0391695Y0243955D01*
X0391635Y0243864D01*
X0391571Y0243776D01*
X0391505Y0243691D01*
X0391435Y0243608D01*
X0391362Y0243527D01*
X0391286Y0243449D01*
X0391208Y0243374D01*
X0391127Y0243302D01*
X0391043Y0243233D01*
X0390957Y0243168D01*
X0390868Y0243105D01*
X0390777Y0243046D01*
X0390685Y0242990D01*
X0390590Y0242937D01*
X0390493Y0242888D01*
X0390394Y0242843D01*
X0390294Y0242801D01*
X0390192Y0242763D01*
X0390090Y0242729D01*
X0389985Y0242698D01*
X0389880Y0242672D01*
X0389774Y0242649D01*
X0389667Y0242630D01*
X0389560Y0242615D01*
X0389452Y0242604D01*
X0389344Y0242597D01*
X0389235Y0242594D01*
X0389127Y0242595D01*
X0389018Y0242600D01*
X0388910Y0242609D01*
X0388802Y0242622D01*
X0388695Y0242639D01*
X0388589Y0242660D01*
X0388483Y0242684D01*
X0388378Y0242713D01*
X0388275Y0242745D01*
X0388173Y0242781D01*
X0388072Y0242821D01*
X0387972Y0242865D01*
X0387875Y0242912D01*
X0387779Y0242963D01*
X0387685Y0243017D01*
X0387593Y0243075D01*
X0387503Y0243136D01*
X0387416Y0243200D01*
X0387331Y0243268D01*
X0387248Y0243338D01*
X0387168Y0243412D01*
X0387091Y0243488D01*
X0387017Y0243567D01*
X0386946Y0243649D01*
X0386878Y0243733D01*
X0386813Y0243820D01*
X0386751Y0243909D01*
X0386692Y0244001D01*
X0386637Y0244094D01*
X0386586Y0244189D01*
X0386537Y0244287D01*
X0386493Y0244386D01*
X0386452Y0244486D01*
X0386415Y0244588D01*
X0386382Y0244691D01*
X0386352Y0244796D01*
X0386326Y0244901D01*
X0386305Y0245008D01*
X0386287Y0245115D01*
X0386273Y0245222D01*
X0386263Y0245330D01*
X0386257Y0245439D01*
X0386255Y0245547D01*
X0366570Y0225862D02*
X0366572Y0225970D01*
X0366578Y0226079D01*
X0366588Y0226187D01*
X0366602Y0226294D01*
X0366620Y0226401D01*
X0366641Y0226508D01*
X0366667Y0226613D01*
X0366697Y0226718D01*
X0366730Y0226821D01*
X0366767Y0226923D01*
X0366808Y0227023D01*
X0366852Y0227122D01*
X0366901Y0227220D01*
X0366952Y0227315D01*
X0367007Y0227408D01*
X0367066Y0227500D01*
X0367128Y0227589D01*
X0367193Y0227676D01*
X0367261Y0227760D01*
X0367332Y0227842D01*
X0367406Y0227921D01*
X0367483Y0227997D01*
X0367563Y0228071D01*
X0367646Y0228141D01*
X0367731Y0228209D01*
X0367818Y0228273D01*
X0367908Y0228334D01*
X0368000Y0228392D01*
X0368094Y0228446D01*
X0368190Y0228497D01*
X0368287Y0228544D01*
X0368387Y0228588D01*
X0368488Y0228628D01*
X0368590Y0228664D01*
X0368693Y0228696D01*
X0368798Y0228725D01*
X0368904Y0228749D01*
X0369010Y0228770D01*
X0369117Y0228787D01*
X0369225Y0228800D01*
X0369333Y0228809D01*
X0369442Y0228814D01*
X0369550Y0228815D01*
X0369659Y0228812D01*
X0369767Y0228805D01*
X0369875Y0228794D01*
X0369982Y0228779D01*
X0370089Y0228760D01*
X0370195Y0228737D01*
X0370300Y0228711D01*
X0370405Y0228680D01*
X0370507Y0228646D01*
X0370609Y0228608D01*
X0370709Y0228566D01*
X0370808Y0228521D01*
X0370905Y0228472D01*
X0370999Y0228419D01*
X0371092Y0228363D01*
X0371183Y0228304D01*
X0371272Y0228241D01*
X0371358Y0228176D01*
X0371442Y0228107D01*
X0371523Y0228035D01*
X0371601Y0227960D01*
X0371677Y0227882D01*
X0371750Y0227801D01*
X0371820Y0227718D01*
X0371886Y0227633D01*
X0371950Y0227545D01*
X0372010Y0227454D01*
X0372067Y0227362D01*
X0372120Y0227267D01*
X0372170Y0227171D01*
X0372216Y0227073D01*
X0372259Y0226973D01*
X0372298Y0226872D01*
X0372333Y0226769D01*
X0372365Y0226666D01*
X0372392Y0226561D01*
X0372416Y0226455D01*
X0372436Y0226348D01*
X0372452Y0226241D01*
X0372464Y0226133D01*
X0372472Y0226025D01*
X0372476Y0225916D01*
X0372476Y0225808D01*
X0372472Y0225699D01*
X0372464Y0225591D01*
X0372452Y0225483D01*
X0372436Y0225376D01*
X0372416Y0225269D01*
X0372392Y0225163D01*
X0372365Y0225058D01*
X0372333Y0224955D01*
X0372298Y0224852D01*
X0372259Y0224751D01*
X0372216Y0224651D01*
X0372170Y0224553D01*
X0372120Y0224457D01*
X0372067Y0224362D01*
X0372010Y0224270D01*
X0371950Y0224179D01*
X0371886Y0224091D01*
X0371820Y0224006D01*
X0371750Y0223923D01*
X0371677Y0223842D01*
X0371601Y0223764D01*
X0371523Y0223689D01*
X0371442Y0223617D01*
X0371358Y0223548D01*
X0371272Y0223483D01*
X0371183Y0223420D01*
X0371092Y0223361D01*
X0371000Y0223305D01*
X0370905Y0223252D01*
X0370808Y0223203D01*
X0370709Y0223158D01*
X0370609Y0223116D01*
X0370507Y0223078D01*
X0370405Y0223044D01*
X0370300Y0223013D01*
X0370195Y0222987D01*
X0370089Y0222964D01*
X0369982Y0222945D01*
X0369875Y0222930D01*
X0369767Y0222919D01*
X0369659Y0222912D01*
X0369550Y0222909D01*
X0369442Y0222910D01*
X0369333Y0222915D01*
X0369225Y0222924D01*
X0369117Y0222937D01*
X0369010Y0222954D01*
X0368904Y0222975D01*
X0368798Y0222999D01*
X0368693Y0223028D01*
X0368590Y0223060D01*
X0368488Y0223096D01*
X0368387Y0223136D01*
X0368287Y0223180D01*
X0368190Y0223227D01*
X0368094Y0223278D01*
X0368000Y0223332D01*
X0367908Y0223390D01*
X0367818Y0223451D01*
X0367731Y0223515D01*
X0367646Y0223583D01*
X0367563Y0223653D01*
X0367483Y0223727D01*
X0367406Y0223803D01*
X0367332Y0223882D01*
X0367261Y0223964D01*
X0367193Y0224048D01*
X0367128Y0224135D01*
X0367066Y0224224D01*
X0367007Y0224316D01*
X0366952Y0224409D01*
X0366901Y0224504D01*
X0366852Y0224602D01*
X0366808Y0224701D01*
X0366767Y0224801D01*
X0366730Y0224903D01*
X0366697Y0225006D01*
X0366667Y0225111D01*
X0366641Y0225216D01*
X0366620Y0225323D01*
X0366602Y0225430D01*
X0366588Y0225537D01*
X0366578Y0225645D01*
X0366572Y0225754D01*
X0366570Y0225862D01*
X0386255Y0206177D02*
X0386257Y0206285D01*
X0386263Y0206394D01*
X0386273Y0206502D01*
X0386287Y0206609D01*
X0386305Y0206716D01*
X0386326Y0206823D01*
X0386352Y0206928D01*
X0386382Y0207033D01*
X0386415Y0207136D01*
X0386452Y0207238D01*
X0386493Y0207338D01*
X0386537Y0207437D01*
X0386586Y0207535D01*
X0386637Y0207630D01*
X0386692Y0207723D01*
X0386751Y0207815D01*
X0386813Y0207904D01*
X0386878Y0207991D01*
X0386946Y0208075D01*
X0387017Y0208157D01*
X0387091Y0208236D01*
X0387168Y0208312D01*
X0387248Y0208386D01*
X0387331Y0208456D01*
X0387416Y0208524D01*
X0387503Y0208588D01*
X0387593Y0208649D01*
X0387685Y0208707D01*
X0387779Y0208761D01*
X0387875Y0208812D01*
X0387972Y0208859D01*
X0388072Y0208903D01*
X0388173Y0208943D01*
X0388275Y0208979D01*
X0388378Y0209011D01*
X0388483Y0209040D01*
X0388589Y0209064D01*
X0388695Y0209085D01*
X0388802Y0209102D01*
X0388910Y0209115D01*
X0389018Y0209124D01*
X0389127Y0209129D01*
X0389235Y0209130D01*
X0389344Y0209127D01*
X0389452Y0209120D01*
X0389560Y0209109D01*
X0389667Y0209094D01*
X0389774Y0209075D01*
X0389880Y0209052D01*
X0389985Y0209026D01*
X0390090Y0208995D01*
X0390192Y0208961D01*
X0390294Y0208923D01*
X0390394Y0208881D01*
X0390493Y0208836D01*
X0390590Y0208787D01*
X0390684Y0208734D01*
X0390777Y0208678D01*
X0390868Y0208619D01*
X0390957Y0208556D01*
X0391043Y0208491D01*
X0391127Y0208422D01*
X0391208Y0208350D01*
X0391286Y0208275D01*
X0391362Y0208197D01*
X0391435Y0208116D01*
X0391505Y0208033D01*
X0391571Y0207948D01*
X0391635Y0207860D01*
X0391695Y0207769D01*
X0391752Y0207677D01*
X0391805Y0207582D01*
X0391855Y0207486D01*
X0391901Y0207388D01*
X0391944Y0207288D01*
X0391983Y0207187D01*
X0392018Y0207084D01*
X0392050Y0206981D01*
X0392077Y0206876D01*
X0392101Y0206770D01*
X0392121Y0206663D01*
X0392137Y0206556D01*
X0392149Y0206448D01*
X0392157Y0206340D01*
X0392161Y0206231D01*
X0392161Y0206123D01*
X0392157Y0206014D01*
X0392149Y0205906D01*
X0392137Y0205798D01*
X0392121Y0205691D01*
X0392101Y0205584D01*
X0392077Y0205478D01*
X0392050Y0205373D01*
X0392018Y0205270D01*
X0391983Y0205167D01*
X0391944Y0205066D01*
X0391901Y0204966D01*
X0391855Y0204868D01*
X0391805Y0204772D01*
X0391752Y0204677D01*
X0391695Y0204585D01*
X0391635Y0204494D01*
X0391571Y0204406D01*
X0391505Y0204321D01*
X0391435Y0204238D01*
X0391362Y0204157D01*
X0391286Y0204079D01*
X0391208Y0204004D01*
X0391127Y0203932D01*
X0391043Y0203863D01*
X0390957Y0203798D01*
X0390868Y0203735D01*
X0390777Y0203676D01*
X0390685Y0203620D01*
X0390590Y0203567D01*
X0390493Y0203518D01*
X0390394Y0203473D01*
X0390294Y0203431D01*
X0390192Y0203393D01*
X0390090Y0203359D01*
X0389985Y0203328D01*
X0389880Y0203302D01*
X0389774Y0203279D01*
X0389667Y0203260D01*
X0389560Y0203245D01*
X0389452Y0203234D01*
X0389344Y0203227D01*
X0389235Y0203224D01*
X0389127Y0203225D01*
X0389018Y0203230D01*
X0388910Y0203239D01*
X0388802Y0203252D01*
X0388695Y0203269D01*
X0388589Y0203290D01*
X0388483Y0203314D01*
X0388378Y0203343D01*
X0388275Y0203375D01*
X0388173Y0203411D01*
X0388072Y0203451D01*
X0387972Y0203495D01*
X0387875Y0203542D01*
X0387779Y0203593D01*
X0387685Y0203647D01*
X0387593Y0203705D01*
X0387503Y0203766D01*
X0387416Y0203830D01*
X0387331Y0203898D01*
X0387248Y0203968D01*
X0387168Y0204042D01*
X0387091Y0204118D01*
X0387017Y0204197D01*
X0386946Y0204279D01*
X0386878Y0204363D01*
X0386813Y0204450D01*
X0386751Y0204539D01*
X0386692Y0204631D01*
X0386637Y0204724D01*
X0386586Y0204819D01*
X0386537Y0204917D01*
X0386493Y0205016D01*
X0386452Y0205116D01*
X0386415Y0205218D01*
X0386382Y0205321D01*
X0386352Y0205426D01*
X0386326Y0205531D01*
X0386305Y0205638D01*
X0386287Y0205745D01*
X0386273Y0205852D01*
X0386263Y0205960D01*
X0386257Y0206069D01*
X0386255Y0206177D01*
X0310862Y0207752D02*
X0310864Y0207910D01*
X0310870Y0208068D01*
X0310880Y0208226D01*
X0310894Y0208384D01*
X0310912Y0208541D01*
X0310933Y0208698D01*
X0310959Y0208854D01*
X0310989Y0209010D01*
X0311022Y0209165D01*
X0311060Y0209318D01*
X0311101Y0209471D01*
X0311146Y0209623D01*
X0311195Y0209774D01*
X0311248Y0209923D01*
X0311304Y0210071D01*
X0311364Y0210217D01*
X0311428Y0210362D01*
X0311496Y0210505D01*
X0311567Y0210647D01*
X0311641Y0210787D01*
X0311719Y0210924D01*
X0311801Y0211060D01*
X0311885Y0211194D01*
X0311974Y0211325D01*
X0312065Y0211454D01*
X0312160Y0211581D01*
X0312257Y0211706D01*
X0312358Y0211828D01*
X0312462Y0211947D01*
X0312569Y0212064D01*
X0312679Y0212178D01*
X0312792Y0212289D01*
X0312907Y0212398D01*
X0313025Y0212503D01*
X0313146Y0212605D01*
X0313269Y0212705D01*
X0313395Y0212801D01*
X0313523Y0212894D01*
X0313653Y0212984D01*
X0313786Y0213070D01*
X0313921Y0213154D01*
X0314057Y0213233D01*
X0314196Y0213310D01*
X0314337Y0213382D01*
X0314479Y0213452D01*
X0314623Y0213517D01*
X0314769Y0213579D01*
X0314916Y0213637D01*
X0315065Y0213692D01*
X0315215Y0213743D01*
X0315366Y0213790D01*
X0315518Y0213833D01*
X0315671Y0213872D01*
X0315826Y0213908D01*
X0315981Y0213939D01*
X0316137Y0213967D01*
X0316293Y0213991D01*
X0316450Y0214011D01*
X0316608Y0214027D01*
X0316765Y0214039D01*
X0316924Y0214047D01*
X0317082Y0214051D01*
X0317240Y0214051D01*
X0317398Y0214047D01*
X0317557Y0214039D01*
X0317714Y0214027D01*
X0317872Y0214011D01*
X0318029Y0213991D01*
X0318185Y0213967D01*
X0318341Y0213939D01*
X0318496Y0213908D01*
X0318651Y0213872D01*
X0318804Y0213833D01*
X0318956Y0213790D01*
X0319107Y0213743D01*
X0319257Y0213692D01*
X0319406Y0213637D01*
X0319553Y0213579D01*
X0319699Y0213517D01*
X0319843Y0213452D01*
X0319985Y0213382D01*
X0320126Y0213310D01*
X0320265Y0213233D01*
X0320401Y0213154D01*
X0320536Y0213070D01*
X0320669Y0212984D01*
X0320799Y0212894D01*
X0320927Y0212801D01*
X0321053Y0212705D01*
X0321176Y0212605D01*
X0321297Y0212503D01*
X0321415Y0212398D01*
X0321530Y0212289D01*
X0321643Y0212178D01*
X0321753Y0212064D01*
X0321860Y0211947D01*
X0321964Y0211828D01*
X0322065Y0211706D01*
X0322162Y0211581D01*
X0322257Y0211454D01*
X0322348Y0211325D01*
X0322437Y0211194D01*
X0322521Y0211060D01*
X0322603Y0210924D01*
X0322681Y0210787D01*
X0322755Y0210647D01*
X0322826Y0210505D01*
X0322894Y0210362D01*
X0322958Y0210217D01*
X0323018Y0210071D01*
X0323074Y0209923D01*
X0323127Y0209774D01*
X0323176Y0209623D01*
X0323221Y0209471D01*
X0323262Y0209318D01*
X0323300Y0209165D01*
X0323333Y0209010D01*
X0323363Y0208854D01*
X0323389Y0208698D01*
X0323410Y0208541D01*
X0323428Y0208384D01*
X0323442Y0208226D01*
X0323452Y0208068D01*
X0323458Y0207910D01*
X0323460Y0207752D01*
X0323458Y0207594D01*
X0323452Y0207436D01*
X0323442Y0207278D01*
X0323428Y0207120D01*
X0323410Y0206963D01*
X0323389Y0206806D01*
X0323363Y0206650D01*
X0323333Y0206494D01*
X0323300Y0206339D01*
X0323262Y0206186D01*
X0323221Y0206033D01*
X0323176Y0205881D01*
X0323127Y0205730D01*
X0323074Y0205581D01*
X0323018Y0205433D01*
X0322958Y0205287D01*
X0322894Y0205142D01*
X0322826Y0204999D01*
X0322755Y0204857D01*
X0322681Y0204717D01*
X0322603Y0204580D01*
X0322521Y0204444D01*
X0322437Y0204310D01*
X0322348Y0204179D01*
X0322257Y0204050D01*
X0322162Y0203923D01*
X0322065Y0203798D01*
X0321964Y0203676D01*
X0321860Y0203557D01*
X0321753Y0203440D01*
X0321643Y0203326D01*
X0321530Y0203215D01*
X0321415Y0203106D01*
X0321297Y0203001D01*
X0321176Y0202899D01*
X0321053Y0202799D01*
X0320927Y0202703D01*
X0320799Y0202610D01*
X0320669Y0202520D01*
X0320536Y0202434D01*
X0320401Y0202350D01*
X0320265Y0202271D01*
X0320126Y0202194D01*
X0319985Y0202122D01*
X0319843Y0202052D01*
X0319699Y0201987D01*
X0319553Y0201925D01*
X0319406Y0201867D01*
X0319257Y0201812D01*
X0319107Y0201761D01*
X0318956Y0201714D01*
X0318804Y0201671D01*
X0318651Y0201632D01*
X0318496Y0201596D01*
X0318341Y0201565D01*
X0318185Y0201537D01*
X0318029Y0201513D01*
X0317872Y0201493D01*
X0317714Y0201477D01*
X0317557Y0201465D01*
X0317398Y0201457D01*
X0317240Y0201453D01*
X0317082Y0201453D01*
X0316924Y0201457D01*
X0316765Y0201465D01*
X0316608Y0201477D01*
X0316450Y0201493D01*
X0316293Y0201513D01*
X0316137Y0201537D01*
X0315981Y0201565D01*
X0315826Y0201596D01*
X0315671Y0201632D01*
X0315518Y0201671D01*
X0315366Y0201714D01*
X0315215Y0201761D01*
X0315065Y0201812D01*
X0314916Y0201867D01*
X0314769Y0201925D01*
X0314623Y0201987D01*
X0314479Y0202052D01*
X0314337Y0202122D01*
X0314196Y0202194D01*
X0314057Y0202271D01*
X0313921Y0202350D01*
X0313786Y0202434D01*
X0313653Y0202520D01*
X0313523Y0202610D01*
X0313395Y0202703D01*
X0313269Y0202799D01*
X0313146Y0202899D01*
X0313025Y0203001D01*
X0312907Y0203106D01*
X0312792Y0203215D01*
X0312679Y0203326D01*
X0312569Y0203440D01*
X0312462Y0203557D01*
X0312358Y0203676D01*
X0312257Y0203798D01*
X0312160Y0203923D01*
X0312065Y0204050D01*
X0311974Y0204179D01*
X0311885Y0204310D01*
X0311801Y0204444D01*
X0311719Y0204580D01*
X0311641Y0204717D01*
X0311567Y0204857D01*
X0311496Y0204999D01*
X0311428Y0205142D01*
X0311364Y0205287D01*
X0311304Y0205433D01*
X0311248Y0205581D01*
X0311195Y0205730D01*
X0311146Y0205881D01*
X0311101Y0206033D01*
X0311060Y0206186D01*
X0311022Y0206339D01*
X0310989Y0206494D01*
X0310959Y0206650D01*
X0310933Y0206806D01*
X0310912Y0206963D01*
X0310894Y0207120D01*
X0310880Y0207278D01*
X0310870Y0207436D01*
X0310864Y0207594D01*
X0310862Y0207752D01*
X0389602Y0355390D02*
X0389604Y0355548D01*
X0389610Y0355706D01*
X0389620Y0355864D01*
X0389634Y0356022D01*
X0389652Y0356179D01*
X0389673Y0356336D01*
X0389699Y0356492D01*
X0389729Y0356648D01*
X0389762Y0356803D01*
X0389800Y0356956D01*
X0389841Y0357109D01*
X0389886Y0357261D01*
X0389935Y0357412D01*
X0389988Y0357561D01*
X0390044Y0357709D01*
X0390104Y0357855D01*
X0390168Y0358000D01*
X0390236Y0358143D01*
X0390307Y0358285D01*
X0390381Y0358425D01*
X0390459Y0358562D01*
X0390541Y0358698D01*
X0390625Y0358832D01*
X0390714Y0358963D01*
X0390805Y0359092D01*
X0390900Y0359219D01*
X0390997Y0359344D01*
X0391098Y0359466D01*
X0391202Y0359585D01*
X0391309Y0359702D01*
X0391419Y0359816D01*
X0391532Y0359927D01*
X0391647Y0360036D01*
X0391765Y0360141D01*
X0391886Y0360243D01*
X0392009Y0360343D01*
X0392135Y0360439D01*
X0392263Y0360532D01*
X0392393Y0360622D01*
X0392526Y0360708D01*
X0392661Y0360792D01*
X0392797Y0360871D01*
X0392936Y0360948D01*
X0393077Y0361020D01*
X0393219Y0361090D01*
X0393363Y0361155D01*
X0393509Y0361217D01*
X0393656Y0361275D01*
X0393805Y0361330D01*
X0393955Y0361381D01*
X0394106Y0361428D01*
X0394258Y0361471D01*
X0394411Y0361510D01*
X0394566Y0361546D01*
X0394721Y0361577D01*
X0394877Y0361605D01*
X0395033Y0361629D01*
X0395190Y0361649D01*
X0395348Y0361665D01*
X0395505Y0361677D01*
X0395664Y0361685D01*
X0395822Y0361689D01*
X0395980Y0361689D01*
X0396138Y0361685D01*
X0396297Y0361677D01*
X0396454Y0361665D01*
X0396612Y0361649D01*
X0396769Y0361629D01*
X0396925Y0361605D01*
X0397081Y0361577D01*
X0397236Y0361546D01*
X0397391Y0361510D01*
X0397544Y0361471D01*
X0397696Y0361428D01*
X0397847Y0361381D01*
X0397997Y0361330D01*
X0398146Y0361275D01*
X0398293Y0361217D01*
X0398439Y0361155D01*
X0398583Y0361090D01*
X0398725Y0361020D01*
X0398866Y0360948D01*
X0399005Y0360871D01*
X0399141Y0360792D01*
X0399276Y0360708D01*
X0399409Y0360622D01*
X0399539Y0360532D01*
X0399667Y0360439D01*
X0399793Y0360343D01*
X0399916Y0360243D01*
X0400037Y0360141D01*
X0400155Y0360036D01*
X0400270Y0359927D01*
X0400383Y0359816D01*
X0400493Y0359702D01*
X0400600Y0359585D01*
X0400704Y0359466D01*
X0400805Y0359344D01*
X0400902Y0359219D01*
X0400997Y0359092D01*
X0401088Y0358963D01*
X0401177Y0358832D01*
X0401261Y0358698D01*
X0401343Y0358562D01*
X0401421Y0358425D01*
X0401495Y0358285D01*
X0401566Y0358143D01*
X0401634Y0358000D01*
X0401698Y0357855D01*
X0401758Y0357709D01*
X0401814Y0357561D01*
X0401867Y0357412D01*
X0401916Y0357261D01*
X0401961Y0357109D01*
X0402002Y0356956D01*
X0402040Y0356803D01*
X0402073Y0356648D01*
X0402103Y0356492D01*
X0402129Y0356336D01*
X0402150Y0356179D01*
X0402168Y0356022D01*
X0402182Y0355864D01*
X0402192Y0355706D01*
X0402198Y0355548D01*
X0402200Y0355390D01*
X0402198Y0355232D01*
X0402192Y0355074D01*
X0402182Y0354916D01*
X0402168Y0354758D01*
X0402150Y0354601D01*
X0402129Y0354444D01*
X0402103Y0354288D01*
X0402073Y0354132D01*
X0402040Y0353977D01*
X0402002Y0353824D01*
X0401961Y0353671D01*
X0401916Y0353519D01*
X0401867Y0353368D01*
X0401814Y0353219D01*
X0401758Y0353071D01*
X0401698Y0352925D01*
X0401634Y0352780D01*
X0401566Y0352637D01*
X0401495Y0352495D01*
X0401421Y0352355D01*
X0401343Y0352218D01*
X0401261Y0352082D01*
X0401177Y0351948D01*
X0401088Y0351817D01*
X0400997Y0351688D01*
X0400902Y0351561D01*
X0400805Y0351436D01*
X0400704Y0351314D01*
X0400600Y0351195D01*
X0400493Y0351078D01*
X0400383Y0350964D01*
X0400270Y0350853D01*
X0400155Y0350744D01*
X0400037Y0350639D01*
X0399916Y0350537D01*
X0399793Y0350437D01*
X0399667Y0350341D01*
X0399539Y0350248D01*
X0399409Y0350158D01*
X0399276Y0350072D01*
X0399141Y0349988D01*
X0399005Y0349909D01*
X0398866Y0349832D01*
X0398725Y0349760D01*
X0398583Y0349690D01*
X0398439Y0349625D01*
X0398293Y0349563D01*
X0398146Y0349505D01*
X0397997Y0349450D01*
X0397847Y0349399D01*
X0397696Y0349352D01*
X0397544Y0349309D01*
X0397391Y0349270D01*
X0397236Y0349234D01*
X0397081Y0349203D01*
X0396925Y0349175D01*
X0396769Y0349151D01*
X0396612Y0349131D01*
X0396454Y0349115D01*
X0396297Y0349103D01*
X0396138Y0349095D01*
X0395980Y0349091D01*
X0395822Y0349091D01*
X0395664Y0349095D01*
X0395505Y0349103D01*
X0395348Y0349115D01*
X0395190Y0349131D01*
X0395033Y0349151D01*
X0394877Y0349175D01*
X0394721Y0349203D01*
X0394566Y0349234D01*
X0394411Y0349270D01*
X0394258Y0349309D01*
X0394106Y0349352D01*
X0393955Y0349399D01*
X0393805Y0349450D01*
X0393656Y0349505D01*
X0393509Y0349563D01*
X0393363Y0349625D01*
X0393219Y0349690D01*
X0393077Y0349760D01*
X0392936Y0349832D01*
X0392797Y0349909D01*
X0392661Y0349988D01*
X0392526Y0350072D01*
X0392393Y0350158D01*
X0392263Y0350248D01*
X0392135Y0350341D01*
X0392009Y0350437D01*
X0391886Y0350537D01*
X0391765Y0350639D01*
X0391647Y0350744D01*
X0391532Y0350853D01*
X0391419Y0350964D01*
X0391309Y0351078D01*
X0391202Y0351195D01*
X0391098Y0351314D01*
X0390997Y0351436D01*
X0390900Y0351561D01*
X0390805Y0351688D01*
X0390714Y0351817D01*
X0390625Y0351948D01*
X0390541Y0352082D01*
X0390459Y0352218D01*
X0390381Y0352355D01*
X0390307Y0352495D01*
X0390236Y0352637D01*
X0390168Y0352780D01*
X0390104Y0352925D01*
X0390044Y0353071D01*
X0389988Y0353219D01*
X0389935Y0353368D01*
X0389886Y0353519D01*
X0389841Y0353671D01*
X0389800Y0353824D01*
X0389762Y0353977D01*
X0389729Y0354132D01*
X0389699Y0354288D01*
X0389673Y0354444D01*
X0389652Y0354601D01*
X0389634Y0354758D01*
X0389620Y0354916D01*
X0389610Y0355074D01*
X0389604Y0355232D01*
X0389602Y0355390D01*
X0389602Y0040429D02*
X0389604Y0040587D01*
X0389610Y0040745D01*
X0389620Y0040903D01*
X0389634Y0041061D01*
X0389652Y0041218D01*
X0389673Y0041375D01*
X0389699Y0041531D01*
X0389729Y0041687D01*
X0389762Y0041842D01*
X0389800Y0041995D01*
X0389841Y0042148D01*
X0389886Y0042300D01*
X0389935Y0042451D01*
X0389988Y0042600D01*
X0390044Y0042748D01*
X0390104Y0042894D01*
X0390168Y0043039D01*
X0390236Y0043182D01*
X0390307Y0043324D01*
X0390381Y0043464D01*
X0390459Y0043601D01*
X0390541Y0043737D01*
X0390625Y0043871D01*
X0390714Y0044002D01*
X0390805Y0044131D01*
X0390900Y0044258D01*
X0390997Y0044383D01*
X0391098Y0044505D01*
X0391202Y0044624D01*
X0391309Y0044741D01*
X0391419Y0044855D01*
X0391532Y0044966D01*
X0391647Y0045075D01*
X0391765Y0045180D01*
X0391886Y0045282D01*
X0392009Y0045382D01*
X0392135Y0045478D01*
X0392263Y0045571D01*
X0392393Y0045661D01*
X0392526Y0045747D01*
X0392661Y0045831D01*
X0392797Y0045910D01*
X0392936Y0045987D01*
X0393077Y0046059D01*
X0393219Y0046129D01*
X0393363Y0046194D01*
X0393509Y0046256D01*
X0393656Y0046314D01*
X0393805Y0046369D01*
X0393955Y0046420D01*
X0394106Y0046467D01*
X0394258Y0046510D01*
X0394411Y0046549D01*
X0394566Y0046585D01*
X0394721Y0046616D01*
X0394877Y0046644D01*
X0395033Y0046668D01*
X0395190Y0046688D01*
X0395348Y0046704D01*
X0395505Y0046716D01*
X0395664Y0046724D01*
X0395822Y0046728D01*
X0395980Y0046728D01*
X0396138Y0046724D01*
X0396297Y0046716D01*
X0396454Y0046704D01*
X0396612Y0046688D01*
X0396769Y0046668D01*
X0396925Y0046644D01*
X0397081Y0046616D01*
X0397236Y0046585D01*
X0397391Y0046549D01*
X0397544Y0046510D01*
X0397696Y0046467D01*
X0397847Y0046420D01*
X0397997Y0046369D01*
X0398146Y0046314D01*
X0398293Y0046256D01*
X0398439Y0046194D01*
X0398583Y0046129D01*
X0398725Y0046059D01*
X0398866Y0045987D01*
X0399005Y0045910D01*
X0399141Y0045831D01*
X0399276Y0045747D01*
X0399409Y0045661D01*
X0399539Y0045571D01*
X0399667Y0045478D01*
X0399793Y0045382D01*
X0399916Y0045282D01*
X0400037Y0045180D01*
X0400155Y0045075D01*
X0400270Y0044966D01*
X0400383Y0044855D01*
X0400493Y0044741D01*
X0400600Y0044624D01*
X0400704Y0044505D01*
X0400805Y0044383D01*
X0400902Y0044258D01*
X0400997Y0044131D01*
X0401088Y0044002D01*
X0401177Y0043871D01*
X0401261Y0043737D01*
X0401343Y0043601D01*
X0401421Y0043464D01*
X0401495Y0043324D01*
X0401566Y0043182D01*
X0401634Y0043039D01*
X0401698Y0042894D01*
X0401758Y0042748D01*
X0401814Y0042600D01*
X0401867Y0042451D01*
X0401916Y0042300D01*
X0401961Y0042148D01*
X0402002Y0041995D01*
X0402040Y0041842D01*
X0402073Y0041687D01*
X0402103Y0041531D01*
X0402129Y0041375D01*
X0402150Y0041218D01*
X0402168Y0041061D01*
X0402182Y0040903D01*
X0402192Y0040745D01*
X0402198Y0040587D01*
X0402200Y0040429D01*
X0402198Y0040271D01*
X0402192Y0040113D01*
X0402182Y0039955D01*
X0402168Y0039797D01*
X0402150Y0039640D01*
X0402129Y0039483D01*
X0402103Y0039327D01*
X0402073Y0039171D01*
X0402040Y0039016D01*
X0402002Y0038863D01*
X0401961Y0038710D01*
X0401916Y0038558D01*
X0401867Y0038407D01*
X0401814Y0038258D01*
X0401758Y0038110D01*
X0401698Y0037964D01*
X0401634Y0037819D01*
X0401566Y0037676D01*
X0401495Y0037534D01*
X0401421Y0037394D01*
X0401343Y0037257D01*
X0401261Y0037121D01*
X0401177Y0036987D01*
X0401088Y0036856D01*
X0400997Y0036727D01*
X0400902Y0036600D01*
X0400805Y0036475D01*
X0400704Y0036353D01*
X0400600Y0036234D01*
X0400493Y0036117D01*
X0400383Y0036003D01*
X0400270Y0035892D01*
X0400155Y0035783D01*
X0400037Y0035678D01*
X0399916Y0035576D01*
X0399793Y0035476D01*
X0399667Y0035380D01*
X0399539Y0035287D01*
X0399409Y0035197D01*
X0399276Y0035111D01*
X0399141Y0035027D01*
X0399005Y0034948D01*
X0398866Y0034871D01*
X0398725Y0034799D01*
X0398583Y0034729D01*
X0398439Y0034664D01*
X0398293Y0034602D01*
X0398146Y0034544D01*
X0397997Y0034489D01*
X0397847Y0034438D01*
X0397696Y0034391D01*
X0397544Y0034348D01*
X0397391Y0034309D01*
X0397236Y0034273D01*
X0397081Y0034242D01*
X0396925Y0034214D01*
X0396769Y0034190D01*
X0396612Y0034170D01*
X0396454Y0034154D01*
X0396297Y0034142D01*
X0396138Y0034134D01*
X0395980Y0034130D01*
X0395822Y0034130D01*
X0395664Y0034134D01*
X0395505Y0034142D01*
X0395348Y0034154D01*
X0395190Y0034170D01*
X0395033Y0034190D01*
X0394877Y0034214D01*
X0394721Y0034242D01*
X0394566Y0034273D01*
X0394411Y0034309D01*
X0394258Y0034348D01*
X0394106Y0034391D01*
X0393955Y0034438D01*
X0393805Y0034489D01*
X0393656Y0034544D01*
X0393509Y0034602D01*
X0393363Y0034664D01*
X0393219Y0034729D01*
X0393077Y0034799D01*
X0392936Y0034871D01*
X0392797Y0034948D01*
X0392661Y0035027D01*
X0392526Y0035111D01*
X0392393Y0035197D01*
X0392263Y0035287D01*
X0392135Y0035380D01*
X0392009Y0035476D01*
X0391886Y0035576D01*
X0391765Y0035678D01*
X0391647Y0035783D01*
X0391532Y0035892D01*
X0391419Y0036003D01*
X0391309Y0036117D01*
X0391202Y0036234D01*
X0391098Y0036353D01*
X0390997Y0036475D01*
X0390900Y0036600D01*
X0390805Y0036727D01*
X0390714Y0036856D01*
X0390625Y0036987D01*
X0390541Y0037121D01*
X0390459Y0037257D01*
X0390381Y0037394D01*
X0390307Y0037534D01*
X0390236Y0037676D01*
X0390168Y0037819D01*
X0390104Y0037964D01*
X0390044Y0038110D01*
X0389988Y0038258D01*
X0389935Y0038407D01*
X0389886Y0038558D01*
X0389841Y0038710D01*
X0389800Y0038863D01*
X0389762Y0039016D01*
X0389729Y0039171D01*
X0389699Y0039327D01*
X0389673Y0039483D01*
X0389652Y0039640D01*
X0389634Y0039797D01*
X0389620Y0039955D01*
X0389610Y0040113D01*
X0389604Y0040271D01*
X0389602Y0040429D01*
D13*
X0390321Y0068001D02*
X0390321Y0068755D01*
X0393338Y0071772D01*
X0393338Y0072526D01*
X0390321Y0072526D01*
X0387298Y0072526D02*
X0387298Y0068001D01*
X0385790Y0068001D02*
X0388806Y0068001D01*
X0385790Y0071018D02*
X0387298Y0072526D01*
X0384275Y0071772D02*
X0383521Y0072526D01*
X0382012Y0072526D01*
X0381258Y0071772D01*
X0381258Y0068755D01*
X0382012Y0068001D01*
X0383521Y0068001D01*
X0384275Y0068755D01*
X0383521Y0083749D02*
X0384275Y0084503D01*
X0383521Y0083749D02*
X0382012Y0083749D01*
X0381258Y0084503D01*
X0381258Y0087520D01*
X0382012Y0088274D01*
X0383521Y0088274D01*
X0384275Y0087520D01*
X0385790Y0086766D02*
X0387298Y0088274D01*
X0387298Y0083749D01*
X0385790Y0083749D02*
X0388806Y0083749D01*
X0390321Y0084503D02*
X0390321Y0085258D01*
X0391075Y0086012D01*
X0392584Y0086012D01*
X0393338Y0085258D01*
X0393338Y0084503D01*
X0392584Y0083749D01*
X0391075Y0083749D01*
X0390321Y0084503D01*
X0391075Y0086012D02*
X0390321Y0086766D01*
X0390321Y0087520D01*
X0391075Y0088274D01*
X0392584Y0088274D01*
X0393338Y0087520D01*
X0393338Y0086766D01*
X0392584Y0086012D01*
X0390806Y0094936D02*
X0387789Y0094936D01*
X0389298Y0094936D02*
X0389298Y0099461D01*
X0387789Y0097953D01*
X0386275Y0094936D02*
X0383258Y0094936D01*
X0383258Y0099461D01*
X0381743Y0097953D02*
X0380235Y0099461D01*
X0378727Y0097953D01*
X0378727Y0094936D01*
X0378727Y0097199D02*
X0381743Y0097199D01*
X0381743Y0097953D02*
X0381743Y0094936D01*
X0377212Y0099461D02*
X0374195Y0099461D01*
X0375704Y0099461D02*
X0375704Y0094936D01*
X0372681Y0094936D02*
X0369664Y0099461D01*
X0372681Y0099461D02*
X0369664Y0094936D01*
X0366462Y0127401D02*
X0364953Y0127401D01*
X0364199Y0128155D01*
X0367216Y0131172D01*
X0367216Y0128155D01*
X0366462Y0127401D01*
X0364199Y0128155D02*
X0364199Y0131172D01*
X0364953Y0131926D01*
X0366462Y0131926D01*
X0367216Y0131172D01*
X0362684Y0127401D02*
X0359668Y0127401D01*
X0361176Y0127401D02*
X0361176Y0131926D01*
X0359668Y0130418D01*
X0358153Y0131172D02*
X0357399Y0131926D01*
X0355890Y0131926D01*
X0355136Y0131172D01*
X0355136Y0128155D01*
X0355890Y0127401D01*
X0357399Y0127401D01*
X0358153Y0128155D01*
X0343936Y0128450D02*
X0343182Y0127696D01*
X0341674Y0127696D01*
X0340920Y0128450D01*
X0339405Y0127696D02*
X0336388Y0127696D01*
X0337897Y0127696D02*
X0337897Y0132221D01*
X0336388Y0130713D01*
X0334874Y0131467D02*
X0334874Y0129959D01*
X0334119Y0129204D01*
X0331857Y0129204D01*
X0331857Y0127696D02*
X0331857Y0132221D01*
X0334119Y0132221D01*
X0334874Y0131467D01*
X0333365Y0129204D02*
X0334874Y0127696D01*
X0340920Y0131467D02*
X0341674Y0132221D01*
X0343182Y0132221D01*
X0343936Y0131467D01*
X0343936Y0130713D01*
X0343182Y0129959D01*
X0343936Y0129204D01*
X0343936Y0128450D01*
X0343182Y0129959D02*
X0342428Y0129959D01*
X0346357Y0141554D02*
X0346357Y0146079D01*
X0348619Y0146079D01*
X0349373Y0145325D01*
X0349373Y0143817D01*
X0348619Y0143063D01*
X0346357Y0143063D01*
X0347865Y0143063D02*
X0349373Y0141554D01*
X0350888Y0141554D02*
X0353905Y0141554D01*
X0352396Y0141554D02*
X0352396Y0146079D01*
X0350888Y0144571D01*
X0355420Y0143817D02*
X0356928Y0144571D01*
X0357682Y0144571D01*
X0358436Y0143817D01*
X0358436Y0142309D01*
X0357682Y0141554D01*
X0356174Y0141554D01*
X0355420Y0142309D01*
X0355420Y0143817D02*
X0355420Y0146079D01*
X0358436Y0146079D01*
X0369979Y0144111D02*
X0369979Y0139586D01*
X0369979Y0141094D02*
X0372241Y0141094D01*
X0372995Y0141848D01*
X0372995Y0143357D01*
X0372241Y0144111D01*
X0369979Y0144111D01*
X0371487Y0141094D02*
X0372995Y0139586D01*
X0374510Y0139586D02*
X0377527Y0139586D01*
X0376019Y0139586D02*
X0376019Y0144111D01*
X0374510Y0142603D01*
X0379042Y0141848D02*
X0382058Y0141848D01*
X0381304Y0139586D02*
X0381304Y0144111D01*
X0379042Y0141848D01*
X0381790Y0136237D02*
X0381790Y0131712D01*
X0384807Y0131712D01*
X0386321Y0131712D02*
X0389338Y0131712D01*
X0390853Y0131712D02*
X0393115Y0131712D01*
X0393869Y0132466D01*
X0393869Y0135483D01*
X0393115Y0136237D01*
X0390853Y0136237D01*
X0390853Y0131712D01*
X0387830Y0133974D02*
X0386321Y0133974D01*
X0386321Y0131712D02*
X0386321Y0136237D01*
X0389338Y0136237D01*
X0395384Y0135483D02*
X0396138Y0136237D01*
X0397647Y0136237D01*
X0398401Y0135483D01*
X0398401Y0134729D01*
X0397647Y0133974D01*
X0398401Y0133220D01*
X0398401Y0132466D01*
X0397647Y0131712D01*
X0396138Y0131712D01*
X0395384Y0132466D01*
X0396892Y0133974D02*
X0397647Y0133974D01*
X0380090Y0155334D02*
X0377073Y0155334D01*
X0378581Y0155334D02*
X0378581Y0159859D01*
X0377073Y0158351D01*
X0375558Y0155334D02*
X0372542Y0155334D01*
X0374050Y0155334D02*
X0374050Y0159859D01*
X0372542Y0158351D01*
X0371027Y0159105D02*
X0371027Y0157596D01*
X0370273Y0156842D01*
X0368010Y0156842D01*
X0368010Y0155334D02*
X0368010Y0159859D01*
X0370273Y0159859D01*
X0371027Y0159105D01*
X0369519Y0156842D02*
X0371027Y0155334D01*
X0378318Y0173424D02*
X0380720Y0173424D01*
X0381321Y0174025D01*
X0381321Y0175226D01*
X0380720Y0175826D01*
X0381321Y0177108D02*
X0378919Y0179510D01*
X0378318Y0179510D01*
X0377718Y0178909D01*
X0377718Y0177708D01*
X0378318Y0177108D01*
X0378318Y0175826D02*
X0377718Y0175226D01*
X0377718Y0174025D01*
X0378318Y0173424D01*
X0381321Y0177108D02*
X0381321Y0179510D01*
X0379519Y0180791D02*
X0379519Y0183193D01*
X0377718Y0182592D02*
X0379519Y0180791D01*
X0377718Y0182592D02*
X0381321Y0182592D01*
X0385212Y0181986D02*
X0386413Y0180785D01*
X0386413Y0179503D02*
X0387013Y0178903D01*
X0387614Y0179503D01*
X0388214Y0179503D01*
X0388815Y0178903D01*
X0388815Y0177702D01*
X0388214Y0177101D01*
X0388815Y0175820D02*
X0387614Y0174619D01*
X0387614Y0175220D02*
X0387614Y0173418D01*
X0388815Y0173418D02*
X0385212Y0173418D01*
X0385212Y0175220D01*
X0385812Y0175820D01*
X0387013Y0175820D01*
X0387614Y0175220D01*
X0385812Y0177101D02*
X0385212Y0177702D01*
X0385212Y0178903D01*
X0385812Y0179503D01*
X0386413Y0179503D01*
X0387013Y0178903D02*
X0387013Y0178302D01*
X0388815Y0180785D02*
X0388815Y0183187D01*
X0388815Y0181986D02*
X0385212Y0181986D01*
X0388876Y0187617D02*
X0388876Y0191220D01*
X0390678Y0191220D01*
X0391278Y0190620D01*
X0391278Y0189419D01*
X0390678Y0188818D01*
X0388876Y0188818D01*
X0390077Y0188818D02*
X0391278Y0187617D01*
X0392560Y0188218D02*
X0393160Y0187617D01*
X0394361Y0187617D01*
X0394962Y0188218D01*
X0394962Y0188818D01*
X0394361Y0189419D01*
X0393761Y0189419D01*
X0394361Y0189419D02*
X0394962Y0190019D01*
X0394962Y0190620D01*
X0394361Y0191220D01*
X0393160Y0191220D01*
X0392560Y0190620D01*
X0396243Y0190620D02*
X0396243Y0188218D01*
X0398645Y0190620D01*
X0398645Y0188218D01*
X0398044Y0187617D01*
X0396843Y0187617D01*
X0396243Y0188218D01*
X0396243Y0190620D02*
X0396843Y0191220D01*
X0398044Y0191220D01*
X0398645Y0190620D01*
X0401029Y0182931D02*
X0401029Y0180529D01*
X0402830Y0180529D01*
X0402230Y0181730D01*
X0402230Y0182330D01*
X0402830Y0182931D01*
X0404031Y0182931D01*
X0404632Y0182330D01*
X0404632Y0181129D01*
X0404031Y0180529D01*
X0404632Y0179248D02*
X0404632Y0176846D01*
X0402230Y0179248D01*
X0401629Y0179248D01*
X0401029Y0178647D01*
X0401029Y0177446D01*
X0401629Y0176846D01*
X0401629Y0175564D02*
X0401029Y0174964D01*
X0401029Y0173763D01*
X0401629Y0173162D01*
X0404031Y0173162D01*
X0404632Y0173763D01*
X0404632Y0174964D01*
X0404031Y0175564D01*
X0376640Y0186885D02*
X0376640Y0190488D01*
X0374839Y0188687D01*
X0377241Y0188687D01*
X0373558Y0189287D02*
X0372957Y0188687D01*
X0373558Y0188086D01*
X0373558Y0187486D01*
X0372957Y0186885D01*
X0371756Y0186885D01*
X0371156Y0187486D01*
X0369875Y0186885D02*
X0368674Y0188086D01*
X0369274Y0188086D02*
X0367473Y0188086D01*
X0367473Y0186885D02*
X0367473Y0190488D01*
X0369274Y0190488D01*
X0369875Y0189888D01*
X0369875Y0188687D01*
X0369274Y0188086D01*
X0371156Y0189888D02*
X0371756Y0190488D01*
X0372957Y0190488D01*
X0373558Y0189888D01*
X0373558Y0189287D01*
X0372957Y0188687D02*
X0372357Y0188687D01*
X0364799Y0183580D02*
X0364799Y0181178D01*
X0362397Y0183580D01*
X0361797Y0183580D01*
X0361196Y0182980D01*
X0361196Y0181779D01*
X0361797Y0181178D01*
X0361797Y0179897D02*
X0362397Y0179897D01*
X0362998Y0179297D01*
X0363598Y0179897D01*
X0364199Y0179897D01*
X0364799Y0179297D01*
X0364799Y0178096D01*
X0364199Y0177495D01*
X0364799Y0176214D02*
X0363598Y0175013D01*
X0363598Y0175614D02*
X0363598Y0173812D01*
X0364799Y0173812D02*
X0361196Y0173812D01*
X0361196Y0175614D01*
X0361797Y0176214D01*
X0362998Y0176214D01*
X0363598Y0175614D01*
X0361797Y0177495D02*
X0361196Y0178096D01*
X0361196Y0179297D01*
X0361797Y0179897D01*
X0362998Y0179297D02*
X0362998Y0178696D01*
X0359924Y0175815D02*
X0358723Y0175815D01*
X0358122Y0175214D01*
X0358122Y0174614D01*
X0358723Y0174013D01*
X0360524Y0174013D01*
X0360524Y0172812D02*
X0360524Y0175214D01*
X0359924Y0175815D01*
X0360524Y0172812D02*
X0359924Y0172212D01*
X0358723Y0172212D01*
X0358122Y0172812D01*
X0356841Y0172812D02*
X0356241Y0172212D01*
X0355040Y0172212D01*
X0354439Y0172812D01*
X0354439Y0175214D01*
X0355040Y0175815D01*
X0356241Y0175815D01*
X0356841Y0175214D01*
X0347973Y0178838D02*
X0347973Y0179438D01*
X0347373Y0180039D01*
X0345571Y0180039D01*
X0345571Y0178838D01*
X0346172Y0178237D01*
X0347373Y0178237D01*
X0347973Y0178838D01*
X0346772Y0181240D02*
X0345571Y0180039D01*
X0346772Y0181240D02*
X0347973Y0181840D01*
X0348759Y0184861D02*
X0347558Y0186062D01*
X0348158Y0186062D02*
X0346357Y0186062D01*
X0346357Y0184861D02*
X0346357Y0188464D01*
X0348158Y0188464D01*
X0348759Y0187864D01*
X0348759Y0186663D01*
X0348158Y0186062D01*
X0350040Y0184861D02*
X0352442Y0184861D01*
X0351241Y0184861D02*
X0351241Y0188464D01*
X0350040Y0187263D01*
X0353723Y0187864D02*
X0354323Y0188464D01*
X0355525Y0188464D01*
X0356125Y0187864D01*
X0353723Y0185462D01*
X0354323Y0184861D01*
X0355525Y0184861D01*
X0356125Y0185462D01*
X0356125Y0187864D01*
X0353723Y0187864D02*
X0353723Y0185462D01*
X0344290Y0181240D02*
X0343690Y0181840D01*
X0342489Y0181840D01*
X0341888Y0181240D01*
X0341888Y0178838D01*
X0342489Y0178237D01*
X0343690Y0178237D01*
X0344290Y0178838D01*
X0331720Y0177353D02*
X0331720Y0176599D01*
X0328703Y0173582D01*
X0331720Y0173582D01*
X0331720Y0177353D02*
X0330966Y0178107D01*
X0329457Y0178107D01*
X0328703Y0177353D01*
X0327188Y0178107D02*
X0327188Y0174336D01*
X0326434Y0173582D01*
X0324926Y0173582D01*
X0324172Y0174336D01*
X0324172Y0178107D01*
X0316718Y0187330D02*
X0315209Y0187330D01*
X0314455Y0188084D01*
X0314455Y0188838D01*
X0315209Y0189592D01*
X0316718Y0189592D01*
X0317472Y0188838D01*
X0317472Y0188084D01*
X0316718Y0187330D01*
X0316718Y0189592D02*
X0317472Y0190347D01*
X0317472Y0191101D01*
X0316718Y0191855D01*
X0315209Y0191855D01*
X0314455Y0191101D01*
X0314455Y0190347D01*
X0315209Y0189592D01*
X0312940Y0188084D02*
X0312186Y0187330D01*
X0310678Y0187330D01*
X0309924Y0188084D01*
X0309924Y0191101D01*
X0310678Y0191855D01*
X0312186Y0191855D01*
X0312940Y0191101D01*
X0295255Y0176247D02*
X0292239Y0176247D01*
X0292239Y0173984D01*
X0293747Y0174738D01*
X0294501Y0174738D01*
X0295255Y0173984D01*
X0295255Y0172476D01*
X0294501Y0171722D01*
X0292993Y0171722D01*
X0292239Y0172476D01*
X0290724Y0172476D02*
X0289970Y0171722D01*
X0288461Y0171722D01*
X0287707Y0172476D01*
X0287707Y0175493D01*
X0288461Y0176247D01*
X0289970Y0176247D01*
X0290724Y0175493D01*
X0284785Y0155390D02*
X0283276Y0155390D01*
X0282522Y0154636D01*
X0284785Y0155390D02*
X0285539Y0154636D01*
X0285539Y0153882D01*
X0282522Y0150865D01*
X0285539Y0150865D01*
X0281007Y0150865D02*
X0277991Y0150865D01*
X0277991Y0155390D01*
X0268976Y0167972D02*
X0265959Y0167972D01*
X0267467Y0167972D02*
X0267467Y0172497D01*
X0265959Y0170988D01*
X0264444Y0167972D02*
X0261428Y0167972D01*
X0261428Y0172497D01*
X0260262Y0187098D02*
X0257245Y0187098D01*
X0256491Y0187852D01*
X0256491Y0189360D01*
X0257245Y0190115D01*
X0257245Y0191629D02*
X0256491Y0192383D01*
X0256491Y0193892D01*
X0257245Y0194646D01*
X0257999Y0194646D01*
X0258753Y0193892D01*
X0259507Y0194646D01*
X0260262Y0194646D01*
X0261016Y0193892D01*
X0261016Y0192383D01*
X0260262Y0191629D01*
X0260262Y0190115D02*
X0261016Y0189360D01*
X0261016Y0187852D01*
X0260262Y0187098D01*
X0258753Y0193138D02*
X0258753Y0193892D01*
X0259213Y0206389D02*
X0258459Y0207143D01*
X0258459Y0208652D01*
X0259213Y0209406D01*
X0260722Y0210921D02*
X0260722Y0213937D01*
X0262984Y0213183D02*
X0258459Y0213183D01*
X0260722Y0210921D01*
X0262230Y0209406D02*
X0262984Y0208652D01*
X0262984Y0207143D01*
X0262230Y0206389D01*
X0259213Y0206389D01*
X0242501Y0188107D02*
X0240993Y0188107D01*
X0240239Y0187353D01*
X0238724Y0188107D02*
X0235707Y0183582D01*
X0238724Y0183582D02*
X0235707Y0188107D01*
X0240239Y0183582D02*
X0243255Y0186599D01*
X0243255Y0187353D01*
X0242501Y0188107D01*
X0243255Y0183582D02*
X0240239Y0183582D01*
X0203070Y0194113D02*
X0200054Y0194113D01*
X0201562Y0194113D02*
X0201562Y0198639D01*
X0200054Y0197130D01*
X0198539Y0196376D02*
X0197785Y0195622D01*
X0195522Y0195622D01*
X0197031Y0195622D02*
X0198539Y0194113D01*
X0198539Y0196376D02*
X0198539Y0197884D01*
X0197785Y0198639D01*
X0195522Y0198639D01*
X0195522Y0194113D01*
X0196492Y0217735D02*
X0194983Y0219244D01*
X0195737Y0219244D02*
X0193475Y0219244D01*
X0193475Y0217735D02*
X0193475Y0222261D01*
X0195737Y0222261D01*
X0196492Y0221506D01*
X0196492Y0219998D01*
X0195737Y0219244D01*
X0198006Y0217735D02*
X0201023Y0220752D01*
X0201023Y0221506D01*
X0200269Y0222261D01*
X0198761Y0222261D01*
X0198006Y0221506D01*
X0198006Y0217735D02*
X0201023Y0217735D01*
X0169673Y0276978D02*
X0166656Y0276978D01*
X0168164Y0276978D02*
X0168164Y0281503D01*
X0166656Y0279994D01*
X0165141Y0280748D02*
X0164387Y0281503D01*
X0162879Y0281503D01*
X0162124Y0280748D01*
X0162124Y0277732D01*
X0162879Y0276978D01*
X0164387Y0276978D01*
X0165141Y0277732D01*
X0094062Y0295852D02*
X0094062Y0296606D01*
X0093308Y0297360D01*
X0091046Y0297360D01*
X0091046Y0295852D01*
X0091800Y0295098D01*
X0093308Y0295098D01*
X0094062Y0295852D01*
X0091046Y0297360D02*
X0092554Y0298869D01*
X0094062Y0299623D01*
X0089531Y0298869D02*
X0089531Y0297360D01*
X0088777Y0296606D01*
X0086514Y0296606D01*
X0086514Y0295098D02*
X0086514Y0299623D01*
X0088777Y0299623D01*
X0089531Y0298869D01*
X0088023Y0296606D02*
X0089531Y0295098D01*
X0062834Y0306403D02*
X0062080Y0305649D01*
X0060572Y0305649D01*
X0059817Y0306403D01*
X0059817Y0307157D01*
X0060572Y0307911D01*
X0062080Y0307911D01*
X0062834Y0307157D01*
X0062834Y0306403D01*
X0062080Y0307911D02*
X0062834Y0308666D01*
X0062834Y0309420D01*
X0062080Y0310174D01*
X0060572Y0310174D01*
X0059817Y0309420D01*
X0059817Y0308666D01*
X0060572Y0307911D01*
X0058303Y0307911D02*
X0058303Y0309420D01*
X0057549Y0310174D01*
X0055286Y0310174D01*
X0055286Y0305649D01*
X0055286Y0307157D02*
X0057549Y0307157D01*
X0058303Y0307911D01*
X0056794Y0307157D02*
X0058303Y0305649D01*
X0057117Y0282839D02*
X0057872Y0282085D01*
X0057872Y0279068D01*
X0057117Y0278314D01*
X0055609Y0278314D01*
X0054855Y0279068D01*
X0054855Y0282085D01*
X0055609Y0282839D01*
X0057117Y0282839D01*
X0059386Y0282085D02*
X0060140Y0282839D01*
X0061649Y0282839D01*
X0062403Y0282085D01*
X0062403Y0281331D01*
X0059386Y0278314D01*
X0062403Y0278314D01*
X0057872Y0278314D02*
X0056363Y0279823D01*
X0039161Y0274427D02*
X0036144Y0274427D01*
X0038407Y0276690D01*
X0038407Y0272165D01*
X0034629Y0272165D02*
X0031613Y0276690D01*
X0034629Y0276690D02*
X0031613Y0272165D01*
X0029773Y0268089D02*
X0028264Y0268089D01*
X0027510Y0267335D01*
X0027510Y0264318D01*
X0028264Y0263564D01*
X0029773Y0263564D01*
X0030527Y0264318D01*
X0030527Y0267335D01*
X0029773Y0268089D01*
X0032042Y0266581D02*
X0033550Y0268089D01*
X0033550Y0263564D01*
X0032042Y0263564D02*
X0035058Y0263564D01*
X0030527Y0263564D02*
X0029019Y0265073D01*
X0014417Y0262221D02*
X0014417Y0261467D01*
X0011400Y0258450D01*
X0011400Y0257696D01*
X0009885Y0257696D02*
X0008377Y0259204D01*
X0009131Y0259204D02*
X0006869Y0259204D01*
X0006869Y0257696D02*
X0006869Y0262221D01*
X0009131Y0262221D01*
X0009885Y0261467D01*
X0009885Y0259959D01*
X0009131Y0259204D01*
X0011400Y0262221D02*
X0014417Y0262221D01*
X0030491Y0250410D02*
X0030491Y0245885D01*
X0030491Y0247393D02*
X0032753Y0247393D01*
X0033507Y0248148D01*
X0033507Y0249656D01*
X0032753Y0250410D01*
X0030491Y0250410D01*
X0031999Y0247393D02*
X0033507Y0245885D01*
X0035022Y0246639D02*
X0035776Y0245885D01*
X0037285Y0245885D01*
X0038039Y0246639D01*
X0038039Y0248148D01*
X0037285Y0248902D01*
X0036530Y0248902D01*
X0035022Y0248148D01*
X0035022Y0250410D01*
X0038039Y0250410D01*
X0037858Y0231240D02*
X0036657Y0231240D01*
X0036056Y0230640D01*
X0036056Y0230039D01*
X0036657Y0229439D01*
X0037858Y0229439D01*
X0038458Y0228838D01*
X0038458Y0228238D01*
X0037858Y0227637D01*
X0036657Y0227637D01*
X0036056Y0228238D01*
X0036056Y0228838D01*
X0036657Y0229439D01*
X0037858Y0229439D02*
X0038458Y0230039D01*
X0038458Y0230640D01*
X0037858Y0231240D01*
X0039739Y0230039D02*
X0040940Y0231240D01*
X0042141Y0230039D01*
X0042141Y0227637D01*
X0042141Y0229439D02*
X0039739Y0229439D01*
X0039739Y0230039D02*
X0039739Y0227637D01*
X0034775Y0228238D02*
X0034775Y0230640D01*
X0032373Y0228238D01*
X0032973Y0227637D01*
X0034174Y0227637D01*
X0034775Y0228238D01*
X0034775Y0230640D02*
X0034174Y0231240D01*
X0032973Y0231240D01*
X0032373Y0230640D01*
X0032373Y0228238D01*
X0031092Y0228238D02*
X0030491Y0227637D01*
X0029290Y0227637D01*
X0028690Y0228238D01*
X0028690Y0229439D02*
X0029891Y0230039D01*
X0030491Y0230039D01*
X0031092Y0229439D01*
X0031092Y0228238D01*
X0028690Y0229439D02*
X0028690Y0231240D01*
X0031092Y0231240D01*
X0027409Y0230640D02*
X0026808Y0231240D01*
X0025607Y0231240D01*
X0025007Y0230640D01*
X0025007Y0228238D01*
X0025607Y0227637D01*
X0026808Y0227637D01*
X0027409Y0228238D01*
X0023725Y0228238D02*
X0023125Y0227637D01*
X0021924Y0227637D01*
X0021323Y0228238D01*
X0021323Y0230640D01*
X0021924Y0231240D01*
X0023125Y0231240D01*
X0023725Y0230640D01*
X0020042Y0231240D02*
X0017640Y0231240D01*
X0017640Y0227637D01*
X0020042Y0227637D01*
X0018841Y0229439D02*
X0017640Y0229439D01*
X0016359Y0231240D02*
X0013957Y0231240D01*
X0015158Y0231240D02*
X0015158Y0227637D01*
X0012676Y0227637D02*
X0012676Y0230039D01*
X0011475Y0231240D01*
X0010274Y0230039D01*
X0010274Y0227637D01*
X0010274Y0229439D02*
X0012676Y0229439D01*
X0040825Y0188107D02*
X0043842Y0183582D01*
X0045357Y0183582D02*
X0048373Y0183582D01*
X0046865Y0183582D02*
X0046865Y0188107D01*
X0045357Y0186599D01*
X0043842Y0188107D02*
X0040825Y0183582D01*
X0078823Y0098431D02*
X0081925Y0098431D01*
X0081925Y0097397D02*
X0081925Y0099465D01*
X0079857Y0097397D02*
X0078823Y0098431D01*
X0082577Y0087024D02*
X0084840Y0087024D01*
X0085594Y0086270D01*
X0085594Y0084762D01*
X0084840Y0084008D01*
X0082577Y0084008D01*
X0084086Y0084008D02*
X0085594Y0082499D01*
X0087109Y0083253D02*
X0087863Y0082499D01*
X0089371Y0082499D01*
X0090125Y0083253D01*
X0090125Y0084008D01*
X0089371Y0084762D01*
X0088617Y0084762D01*
X0089371Y0084762D02*
X0090125Y0085516D01*
X0090125Y0086270D01*
X0089371Y0087024D01*
X0087863Y0087024D01*
X0087109Y0086270D01*
X0082577Y0087024D02*
X0082577Y0082499D01*
X0097642Y0064839D02*
X0096888Y0064085D01*
X0096888Y0063331D01*
X0097642Y0062577D01*
X0099151Y0062577D01*
X0099905Y0061823D01*
X0099905Y0061068D01*
X0099151Y0060314D01*
X0097642Y0060314D01*
X0096888Y0061068D01*
X0097642Y0064839D02*
X0099151Y0064839D01*
X0099905Y0064085D01*
X0101420Y0064839D02*
X0101420Y0060314D01*
X0102928Y0061823D01*
X0104436Y0060314D01*
X0104436Y0064839D01*
X0105951Y0063331D02*
X0107459Y0064839D01*
X0107459Y0060314D01*
X0105951Y0060314D02*
X0108968Y0060314D01*
X0108168Y0082499D02*
X0108168Y0087024D01*
X0110430Y0087024D01*
X0111184Y0086270D01*
X0111184Y0084762D01*
X0110430Y0084008D01*
X0108168Y0084008D01*
X0109676Y0084008D02*
X0111184Y0082499D01*
X0112699Y0084762D02*
X0115716Y0084762D01*
X0114962Y0087024D02*
X0114962Y0082499D01*
X0112699Y0084762D02*
X0114962Y0087024D01*
X0135493Y0053551D02*
X0134739Y0052797D01*
X0134739Y0051289D01*
X0135493Y0050535D01*
X0136247Y0050535D01*
X0137001Y0051289D01*
X0137001Y0053551D01*
X0135493Y0053551D02*
X0138510Y0053551D01*
X0139264Y0052797D01*
X0139264Y0051289D01*
X0138510Y0050535D01*
X0139264Y0049020D02*
X0137755Y0047512D01*
X0137755Y0048266D02*
X0137755Y0046003D01*
X0139264Y0046003D02*
X0134739Y0046003D01*
X0134739Y0048266D01*
X0135493Y0049020D01*
X0137001Y0049020D01*
X0137755Y0048266D01*
X0134570Y0034390D02*
X0133369Y0034390D01*
X0132769Y0033789D01*
X0132769Y0033189D01*
X0133369Y0032588D01*
X0134570Y0032588D01*
X0135171Y0031988D01*
X0135171Y0031387D01*
X0134570Y0030787D01*
X0133369Y0030787D01*
X0132769Y0031387D01*
X0132769Y0031988D01*
X0133369Y0032588D01*
X0134570Y0032588D02*
X0135171Y0033189D01*
X0135171Y0033789D01*
X0134570Y0034390D01*
X0131488Y0033789D02*
X0129086Y0031387D01*
X0129686Y0030787D01*
X0130887Y0030787D01*
X0131488Y0031387D01*
X0131488Y0033789D01*
X0130887Y0034390D01*
X0129686Y0034390D01*
X0129086Y0033789D01*
X0129086Y0031387D01*
X0127804Y0031387D02*
X0127204Y0030787D01*
X0126003Y0030787D01*
X0125402Y0031387D01*
X0125402Y0032588D02*
X0126603Y0033189D01*
X0127204Y0033189D01*
X0127804Y0032588D01*
X0127804Y0031387D01*
X0125402Y0032588D02*
X0125402Y0034390D01*
X0127804Y0034390D01*
X0124121Y0033789D02*
X0123521Y0034390D01*
X0122320Y0034390D01*
X0121719Y0033789D01*
X0121719Y0031387D01*
X0122320Y0030787D01*
X0123521Y0030787D01*
X0124121Y0031387D01*
X0120438Y0031387D02*
X0119838Y0030787D01*
X0118637Y0030787D01*
X0118036Y0031387D01*
X0118036Y0033789D01*
X0118637Y0034390D01*
X0119838Y0034390D01*
X0120438Y0033789D01*
X0116755Y0034390D02*
X0114353Y0034390D01*
X0114353Y0030787D01*
X0116755Y0030787D01*
X0115554Y0032588D02*
X0114353Y0032588D01*
X0113072Y0034390D02*
X0110670Y0034390D01*
X0111871Y0034390D02*
X0111871Y0030787D01*
X0109389Y0030787D02*
X0109389Y0033189D01*
X0108188Y0034390D01*
X0106987Y0033189D01*
X0106987Y0030787D01*
X0106987Y0032588D02*
X0109389Y0032588D01*
X0102022Y0032588D02*
X0102022Y0031988D01*
X0099620Y0031988D01*
X0099620Y0032588D02*
X0100221Y0033189D01*
X0101422Y0033189D01*
X0102022Y0032588D01*
X0101422Y0030787D02*
X0100221Y0030787D01*
X0099620Y0031387D01*
X0099620Y0032588D01*
X0098339Y0033189D02*
X0095937Y0030787D01*
X0098339Y0030787D01*
X0098339Y0033189D02*
X0095937Y0033189D01*
X0094082Y0033189D02*
X0094082Y0030787D01*
X0093482Y0030787D02*
X0094683Y0030787D01*
X0092227Y0030787D02*
X0091026Y0030787D01*
X0091627Y0030787D02*
X0091627Y0034390D01*
X0091026Y0034390D01*
X0089745Y0032588D02*
X0089745Y0030787D01*
X0087944Y0030787D01*
X0087343Y0031387D01*
X0087944Y0031988D01*
X0089745Y0031988D01*
X0089745Y0032588D02*
X0089145Y0033189D01*
X0087944Y0033189D01*
X0085488Y0033189D02*
X0085488Y0030787D01*
X0084888Y0030787D02*
X0086089Y0030787D01*
X0083633Y0030787D02*
X0083033Y0031387D01*
X0083033Y0033789D01*
X0083633Y0033189D02*
X0082432Y0033189D01*
X0080577Y0033189D02*
X0080577Y0030787D01*
X0079977Y0030787D02*
X0081178Y0030787D01*
X0080577Y0033189D02*
X0079977Y0033189D01*
X0080577Y0034390D02*
X0080577Y0034990D01*
X0078696Y0032588D02*
X0078696Y0030787D01*
X0078696Y0032588D02*
X0078095Y0033189D01*
X0076294Y0033189D01*
X0076294Y0030787D01*
X0075039Y0030787D02*
X0073838Y0030787D01*
X0074439Y0030787D02*
X0074439Y0034390D01*
X0075039Y0034390D02*
X0073838Y0034390D01*
X0068914Y0033189D02*
X0068914Y0032588D01*
X0068314Y0032588D01*
X0068314Y0033189D01*
X0068914Y0033189D01*
X0068914Y0031387D02*
X0068914Y0030787D01*
X0068314Y0030787D01*
X0068314Y0031387D01*
X0068914Y0031387D01*
X0067033Y0030787D02*
X0064631Y0030787D01*
X0064631Y0034390D01*
X0067033Y0034390D01*
X0065832Y0032588D02*
X0064631Y0032588D01*
X0063349Y0034390D02*
X0060947Y0034390D01*
X0062148Y0034390D02*
X0062148Y0030787D01*
X0059666Y0031387D02*
X0059666Y0033789D01*
X0059066Y0034390D01*
X0057865Y0034390D01*
X0057264Y0033789D01*
X0057264Y0031387D01*
X0057865Y0030787D01*
X0059066Y0030787D01*
X0059666Y0031387D01*
X0055983Y0030787D02*
X0055983Y0034390D01*
X0053581Y0034390D02*
X0053581Y0030787D01*
X0055983Y0030787D02*
X0053581Y0034390D01*
X0084888Y0033189D02*
X0085488Y0033189D01*
X0085488Y0034390D02*
X0085488Y0034990D01*
X0093482Y0033189D02*
X0094082Y0033189D01*
X0094082Y0034390D02*
X0094082Y0034990D01*
X0140135Y0032588D02*
X0140135Y0031387D01*
X0140735Y0030787D01*
X0142537Y0030787D01*
X0143818Y0030787D02*
X0143818Y0033189D01*
X0145019Y0033189D02*
X0145620Y0033189D01*
X0145019Y0033189D02*
X0143818Y0031988D01*
X0142537Y0033189D02*
X0140735Y0033189D01*
X0140135Y0032588D01*
X0146887Y0033189D02*
X0146887Y0031387D01*
X0147488Y0030787D01*
X0149289Y0030787D01*
X0149289Y0030186D02*
X0148689Y0029586D01*
X0148088Y0029586D01*
X0149289Y0030186D02*
X0149289Y0033189D01*
X0150571Y0033189D02*
X0150571Y0029586D01*
X0150571Y0030787D02*
X0152372Y0030787D01*
X0152973Y0031387D01*
X0152973Y0032588D01*
X0152372Y0033189D01*
X0150571Y0033189D01*
X0154254Y0033189D02*
X0155455Y0033189D01*
X0154854Y0033789D02*
X0154854Y0031387D01*
X0155455Y0030787D01*
X0156709Y0031387D02*
X0157310Y0030787D01*
X0158511Y0030787D01*
X0159111Y0031387D01*
X0159111Y0032588D01*
X0158511Y0033189D01*
X0157310Y0033189D01*
X0156709Y0032588D01*
X0156709Y0031387D01*
X0164075Y0031387D02*
X0164676Y0030787D01*
X0166477Y0030787D01*
X0167759Y0030787D02*
X0167759Y0034390D01*
X0168359Y0033189D02*
X0169560Y0033189D01*
X0170161Y0032588D01*
X0170161Y0030787D01*
X0171442Y0030787D02*
X0172643Y0030787D01*
X0172042Y0030787D02*
X0172042Y0033189D01*
X0171442Y0033189D01*
X0172042Y0034390D02*
X0172042Y0034990D01*
X0173897Y0033189D02*
X0175699Y0033189D01*
X0176299Y0032588D01*
X0176299Y0031387D01*
X0175699Y0030787D01*
X0173897Y0030787D01*
X0173897Y0029586D02*
X0173897Y0033189D01*
X0168359Y0033189D02*
X0167759Y0032588D01*
X0166477Y0033189D02*
X0164676Y0033189D01*
X0164075Y0032588D01*
X0164075Y0031387D01*
X0181263Y0030787D02*
X0183065Y0030787D01*
X0183665Y0031387D01*
X0183665Y0032588D01*
X0183065Y0033189D01*
X0181263Y0033189D01*
X0181263Y0034390D02*
X0181263Y0030787D01*
X0184947Y0031387D02*
X0184947Y0032588D01*
X0185547Y0033189D01*
X0186748Y0033189D01*
X0187349Y0032588D01*
X0187349Y0031988D01*
X0184947Y0031988D01*
X0184947Y0031387D02*
X0185547Y0030787D01*
X0186748Y0030787D01*
X0189230Y0030787D02*
X0189230Y0033789D01*
X0189831Y0034390D01*
X0189831Y0032588D02*
X0188630Y0032588D01*
X0191085Y0032588D02*
X0191085Y0031387D01*
X0191686Y0030787D01*
X0192887Y0030787D01*
X0193487Y0031387D01*
X0193487Y0032588D01*
X0192887Y0033189D01*
X0191686Y0033189D01*
X0191085Y0032588D01*
X0194768Y0031988D02*
X0195969Y0033189D01*
X0196570Y0033189D01*
X0197838Y0032588D02*
X0198438Y0033189D01*
X0199639Y0033189D01*
X0200240Y0032588D01*
X0200240Y0031988D01*
X0197838Y0031988D01*
X0197838Y0032588D02*
X0197838Y0031387D01*
X0198438Y0030787D01*
X0199639Y0030787D01*
X0194768Y0030787D02*
X0194768Y0033189D01*
X0205204Y0034390D02*
X0205804Y0034390D01*
X0205804Y0030787D01*
X0205204Y0030787D02*
X0206405Y0030787D01*
X0207659Y0031387D02*
X0208260Y0030787D01*
X0209461Y0030787D01*
X0210061Y0031387D01*
X0210061Y0032588D01*
X0209461Y0033189D01*
X0208260Y0033189D01*
X0207659Y0032588D01*
X0207659Y0031387D01*
X0211342Y0031387D02*
X0211943Y0031988D01*
X0213744Y0031988D01*
X0213744Y0032588D02*
X0213744Y0030787D01*
X0211943Y0030787D01*
X0211342Y0031387D01*
X0211943Y0033189D02*
X0213144Y0033189D01*
X0213744Y0032588D01*
X0215026Y0032588D02*
X0215626Y0033189D01*
X0217428Y0033189D01*
X0217428Y0034390D02*
X0217428Y0030787D01*
X0215626Y0030787D01*
X0215026Y0031387D01*
X0215026Y0032588D01*
X0218709Y0033189D02*
X0219309Y0033189D01*
X0219309Y0030787D01*
X0218709Y0030787D02*
X0219910Y0030787D01*
X0221164Y0030787D02*
X0221164Y0033189D01*
X0222966Y0033189D01*
X0223566Y0032588D01*
X0223566Y0030787D01*
X0224847Y0031387D02*
X0225448Y0030787D01*
X0227249Y0030787D01*
X0227249Y0030186D02*
X0227249Y0033189D01*
X0225448Y0033189D01*
X0224847Y0032588D01*
X0224847Y0031387D01*
X0226048Y0029586D02*
X0226649Y0029586D01*
X0227249Y0030186D01*
X0232214Y0030787D02*
X0232214Y0033189D01*
X0233415Y0034390D01*
X0234616Y0033189D01*
X0234616Y0030787D01*
X0235897Y0030787D02*
X0235897Y0034390D01*
X0237698Y0034390D01*
X0238299Y0033789D01*
X0238299Y0032588D01*
X0237698Y0031988D01*
X0235897Y0031988D01*
X0237098Y0031988D02*
X0238299Y0030787D01*
X0239580Y0031387D02*
X0240180Y0030787D01*
X0241381Y0030787D01*
X0241982Y0031387D01*
X0241982Y0033789D01*
X0241381Y0034390D01*
X0240180Y0034390D01*
X0239580Y0033789D01*
X0239580Y0033189D01*
X0240180Y0032588D01*
X0241982Y0032588D01*
X0243263Y0031387D02*
X0243863Y0030787D01*
X0245065Y0030787D01*
X0245665Y0031387D01*
X0245665Y0031988D01*
X0245065Y0032588D01*
X0244464Y0032588D01*
X0245065Y0032588D02*
X0245665Y0033189D01*
X0245665Y0033789D01*
X0245065Y0034390D01*
X0243863Y0034390D01*
X0243263Y0033789D01*
X0246946Y0033789D02*
X0247547Y0034390D01*
X0248748Y0034390D01*
X0249348Y0033789D01*
X0249348Y0033189D01*
X0248748Y0032588D01*
X0249348Y0031988D01*
X0249348Y0031387D01*
X0248748Y0030787D01*
X0247547Y0030787D01*
X0246946Y0031387D01*
X0248147Y0032588D02*
X0248748Y0032588D01*
X0250629Y0033189D02*
X0251830Y0034390D01*
X0251830Y0030787D01*
X0250629Y0030787D02*
X0253031Y0030787D01*
X0257996Y0032588D02*
X0259197Y0032588D01*
X0258596Y0033789D02*
X0259197Y0034390D01*
X0258596Y0033789D02*
X0258596Y0030787D01*
X0260451Y0030787D02*
X0261652Y0030787D01*
X0261052Y0030787D02*
X0261052Y0033189D01*
X0260451Y0033189D01*
X0261052Y0034390D02*
X0261052Y0034990D01*
X0262906Y0033189D02*
X0262906Y0030787D01*
X0262906Y0031988D02*
X0264107Y0033189D01*
X0264708Y0033189D01*
X0265976Y0033189D02*
X0266576Y0033189D01*
X0267177Y0032588D01*
X0267777Y0033189D01*
X0268378Y0032588D01*
X0268378Y0030787D01*
X0267177Y0030787D02*
X0267177Y0032588D01*
X0265976Y0033189D02*
X0265976Y0030787D01*
X0269659Y0031387D02*
X0270259Y0030787D01*
X0270860Y0031387D01*
X0271460Y0030787D01*
X0272061Y0031387D01*
X0272061Y0033189D01*
X0273942Y0033189D02*
X0275144Y0033189D01*
X0275744Y0032588D01*
X0275744Y0030787D01*
X0273942Y0030787D01*
X0273342Y0031387D01*
X0273942Y0031988D01*
X0275744Y0031988D01*
X0277025Y0031988D02*
X0278226Y0033189D01*
X0278827Y0033189D01*
X0280094Y0032588D02*
X0280695Y0033189D01*
X0281896Y0033189D01*
X0282496Y0032588D01*
X0282496Y0031988D01*
X0280094Y0031988D01*
X0280094Y0032588D02*
X0280094Y0031387D01*
X0280695Y0030787D01*
X0281896Y0030787D01*
X0277025Y0030787D02*
X0277025Y0033189D01*
X0269659Y0033189D02*
X0269659Y0031387D01*
X0287461Y0030787D02*
X0288662Y0030787D01*
X0288061Y0030787D02*
X0288061Y0034390D01*
X0287461Y0034390D01*
X0289916Y0032588D02*
X0289916Y0031387D01*
X0290517Y0030787D01*
X0291718Y0030787D01*
X0292318Y0031387D01*
X0292318Y0032588D01*
X0291718Y0033189D01*
X0290517Y0033189D01*
X0289916Y0032588D01*
X0293599Y0031387D02*
X0294200Y0031988D01*
X0296001Y0031988D01*
X0296001Y0032588D02*
X0296001Y0030787D01*
X0294200Y0030787D01*
X0293599Y0031387D01*
X0294200Y0033189D02*
X0295401Y0033189D01*
X0296001Y0032588D01*
X0297282Y0032588D02*
X0297883Y0033189D01*
X0299684Y0033189D01*
X0299684Y0034390D02*
X0299684Y0030787D01*
X0297883Y0030787D01*
X0297282Y0031387D01*
X0297282Y0032588D01*
X0300756Y0040836D02*
X0301957Y0040836D01*
X0302558Y0041436D01*
X0303839Y0040836D02*
X0306241Y0040836D01*
X0305040Y0040836D02*
X0305040Y0044439D01*
X0303839Y0043238D01*
X0302558Y0043838D02*
X0301957Y0044439D01*
X0300756Y0044439D01*
X0300156Y0043838D01*
X0300156Y0041436D01*
X0300756Y0040836D01*
X0307522Y0041436D02*
X0308123Y0040836D01*
X0309324Y0040836D01*
X0309924Y0041436D01*
X0309924Y0042037D01*
X0309324Y0042637D01*
X0307522Y0042637D01*
X0307522Y0041436D01*
X0307522Y0042637D02*
X0308723Y0043838D01*
X0309924Y0044439D01*
X0313952Y0042429D02*
X0313952Y0041228D01*
X0314553Y0040627D01*
X0315153Y0040627D01*
X0315754Y0041228D01*
X0315754Y0042429D01*
X0316354Y0043029D01*
X0316955Y0043029D01*
X0317555Y0042429D01*
X0317555Y0041228D01*
X0316955Y0040627D01*
X0316354Y0040627D01*
X0315754Y0041228D01*
X0315754Y0042429D02*
X0315153Y0043029D01*
X0314553Y0043029D01*
X0313952Y0042429D01*
X0313952Y0038145D02*
X0317555Y0038145D01*
X0317555Y0036944D02*
X0317555Y0039346D01*
X0315153Y0036944D02*
X0313952Y0038145D01*
X0314553Y0035663D02*
X0315754Y0035663D01*
X0316354Y0035062D01*
X0316354Y0033261D01*
X0316354Y0034462D02*
X0317555Y0035663D01*
X0317555Y0033261D02*
X0313952Y0033261D01*
X0313952Y0035062D01*
X0314553Y0035663D01*
X0337117Y0035994D02*
X0337718Y0036594D01*
X0338919Y0036594D01*
X0339519Y0035994D01*
X0339519Y0034192D01*
X0339519Y0035393D02*
X0340720Y0036594D01*
X0340720Y0037875D02*
X0340720Y0040277D01*
X0340720Y0039076D02*
X0337117Y0039076D01*
X0338318Y0037875D01*
X0337117Y0035994D02*
X0337117Y0034192D01*
X0340720Y0034192D01*
X0340720Y0041558D02*
X0340120Y0041558D01*
X0337718Y0043960D01*
X0337117Y0043960D01*
X0337117Y0041558D01*
X0297457Y0079336D02*
X0295055Y0079336D01*
X0297457Y0081738D01*
X0297457Y0082338D01*
X0296857Y0082939D01*
X0295656Y0082939D01*
X0295055Y0082338D01*
X0292573Y0082939D02*
X0292573Y0079336D01*
X0291372Y0079336D02*
X0293774Y0079336D01*
X0291372Y0081738D02*
X0292573Y0082939D01*
X0290091Y0082338D02*
X0289491Y0082939D01*
X0288290Y0082939D01*
X0287689Y0082338D01*
X0287689Y0079936D01*
X0288290Y0079336D01*
X0289491Y0079336D01*
X0290091Y0079936D01*
X0289639Y0089261D02*
X0288438Y0089261D01*
X0287837Y0089862D01*
X0287837Y0091063D02*
X0289038Y0091663D01*
X0289639Y0091663D01*
X0290239Y0091063D01*
X0290239Y0089862D01*
X0289639Y0089261D01*
X0287837Y0091063D02*
X0287837Y0092864D01*
X0290239Y0092864D01*
X0285355Y0092864D02*
X0285355Y0089261D01*
X0284154Y0089261D02*
X0286556Y0089261D01*
X0284154Y0091663D02*
X0285355Y0092864D01*
X0282873Y0092264D02*
X0282272Y0092864D01*
X0281071Y0092864D01*
X0280471Y0092264D01*
X0280471Y0089862D01*
X0281071Y0089261D01*
X0282272Y0089261D01*
X0282873Y0089862D01*
X0281459Y0096121D02*
X0281459Y0100725D01*
X0279157Y0098423D01*
X0282226Y0098423D01*
X0283761Y0096889D02*
X0283761Y0099958D01*
X0284528Y0100725D01*
X0286063Y0100725D01*
X0286830Y0099958D01*
X0283761Y0096889D01*
X0284528Y0096121D01*
X0286063Y0096121D01*
X0286830Y0096889D01*
X0286830Y0099958D01*
X0277622Y0099958D02*
X0277622Y0098423D01*
X0276855Y0097656D01*
X0274553Y0097656D01*
X0276087Y0097656D02*
X0277622Y0096121D01*
X0274553Y0096121D02*
X0274553Y0100725D01*
X0276855Y0100725D01*
X0277622Y0099958D01*
X0267847Y0111653D02*
X0266646Y0111653D01*
X0266046Y0112253D01*
X0264765Y0111653D02*
X0262363Y0111653D01*
X0263564Y0111653D02*
X0263564Y0115256D01*
X0262363Y0114055D01*
X0261082Y0114655D02*
X0260481Y0115256D01*
X0259280Y0115256D01*
X0258680Y0114655D01*
X0258680Y0112253D01*
X0259280Y0111653D01*
X0260481Y0111653D01*
X0261082Y0112253D01*
X0266046Y0114655D02*
X0266646Y0115256D01*
X0267847Y0115256D01*
X0268448Y0114655D01*
X0268448Y0114055D01*
X0267847Y0113454D01*
X0268448Y0112854D01*
X0268448Y0112253D01*
X0267847Y0111653D01*
X0267847Y0113454D02*
X0267247Y0113454D01*
X0275491Y0113995D02*
X0275491Y0118599D01*
X0277793Y0118599D01*
X0278560Y0117832D01*
X0278560Y0116297D01*
X0277793Y0115530D01*
X0275491Y0115530D01*
X0277025Y0115530D02*
X0278560Y0113995D01*
X0280094Y0114763D02*
X0280862Y0113995D01*
X0282396Y0113995D01*
X0283164Y0114763D01*
X0283164Y0115530D01*
X0282396Y0116297D01*
X0281629Y0116297D01*
X0282396Y0116297D02*
X0283164Y0117065D01*
X0283164Y0117832D01*
X0282396Y0118599D01*
X0280862Y0118599D01*
X0280094Y0117832D01*
X0284698Y0117832D02*
X0284698Y0117065D01*
X0285466Y0116297D01*
X0287768Y0116297D01*
X0287768Y0114763D02*
X0287768Y0117832D01*
X0287000Y0118599D01*
X0285466Y0118599D01*
X0284698Y0117832D01*
X0284698Y0114763D02*
X0285466Y0113995D01*
X0287000Y0113995D01*
X0287768Y0114763D01*
X0307329Y0112156D02*
X0307329Y0109139D01*
X0308084Y0108385D01*
X0309592Y0108385D01*
X0310346Y0109139D01*
X0311861Y0108385D02*
X0314877Y0108385D01*
X0313369Y0108385D02*
X0313369Y0112910D01*
X0311861Y0111402D01*
X0310346Y0112156D02*
X0309592Y0112910D01*
X0308084Y0112910D01*
X0307329Y0112156D01*
X0316392Y0111402D02*
X0317901Y0112910D01*
X0317901Y0108385D01*
X0319409Y0108385D02*
X0316392Y0108385D01*
X0316337Y0095213D02*
X0316337Y0091442D01*
X0317091Y0090688D01*
X0318600Y0090688D01*
X0319354Y0091442D01*
X0319354Y0095213D01*
X0320868Y0094459D02*
X0321623Y0095213D01*
X0323131Y0095213D01*
X0323885Y0094459D01*
X0323885Y0093705D01*
X0323131Y0092951D01*
X0323885Y0092197D01*
X0323885Y0091442D01*
X0323131Y0090688D01*
X0321623Y0090688D01*
X0320868Y0091442D01*
X0322377Y0092951D02*
X0323131Y0092951D01*
X0280722Y0054200D02*
X0278459Y0051937D01*
X0281476Y0051937D01*
X0280722Y0049674D02*
X0280722Y0054200D01*
X0276944Y0049674D02*
X0273928Y0049674D01*
X0275436Y0049674D02*
X0275436Y0054200D01*
X0273928Y0052691D01*
X0272413Y0053445D02*
X0271659Y0054200D01*
X0270150Y0054200D01*
X0269396Y0053445D01*
X0269396Y0050429D01*
X0270150Y0049674D01*
X0271659Y0049674D01*
X0272413Y0050429D01*
X0272703Y0079405D02*
X0271502Y0079405D01*
X0270902Y0080005D01*
X0270902Y0081206D01*
X0272703Y0081206D01*
X0273304Y0080606D01*
X0273304Y0080005D01*
X0272703Y0079405D01*
X0270902Y0081206D02*
X0272103Y0082407D01*
X0273304Y0083008D01*
X0268420Y0083008D02*
X0268420Y0079405D01*
X0267219Y0079405D02*
X0269621Y0079405D01*
X0267219Y0081807D02*
X0268420Y0083008D01*
X0265938Y0082407D02*
X0265938Y0081206D01*
X0265337Y0080606D01*
X0263536Y0080606D01*
X0264737Y0080606D02*
X0265938Y0079405D01*
X0263536Y0079405D02*
X0263536Y0083008D01*
X0265337Y0083008D01*
X0265938Y0082407D01*
X0219309Y0034990D02*
X0219309Y0034390D01*
X0232214Y0032588D02*
X0234616Y0032588D01*
X0200381Y0054970D02*
X0197364Y0054970D01*
X0200381Y0057986D01*
X0200381Y0058741D01*
X0199627Y0059495D01*
X0198119Y0059495D01*
X0197364Y0058741D01*
X0195850Y0058741D02*
X0195096Y0059495D01*
X0193587Y0059495D01*
X0192833Y0058741D01*
X0192833Y0055724D01*
X0193587Y0054970D01*
X0195096Y0054970D01*
X0195850Y0055724D01*
X0171960Y0060314D02*
X0168943Y0060314D01*
X0171960Y0063331D01*
X0171960Y0064085D01*
X0171206Y0064839D01*
X0169697Y0064839D01*
X0168943Y0064085D01*
X0167428Y0064839D02*
X0167428Y0060314D01*
X0165920Y0061823D01*
X0164412Y0060314D01*
X0164412Y0064839D01*
X0162897Y0064085D02*
X0162143Y0064839D01*
X0160634Y0064839D01*
X0159880Y0064085D01*
X0159880Y0063331D01*
X0160634Y0062577D01*
X0162143Y0062577D01*
X0162897Y0061823D01*
X0162897Y0061068D01*
X0162143Y0060314D01*
X0160634Y0060314D01*
X0159880Y0061068D01*
X0177044Y0080393D02*
X0178552Y0080393D01*
X0179307Y0081147D01*
X0179307Y0084918D01*
X0180821Y0083410D02*
X0182330Y0084918D01*
X0182330Y0080393D01*
X0183838Y0080393D02*
X0180821Y0080393D01*
X0177044Y0080393D02*
X0176290Y0081147D01*
X0176290Y0084918D01*
X0308955Y0135649D02*
X0308955Y0140174D01*
X0311218Y0140174D01*
X0311972Y0139420D01*
X0311972Y0137911D01*
X0311218Y0137157D01*
X0308955Y0137157D01*
X0310463Y0137157D02*
X0311972Y0135649D01*
X0313487Y0135649D02*
X0316503Y0135649D01*
X0314995Y0135649D02*
X0314995Y0140174D01*
X0313487Y0138666D01*
X0318018Y0139420D02*
X0318772Y0140174D01*
X0320281Y0140174D01*
X0321035Y0139420D01*
X0321035Y0138666D01*
X0318018Y0135649D01*
X0321035Y0135649D01*
X0345229Y0160267D02*
X0346737Y0160267D01*
X0347492Y0161021D01*
X0349006Y0161021D02*
X0349006Y0160267D01*
X0349006Y0161021D02*
X0352023Y0164038D01*
X0352023Y0164792D01*
X0349006Y0164792D01*
X0347492Y0164038D02*
X0346737Y0164792D01*
X0345229Y0164792D01*
X0344475Y0164038D01*
X0344475Y0161021D01*
X0345229Y0160267D01*
X0344922Y0210846D02*
X0347324Y0213248D01*
X0347324Y0213848D01*
X0346723Y0214449D01*
X0345522Y0214449D01*
X0344922Y0213848D01*
X0343641Y0213848D02*
X0343641Y0212647D01*
X0343040Y0212047D01*
X0341239Y0212047D01*
X0342440Y0212047D02*
X0343641Y0210846D01*
X0344922Y0210846D02*
X0347324Y0210846D01*
X0348605Y0211446D02*
X0349205Y0210846D01*
X0350406Y0210846D01*
X0351007Y0211446D01*
X0351007Y0213848D01*
X0350406Y0214449D01*
X0349205Y0214449D01*
X0348605Y0213848D01*
X0348605Y0213248D01*
X0349205Y0212647D01*
X0351007Y0212647D01*
X0343641Y0213848D02*
X0343040Y0214449D01*
X0341239Y0214449D01*
X0341239Y0210846D01*
X0341095Y0221924D02*
X0341095Y0225527D01*
X0342896Y0225527D01*
X0343497Y0224927D01*
X0343497Y0223726D01*
X0342896Y0223125D01*
X0341095Y0223125D01*
X0342296Y0223125D02*
X0343497Y0221924D01*
X0344778Y0222525D02*
X0345378Y0221924D01*
X0346579Y0221924D01*
X0347180Y0222525D01*
X0347180Y0223125D01*
X0346579Y0223726D01*
X0345979Y0223726D01*
X0346579Y0223726D02*
X0347180Y0224326D01*
X0347180Y0224927D01*
X0346579Y0225527D01*
X0345378Y0225527D01*
X0344778Y0224927D01*
X0348461Y0224927D02*
X0349061Y0225527D01*
X0350262Y0225527D01*
X0350863Y0224927D01*
X0350863Y0224326D01*
X0350262Y0223726D01*
X0350863Y0223125D01*
X0350863Y0222525D01*
X0350262Y0221924D01*
X0349061Y0221924D01*
X0348461Y0222525D01*
X0349662Y0223726D02*
X0350262Y0223726D01*
X0344382Y0267657D02*
X0340779Y0267657D01*
X0340779Y0269458D01*
X0341379Y0270059D01*
X0342580Y0270059D01*
X0343181Y0269458D01*
X0343181Y0267657D01*
X0343181Y0268858D02*
X0344382Y0270059D01*
X0344382Y0271340D02*
X0341980Y0273742D01*
X0341379Y0273742D01*
X0340779Y0273141D01*
X0340779Y0271940D01*
X0341379Y0271340D01*
X0344382Y0271340D02*
X0344382Y0273742D01*
X0344382Y0275023D02*
X0343781Y0275023D01*
X0341379Y0277425D01*
X0340779Y0277425D01*
X0340779Y0275023D01*
X0341117Y0284442D02*
X0341117Y0286243D01*
X0341718Y0286844D01*
X0342919Y0286844D01*
X0343519Y0286243D01*
X0343519Y0284442D01*
X0343519Y0285643D02*
X0344720Y0286844D01*
X0344720Y0288125D02*
X0342318Y0290527D01*
X0341718Y0290527D01*
X0341117Y0289927D01*
X0341117Y0288726D01*
X0341718Y0288125D01*
X0344720Y0288125D02*
X0344720Y0290527D01*
X0344120Y0291808D02*
X0343519Y0291808D01*
X0342919Y0292409D01*
X0342919Y0293610D01*
X0343519Y0294210D01*
X0344120Y0294210D01*
X0344720Y0293610D01*
X0344720Y0292409D01*
X0344120Y0291808D01*
X0342919Y0292409D02*
X0342318Y0291808D01*
X0341718Y0291808D01*
X0341117Y0292409D01*
X0341117Y0293610D01*
X0341718Y0294210D01*
X0342318Y0294210D01*
X0342919Y0293610D01*
X0344720Y0284442D02*
X0341117Y0284442D01*
X0332503Y0285462D02*
X0331902Y0284861D01*
X0330701Y0284861D01*
X0330101Y0285462D01*
X0328820Y0284861D02*
X0326418Y0284861D01*
X0328820Y0287263D01*
X0328820Y0287864D01*
X0328219Y0288464D01*
X0327018Y0288464D01*
X0326418Y0287864D01*
X0325137Y0287864D02*
X0325137Y0286663D01*
X0324536Y0286062D01*
X0322735Y0286062D01*
X0322735Y0284861D02*
X0322735Y0288464D01*
X0324536Y0288464D01*
X0325137Y0287864D01*
X0323936Y0286062D02*
X0325137Y0284861D01*
X0318192Y0284970D02*
X0318192Y0285571D01*
X0317591Y0286171D01*
X0316390Y0286171D01*
X0315790Y0285571D01*
X0314509Y0285571D02*
X0313908Y0286171D01*
X0312707Y0286171D01*
X0312107Y0285571D01*
X0310826Y0285571D02*
X0310225Y0286171D01*
X0309024Y0286171D01*
X0308424Y0285571D01*
X0308424Y0283169D01*
X0309024Y0282568D01*
X0310225Y0282568D01*
X0310826Y0283169D01*
X0312107Y0282568D02*
X0314509Y0284970D01*
X0314509Y0285571D01*
X0314509Y0282568D02*
X0312107Y0282568D01*
X0315790Y0282568D02*
X0318192Y0284970D01*
X0318192Y0282568D02*
X0315790Y0282568D01*
X0314042Y0290035D02*
X0312841Y0290035D01*
X0312240Y0290635D01*
X0312240Y0291836D01*
X0314042Y0291836D01*
X0314643Y0291236D01*
X0314643Y0290635D01*
X0314042Y0290035D01*
X0312240Y0291836D02*
X0313441Y0293037D01*
X0314643Y0293638D01*
X0310959Y0293037D02*
X0310359Y0293638D01*
X0309158Y0293638D01*
X0308557Y0293037D01*
X0307276Y0293037D02*
X0307276Y0291836D01*
X0306676Y0291236D01*
X0304874Y0291236D01*
X0306075Y0291236D02*
X0307276Y0290035D01*
X0308557Y0290035D02*
X0310959Y0292437D01*
X0310959Y0293037D01*
X0310959Y0290035D02*
X0308557Y0290035D01*
X0307276Y0293037D02*
X0306676Y0293638D01*
X0304874Y0293638D01*
X0304874Y0290035D01*
X0308024Y0300665D02*
X0308024Y0304268D01*
X0309825Y0304268D01*
X0310426Y0303667D01*
X0310426Y0302466D01*
X0309825Y0301866D01*
X0308024Y0301866D01*
X0309225Y0301866D02*
X0310426Y0300665D01*
X0311707Y0301265D02*
X0312307Y0300665D01*
X0313508Y0300665D01*
X0314109Y0301265D01*
X0314109Y0301866D01*
X0313508Y0302466D01*
X0312908Y0302466D01*
X0313508Y0302466D02*
X0314109Y0303067D01*
X0314109Y0303667D01*
X0313508Y0304268D01*
X0312307Y0304268D01*
X0311707Y0303667D01*
X0315390Y0304268D02*
X0317792Y0304268D01*
X0317792Y0303667D01*
X0315390Y0301265D01*
X0315390Y0300665D01*
X0326134Y0300271D02*
X0326134Y0303874D01*
X0327936Y0303874D01*
X0328536Y0303273D01*
X0328536Y0302072D01*
X0327936Y0301472D01*
X0326134Y0301472D01*
X0327335Y0301472D02*
X0328536Y0300271D01*
X0329817Y0300871D02*
X0330418Y0300271D01*
X0331619Y0300271D01*
X0332219Y0300871D01*
X0332219Y0301472D01*
X0331619Y0302072D01*
X0331018Y0302072D01*
X0331619Y0302072D02*
X0332219Y0302673D01*
X0332219Y0303273D01*
X0331619Y0303874D01*
X0330418Y0303874D01*
X0329817Y0303273D01*
X0333500Y0303273D02*
X0333500Y0302673D01*
X0334101Y0302072D01*
X0335302Y0302072D01*
X0335902Y0301472D01*
X0335902Y0300871D01*
X0335302Y0300271D01*
X0334101Y0300271D01*
X0333500Y0300871D01*
X0333500Y0301472D01*
X0334101Y0302072D01*
X0335302Y0302072D02*
X0335902Y0302673D01*
X0335902Y0303273D01*
X0335302Y0303874D01*
X0334101Y0303874D01*
X0333500Y0303273D01*
X0338339Y0303047D02*
X0340140Y0303047D01*
X0340741Y0303647D01*
X0340741Y0304848D01*
X0340140Y0305449D01*
X0338339Y0305449D01*
X0338339Y0301846D01*
X0339540Y0303047D02*
X0340741Y0301846D01*
X0342022Y0301846D02*
X0344424Y0304248D01*
X0344424Y0304848D01*
X0343823Y0305449D01*
X0342622Y0305449D01*
X0342022Y0304848D01*
X0342022Y0301846D02*
X0344424Y0301846D01*
X0345705Y0302446D02*
X0346306Y0301846D01*
X0347507Y0301846D01*
X0348107Y0302446D01*
X0348107Y0303647D01*
X0347507Y0304248D01*
X0346906Y0304248D01*
X0345705Y0303647D01*
X0345705Y0305449D01*
X0348107Y0305449D01*
X0348806Y0312407D02*
X0348205Y0313007D01*
X0348806Y0312407D02*
X0350007Y0312407D01*
X0350607Y0313007D01*
X0350607Y0313608D01*
X0350007Y0314208D01*
X0349406Y0314208D01*
X0350007Y0314208D02*
X0350607Y0314809D01*
X0350607Y0315409D01*
X0350007Y0316010D01*
X0348806Y0316010D01*
X0348205Y0315409D01*
X0346924Y0315409D02*
X0346323Y0316010D01*
X0345122Y0316010D01*
X0344522Y0315409D01*
X0343241Y0315409D02*
X0342640Y0316010D01*
X0341439Y0316010D01*
X0340839Y0315409D01*
X0340839Y0313007D01*
X0341439Y0312407D01*
X0342640Y0312407D01*
X0343241Y0313007D01*
X0344522Y0312407D02*
X0346924Y0314809D01*
X0346924Y0315409D01*
X0346924Y0312407D02*
X0344522Y0312407D01*
X0336440Y0320501D02*
X0335839Y0319901D01*
X0334638Y0319901D01*
X0334038Y0320501D01*
X0336440Y0322903D01*
X0336440Y0320501D01*
X0334038Y0320501D02*
X0334038Y0322903D01*
X0334638Y0323504D01*
X0335839Y0323504D01*
X0336440Y0322903D01*
X0332757Y0322903D02*
X0332156Y0323504D01*
X0330955Y0323504D01*
X0330355Y0322903D01*
X0329074Y0322903D02*
X0329074Y0321702D01*
X0328473Y0321102D01*
X0326672Y0321102D01*
X0327873Y0321102D02*
X0329074Y0319901D01*
X0330355Y0319901D02*
X0332757Y0322303D01*
X0332757Y0322903D01*
X0332757Y0319901D02*
X0330355Y0319901D01*
X0329074Y0322903D02*
X0328473Y0323504D01*
X0326672Y0323504D01*
X0326672Y0319901D01*
X0319117Y0320501D02*
X0319117Y0322903D01*
X0318517Y0323504D01*
X0317316Y0323504D01*
X0316715Y0322903D01*
X0316715Y0322303D01*
X0317316Y0321702D01*
X0319117Y0321702D01*
X0319117Y0320501D02*
X0318517Y0319901D01*
X0317316Y0319901D01*
X0316715Y0320501D01*
X0315434Y0319901D02*
X0313032Y0319901D01*
X0314233Y0319901D02*
X0314233Y0323504D01*
X0313032Y0322303D01*
X0311751Y0322903D02*
X0311751Y0321702D01*
X0311150Y0321102D01*
X0309349Y0321102D01*
X0310550Y0321102D02*
X0311751Y0319901D01*
X0309349Y0319901D02*
X0309349Y0323504D01*
X0311150Y0323504D01*
X0311751Y0322903D01*
X0330701Y0288464D02*
X0331902Y0288464D01*
X0332503Y0287864D01*
X0332503Y0287263D01*
X0331902Y0286663D01*
X0332503Y0286062D01*
X0332503Y0285462D01*
X0331902Y0286663D02*
X0331302Y0286663D01*
X0330101Y0287864D02*
X0330701Y0288464D01*
X0358168Y0310846D02*
X0358168Y0314449D01*
X0359969Y0314449D01*
X0360570Y0313848D01*
X0360570Y0312647D01*
X0359969Y0312047D01*
X0358168Y0312047D01*
X0359369Y0312047D02*
X0360570Y0310846D01*
X0361851Y0310846D02*
X0364253Y0313248D01*
X0364253Y0313848D01*
X0363652Y0314449D01*
X0362451Y0314449D01*
X0361851Y0313848D01*
X0361851Y0310846D02*
X0364253Y0310846D01*
X0365534Y0312647D02*
X0367936Y0312647D01*
X0367336Y0310846D02*
X0367336Y0314449D01*
X0365534Y0312647D01*
X0301621Y0253018D02*
X0301621Y0248493D01*
X0300113Y0248493D02*
X0303129Y0248493D01*
X0300113Y0251510D02*
X0301621Y0253018D01*
X0298598Y0252264D02*
X0297844Y0253018D01*
X0296335Y0253018D01*
X0295581Y0252264D01*
X0294067Y0252264D02*
X0293312Y0253018D01*
X0291804Y0253018D01*
X0291050Y0252264D01*
X0291050Y0249247D01*
X0291804Y0248493D01*
X0293312Y0248493D01*
X0294067Y0249247D01*
X0295581Y0248493D02*
X0298598Y0251510D01*
X0298598Y0252264D01*
X0298598Y0248493D02*
X0295581Y0248493D01*
X0296867Y0231020D02*
X0296113Y0230266D01*
X0296867Y0231020D02*
X0298375Y0231020D01*
X0299129Y0230266D01*
X0299129Y0229512D01*
X0296113Y0226495D01*
X0299129Y0226495D01*
X0300644Y0227249D02*
X0303661Y0230266D01*
X0303661Y0227249D01*
X0302907Y0226495D01*
X0301398Y0226495D01*
X0300644Y0227249D01*
X0300644Y0230266D01*
X0301398Y0231020D01*
X0302907Y0231020D01*
X0303661Y0230266D01*
X0294598Y0230266D02*
X0293844Y0231020D01*
X0292335Y0231020D01*
X0291581Y0230266D01*
X0291581Y0227249D01*
X0292335Y0226495D01*
X0293844Y0226495D01*
X0294598Y0227249D01*
X0266281Y0343031D02*
X0264772Y0343031D01*
X0264018Y0343785D01*
X0262503Y0343031D02*
X0259487Y0347556D01*
X0262503Y0347556D02*
X0259487Y0343031D01*
X0264018Y0346802D02*
X0264772Y0347556D01*
X0266281Y0347556D01*
X0267035Y0346802D01*
X0267035Y0346047D01*
X0266281Y0345293D01*
X0267035Y0344539D01*
X0267035Y0343785D01*
X0266281Y0343031D01*
X0266281Y0345293D02*
X0265526Y0345293D01*
D14*
X0229239Y0354910D02*
X0225336Y0354910D01*
X0224034Y0356211D01*
X0224034Y0358814D01*
X0225336Y0360115D01*
X0229239Y0360115D01*
X0229239Y0362717D02*
X0229239Y0354910D01*
X0221320Y0357512D02*
X0216116Y0357512D01*
X0216116Y0356211D02*
X0216116Y0358814D01*
X0217417Y0360115D01*
X0220019Y0360115D01*
X0221320Y0358814D01*
X0221320Y0357512D01*
X0220019Y0354910D02*
X0217417Y0354910D01*
X0216116Y0356211D01*
X0213439Y0354910D02*
X0212138Y0356211D01*
X0212138Y0361416D01*
X0210837Y0360115D02*
X0213439Y0360115D01*
X0208160Y0360115D02*
X0205557Y0360115D01*
X0206858Y0361416D02*
X0206858Y0356211D01*
X0208160Y0354910D01*
X0202880Y0354910D02*
X0200278Y0354910D01*
X0201579Y0354910D02*
X0201579Y0360115D01*
X0200278Y0360115D01*
X0201579Y0362717D02*
X0201579Y0364018D01*
X0197564Y0358814D02*
X0197564Y0354910D01*
X0194962Y0354910D02*
X0194962Y0358814D01*
X0196263Y0360115D01*
X0197564Y0358814D01*
X0194962Y0358814D02*
X0193661Y0360115D01*
X0192359Y0360115D01*
X0192359Y0354910D01*
X0189645Y0357512D02*
X0189645Y0358814D01*
X0188344Y0360115D01*
X0185742Y0360115D01*
X0184441Y0358814D01*
X0184441Y0356211D01*
X0185742Y0354910D01*
X0188344Y0354910D01*
X0189645Y0357512D02*
X0184441Y0357512D01*
X0177786Y0347215D02*
X0179087Y0345914D01*
X0179087Y0344612D01*
X0173882Y0344612D01*
X0173882Y0343311D02*
X0173882Y0345914D01*
X0175183Y0347215D01*
X0177786Y0347215D01*
X0177786Y0342010D02*
X0175183Y0342010D01*
X0173882Y0343311D01*
X0169886Y0347215D02*
X0167283Y0344612D01*
X0167283Y0342010D02*
X0167283Y0347215D01*
X0169886Y0347215D02*
X0171187Y0347215D01*
X0164569Y0347215D02*
X0164569Y0342010D01*
X0160666Y0342010D01*
X0159365Y0343311D01*
X0159365Y0347215D01*
X0156688Y0347215D02*
X0154085Y0347215D01*
X0155387Y0348516D02*
X0155387Y0343311D01*
X0156688Y0342010D01*
X0151390Y0347215D02*
X0150089Y0347215D01*
X0147486Y0344612D01*
X0147486Y0342010D02*
X0147486Y0347215D01*
X0144772Y0345914D02*
X0144772Y0344612D01*
X0139568Y0344612D01*
X0139568Y0343311D02*
X0139568Y0345914D01*
X0140869Y0347215D01*
X0143471Y0347215D01*
X0144772Y0345914D01*
X0143471Y0342010D02*
X0140869Y0342010D01*
X0139568Y0343311D01*
X0136853Y0343311D02*
X0136853Y0345914D01*
X0135552Y0347215D01*
X0131649Y0347215D01*
X0131649Y0339408D01*
X0131649Y0342010D02*
X0135552Y0342010D01*
X0136853Y0343311D01*
X0128935Y0342010D02*
X0125031Y0342010D01*
X0123730Y0343311D01*
X0125031Y0344612D01*
X0128935Y0344612D01*
X0128935Y0345914D02*
X0128935Y0342010D01*
X0128935Y0345914D02*
X0127633Y0347215D01*
X0125031Y0347215D01*
X0123655Y0354910D02*
X0123655Y0362717D01*
X0121053Y0360115D01*
X0118451Y0362717D01*
X0118451Y0354910D01*
X0126370Y0356211D02*
X0127671Y0357512D01*
X0131574Y0357512D01*
X0131574Y0358814D02*
X0131574Y0354910D01*
X0127671Y0354910D01*
X0126370Y0356211D01*
X0127671Y0360115D02*
X0130273Y0360115D01*
X0131574Y0358814D01*
X0134289Y0358814D02*
X0134289Y0356211D01*
X0135590Y0354910D01*
X0139493Y0354910D01*
X0139493Y0353609D02*
X0139493Y0360115D01*
X0135590Y0360115D01*
X0134289Y0358814D01*
X0136891Y0352308D02*
X0138192Y0352308D01*
X0139493Y0353609D01*
X0142207Y0354910D02*
X0144809Y0354910D01*
X0143508Y0354910D02*
X0143508Y0360115D01*
X0142207Y0360115D01*
X0143508Y0362717D02*
X0143508Y0364018D01*
X0147486Y0358814D02*
X0147486Y0356211D01*
X0148788Y0354910D01*
X0152691Y0354910D01*
X0152691Y0360115D02*
X0148788Y0360115D01*
X0147486Y0358814D01*
X0163324Y0360115D02*
X0164625Y0360115D01*
X0164625Y0354910D01*
X0163324Y0354910D02*
X0165926Y0354910D01*
X0168603Y0354910D02*
X0172506Y0354910D01*
X0173808Y0356211D01*
X0172506Y0357512D01*
X0169904Y0357512D01*
X0168603Y0358814D01*
X0169904Y0360115D01*
X0173808Y0360115D01*
X0164625Y0362717D02*
X0164625Y0364018D01*
X0113097Y0347215D02*
X0109194Y0347215D01*
X0107893Y0345914D01*
X0109194Y0344612D01*
X0111796Y0344612D01*
X0113097Y0343311D01*
X0111796Y0342010D01*
X0107893Y0342010D01*
X0105216Y0342010D02*
X0102613Y0342010D01*
X0103915Y0342010D02*
X0103915Y0347215D01*
X0102613Y0347215D01*
X0103915Y0349817D02*
X0103915Y0351118D01*
X0103859Y0354910D02*
X0103859Y0362717D01*
X0106573Y0360115D02*
X0106573Y0358814D01*
X0107874Y0358814D01*
X0107874Y0360115D01*
X0106573Y0360115D01*
X0106573Y0356211D02*
X0106573Y0354910D01*
X0107874Y0354910D01*
X0107874Y0356211D01*
X0106573Y0356211D01*
X0103859Y0354910D02*
X0098654Y0362717D01*
X0098654Y0354910D01*
X0095940Y0356211D02*
X0095940Y0361416D01*
X0094639Y0362717D01*
X0092036Y0362717D01*
X0090735Y0361416D01*
X0090735Y0356211D01*
X0092036Y0354910D01*
X0094639Y0354910D01*
X0095940Y0356211D01*
X0088058Y0354910D02*
X0085456Y0354910D01*
X0086757Y0354910D02*
X0086757Y0362717D01*
X0085456Y0362717D02*
X0088058Y0362717D01*
X0082742Y0362717D02*
X0077537Y0362717D01*
X0080140Y0362717D02*
X0080140Y0354910D01*
X0074823Y0356211D02*
X0074823Y0362717D01*
X0069619Y0362717D02*
X0069619Y0356211D01*
X0070920Y0354910D01*
X0073522Y0354910D01*
X0074823Y0356211D01*
X0066904Y0354910D02*
X0066904Y0360115D01*
X0064302Y0362717D01*
X0061700Y0360115D01*
X0061700Y0354910D01*
X0058986Y0356211D02*
X0057684Y0354910D01*
X0055082Y0354910D01*
X0053781Y0356211D01*
X0053781Y0361416D01*
X0055082Y0362717D01*
X0057684Y0362717D01*
X0058986Y0361416D01*
X0061700Y0358814D02*
X0066904Y0358814D01*
X0066960Y0347215D02*
X0065659Y0345914D01*
X0065659Y0343311D01*
X0066960Y0342010D01*
X0069563Y0342010D01*
X0070864Y0343311D01*
X0070864Y0345914D01*
X0069563Y0347215D01*
X0066960Y0347215D01*
X0062964Y0347215D02*
X0061662Y0347215D01*
X0059060Y0344612D01*
X0059060Y0342010D02*
X0059060Y0347215D01*
X0056383Y0345914D02*
X0053781Y0345914D01*
X0055082Y0348516D02*
X0055082Y0342010D01*
X0055082Y0348516D02*
X0056383Y0349817D01*
X0073578Y0347215D02*
X0073578Y0342010D01*
X0076180Y0342010D02*
X0076180Y0345914D01*
X0077481Y0347215D01*
X0078782Y0345914D01*
X0078782Y0342010D01*
X0076180Y0345914D02*
X0074879Y0347215D01*
X0073578Y0347215D01*
X0089416Y0347215D02*
X0092018Y0347215D01*
X0090717Y0348516D02*
X0090717Y0343311D01*
X0092018Y0342010D01*
X0094695Y0342010D02*
X0094695Y0349817D01*
X0095996Y0347215D02*
X0098598Y0347215D01*
X0099899Y0345914D01*
X0099899Y0342010D01*
X0094695Y0345914D02*
X0095996Y0347215D01*
X0063617Y0294760D02*
X0060468Y0294760D01*
X0060468Y0293579D01*
X0060468Y0287280D02*
X0060468Y0286098D01*
X0063617Y0286098D01*
X0026216Y0269563D02*
X0026216Y0266413D01*
X0026216Y0269563D02*
X0025035Y0269563D01*
X0018735Y0269563D02*
X0017554Y0269563D01*
X0017554Y0266413D01*
X0061885Y0233306D02*
X0061887Y0233353D01*
X0061893Y0233400D01*
X0061903Y0233447D01*
X0061916Y0233492D01*
X0061934Y0233536D01*
X0061955Y0233578D01*
X0061979Y0233619D01*
X0062007Y0233657D01*
X0062038Y0233693D01*
X0062072Y0233726D01*
X0062108Y0233756D01*
X0062147Y0233783D01*
X0062188Y0233807D01*
X0062231Y0233827D01*
X0062275Y0233843D01*
X0062321Y0233856D01*
X0062367Y0233865D01*
X0062415Y0233870D01*
X0062462Y0233871D01*
X0062509Y0233868D01*
X0062556Y0233861D01*
X0062602Y0233850D01*
X0062647Y0233836D01*
X0062691Y0233817D01*
X0062732Y0233795D01*
X0062772Y0233770D01*
X0062810Y0233741D01*
X0062845Y0233710D01*
X0062878Y0233675D01*
X0062907Y0233638D01*
X0062933Y0233599D01*
X0062956Y0233557D01*
X0062975Y0233514D01*
X0062991Y0233469D01*
X0063003Y0233423D01*
X0063011Y0233377D01*
X0063015Y0233330D01*
X0063015Y0233282D01*
X0063011Y0233235D01*
X0063003Y0233189D01*
X0062991Y0233143D01*
X0062975Y0233098D01*
X0062956Y0233055D01*
X0062933Y0233013D01*
X0062907Y0232974D01*
X0062878Y0232937D01*
X0062845Y0232902D01*
X0062810Y0232871D01*
X0062772Y0232842D01*
X0062733Y0232817D01*
X0062691Y0232795D01*
X0062647Y0232776D01*
X0062602Y0232762D01*
X0062556Y0232751D01*
X0062509Y0232744D01*
X0062462Y0232741D01*
X0062415Y0232742D01*
X0062367Y0232747D01*
X0062321Y0232756D01*
X0062275Y0232769D01*
X0062231Y0232785D01*
X0062188Y0232805D01*
X0062147Y0232829D01*
X0062108Y0232856D01*
X0062072Y0232886D01*
X0062038Y0232919D01*
X0062007Y0232955D01*
X0061979Y0232993D01*
X0061955Y0233034D01*
X0061934Y0233076D01*
X0061916Y0233120D01*
X0061903Y0233165D01*
X0061893Y0233212D01*
X0061887Y0233259D01*
X0061885Y0233306D01*
X0257290Y0248813D02*
X0257990Y0248113D01*
X0259392Y0248113D01*
X0260092Y0248813D01*
X0260092Y0252316D01*
X0261894Y0250214D02*
X0264696Y0250214D01*
X0263995Y0248113D02*
X0263995Y0252316D01*
X0261894Y0250214D01*
X0257290Y0248813D02*
X0257290Y0252316D01*
X0267751Y0219760D02*
X0280743Y0219760D01*
X0283893Y0216610D01*
X0291373Y0218579D02*
X0294523Y0221728D01*
X0291373Y0218579D02*
X0291373Y0205587D01*
X0283893Y0206768D02*
X0280743Y0203618D01*
X0267751Y0203618D01*
X0267751Y0200469D02*
X0280743Y0200469D01*
X0283893Y0197319D01*
X0283893Y0187476D02*
X0280743Y0184327D01*
X0267751Y0184327D01*
X0307515Y0205587D02*
X0307515Y0218579D01*
X0304365Y0221728D01*
X0326019Y0125272D02*
X0339011Y0125272D01*
X0326019Y0125272D02*
X0322869Y0122122D01*
X0322869Y0112280D02*
X0326019Y0109130D01*
X0339011Y0109130D01*
X0352397Y0109130D02*
X0365389Y0109130D01*
X0368539Y0112280D01*
X0368539Y0122122D02*
X0365389Y0125272D01*
X0352397Y0125272D01*
X0272082Y0102437D02*
X0272082Y0089445D01*
X0272082Y0102437D02*
X0268932Y0105587D01*
X0259090Y0105587D02*
X0255940Y0102437D01*
X0255940Y0089445D01*
D15*
X0250920Y0059169D02*
X0243420Y0059169D01*
X0243420Y0179169D01*
X0250920Y0179169D01*
X0250920Y0059169D01*
X0243420Y0059169D02*
X0225920Y0059169D01*
X0225920Y0179169D01*
X0243420Y0179169D01*
X0187840Y0260974D02*
X0187840Y0266974D01*
X0181840Y0266974D01*
X0269129Y0340921D02*
X0269129Y0358421D01*
X0369129Y0358421D01*
X0369129Y0340921D01*
X0269129Y0340921D01*
X0269129Y0358421D02*
X0269129Y0365921D01*
X0369129Y0365921D01*
X0369129Y0358421D01*
X0085840Y0266974D02*
X0079840Y0266974D01*
X0079840Y0260974D01*
X0050133Y0280272D02*
X0042633Y0280272D01*
X0042633Y0320272D01*
X0050133Y0320272D01*
X0050133Y0280272D01*
X0042633Y0280272D02*
X0025133Y0280272D01*
X0025133Y0320272D01*
X0042633Y0320272D01*
X0038539Y0179169D02*
X0031039Y0179169D01*
X0031039Y0059169D01*
X0038539Y0059169D01*
X0038539Y0179169D01*
X0056039Y0179169D01*
X0056039Y0059169D01*
X0038539Y0059169D01*
X0080340Y0089474D02*
X0080340Y0095474D01*
X0080340Y0089474D02*
X0086340Y0089474D01*
X0181840Y0089474D02*
X0187840Y0089474D01*
X0187840Y0095474D01*
D16*
X0185090Y0092224D02*
X0083090Y0092224D01*
X0083090Y0264224D01*
X0185090Y0264224D01*
X0185090Y0092224D01*
X0289602Y0144760D02*
X0289602Y0160508D01*
X0305350Y0160508D01*
X0305350Y0144760D01*
X0289602Y0144760D01*
X0324793Y0199636D02*
X0327044Y0199636D01*
X0327795Y0200386D01*
X0327795Y0203389D01*
X0327044Y0204140D01*
X0324793Y0204140D01*
X0324793Y0199636D01*
X0329396Y0199636D02*
X0332399Y0199636D01*
X0330898Y0199636D02*
X0330898Y0204140D01*
X0329396Y0202638D01*
X0353537Y0200616D02*
X0356540Y0196112D01*
X0358141Y0196863D02*
X0358892Y0196112D01*
X0360393Y0196112D01*
X0361144Y0196863D01*
X0361144Y0197613D01*
X0360393Y0198364D01*
X0358141Y0198364D01*
X0358141Y0196863D01*
X0358141Y0198364D02*
X0359643Y0199865D01*
X0361144Y0200616D01*
X0356540Y0200616D02*
X0353537Y0196112D01*
X0358354Y0215379D02*
X0357604Y0216130D01*
X0357604Y0217631D01*
X0358354Y0218382D01*
X0359105Y0218382D01*
X0359856Y0217631D01*
X0360606Y0218382D01*
X0361357Y0218382D01*
X0362107Y0217631D01*
X0362107Y0216130D01*
X0361357Y0215379D01*
X0359856Y0216880D02*
X0359856Y0217631D01*
X0361357Y0220734D02*
X0362107Y0220734D01*
X0362107Y0221484D01*
X0361357Y0221484D01*
X0361357Y0220734D01*
X0362107Y0221484D02*
X0363609Y0219983D01*
X0361357Y0223052D02*
X0362107Y0223803D01*
X0362107Y0225304D01*
X0361357Y0226055D01*
X0359856Y0226055D01*
X0359105Y0225304D01*
X0359105Y0224554D01*
X0359856Y0223052D01*
X0357604Y0223052D01*
X0357604Y0226055D01*
X0359105Y0227656D02*
X0359105Y0228407D01*
X0359856Y0229158D01*
X0359105Y0229908D01*
X0359856Y0230659D01*
X0362107Y0230659D01*
X0362107Y0229158D02*
X0359856Y0229158D01*
X0359105Y0227656D02*
X0362107Y0227656D01*
X0362107Y0232260D02*
X0359105Y0232260D01*
X0359105Y0233011D01*
X0359856Y0233761D01*
X0359105Y0234512D01*
X0359856Y0235263D01*
X0362107Y0235263D01*
X0362107Y0233761D02*
X0359856Y0233761D01*
X0360393Y0253199D02*
X0358892Y0253199D01*
X0358141Y0253949D01*
X0358141Y0255451D02*
X0359643Y0256201D01*
X0360393Y0256201D01*
X0361144Y0255451D01*
X0361144Y0253949D01*
X0360393Y0253199D01*
X0358141Y0255451D02*
X0358141Y0257703D01*
X0361144Y0257703D01*
X0356540Y0257703D02*
X0353537Y0253199D01*
X0356540Y0253199D02*
X0353537Y0257703D01*
X0358354Y0272466D02*
X0357604Y0273216D01*
X0357604Y0274718D01*
X0358354Y0275468D01*
X0359105Y0275468D01*
X0359856Y0274718D01*
X0360606Y0275468D01*
X0361357Y0275468D01*
X0362107Y0274718D01*
X0362107Y0273216D01*
X0361357Y0272466D01*
X0359856Y0273967D02*
X0359856Y0274718D01*
X0361357Y0277820D02*
X0362107Y0277820D01*
X0362107Y0278571D01*
X0361357Y0278571D01*
X0361357Y0277820D01*
X0362107Y0278571D02*
X0363609Y0277070D01*
X0361357Y0280139D02*
X0362107Y0280890D01*
X0362107Y0282391D01*
X0361357Y0283142D01*
X0359856Y0283142D01*
X0359105Y0282391D01*
X0359105Y0281640D01*
X0359856Y0280139D01*
X0357604Y0280139D01*
X0357604Y0283142D01*
X0359105Y0284743D02*
X0359105Y0285494D01*
X0359856Y0286244D01*
X0359105Y0286995D01*
X0359856Y0287745D01*
X0362107Y0287745D01*
X0362107Y0286244D02*
X0359856Y0286244D01*
X0359105Y0284743D02*
X0362107Y0284743D01*
X0362107Y0289347D02*
X0359105Y0289347D01*
X0359105Y0290097D01*
X0359856Y0290848D01*
X0359105Y0291599D01*
X0359856Y0292349D01*
X0362107Y0292349D01*
X0362107Y0290848D02*
X0359856Y0290848D01*
X0293657Y0260902D02*
X0230635Y0260902D01*
X0239631Y0271148D02*
X0248381Y0271148D01*
X0248381Y0283648D01*
X0239631Y0283648D01*
X0239631Y0271148D01*
X0260881Y0268648D02*
X0260881Y0288648D01*
X0282131Y0288648D01*
X0282131Y0268648D01*
X0260881Y0268648D01*
X0230635Y0323894D02*
X0293657Y0323894D01*
D17*
X0182340Y0261474D02*
X0182340Y0118224D01*
X0159090Y0118224D01*
X0159090Y0095224D01*
X0086090Y0095224D01*
X0086090Y0261474D01*
X0182340Y0261474D01*
X0182340Y0260506D02*
X0086090Y0260506D01*
X0086090Y0259007D02*
X0182340Y0259007D01*
X0182340Y0257509D02*
X0086090Y0257509D01*
X0086090Y0256010D02*
X0182340Y0256010D01*
X0182340Y0254512D02*
X0086090Y0254512D01*
X0086090Y0253013D02*
X0182340Y0253013D01*
X0182340Y0251515D02*
X0086090Y0251515D01*
X0086090Y0250016D02*
X0182340Y0250016D01*
X0182340Y0248518D02*
X0086090Y0248518D01*
X0086090Y0247019D02*
X0182340Y0247019D01*
X0182340Y0245521D02*
X0086090Y0245521D01*
X0086090Y0244022D02*
X0182340Y0244022D01*
X0182340Y0242524D02*
X0086090Y0242524D01*
X0086090Y0241025D02*
X0182340Y0241025D01*
X0182340Y0239527D02*
X0086090Y0239527D01*
X0086090Y0238028D02*
X0182340Y0238028D01*
X0182340Y0236530D02*
X0086090Y0236530D01*
X0086090Y0235031D02*
X0182340Y0235031D01*
X0182340Y0233533D02*
X0086090Y0233533D01*
X0086090Y0232034D02*
X0182340Y0232034D01*
X0182340Y0230536D02*
X0086090Y0230536D01*
X0086090Y0229037D02*
X0182340Y0229037D01*
X0182340Y0227539D02*
X0086090Y0227539D01*
X0086090Y0226040D02*
X0182340Y0226040D01*
X0182340Y0224542D02*
X0086090Y0224542D01*
X0086090Y0223043D02*
X0182340Y0223043D01*
X0182340Y0221545D02*
X0086090Y0221545D01*
X0086090Y0220046D02*
X0182340Y0220046D01*
X0182340Y0218548D02*
X0086090Y0218548D01*
X0086090Y0217049D02*
X0182340Y0217049D01*
X0182340Y0215551D02*
X0086090Y0215551D01*
X0086090Y0214052D02*
X0182340Y0214052D01*
X0182340Y0212554D02*
X0086090Y0212554D01*
X0086090Y0211055D02*
X0182340Y0211055D01*
X0182340Y0209557D02*
X0086090Y0209557D01*
X0086090Y0208058D02*
X0182340Y0208058D01*
X0182340Y0206559D02*
X0086090Y0206559D01*
X0086090Y0205061D02*
X0182340Y0205061D01*
X0182340Y0203562D02*
X0086090Y0203562D01*
X0086090Y0202064D02*
X0182340Y0202064D01*
X0182340Y0200565D02*
X0086090Y0200565D01*
X0086090Y0199067D02*
X0182340Y0199067D01*
X0182340Y0197568D02*
X0086090Y0197568D01*
X0086090Y0196070D02*
X0182340Y0196070D01*
X0182340Y0194571D02*
X0086090Y0194571D01*
X0086090Y0193073D02*
X0182340Y0193073D01*
X0182340Y0191574D02*
X0086090Y0191574D01*
X0086090Y0190076D02*
X0182340Y0190076D01*
X0182340Y0188577D02*
X0086090Y0188577D01*
X0086090Y0187079D02*
X0182340Y0187079D01*
X0182340Y0185580D02*
X0086090Y0185580D01*
X0086090Y0184082D02*
X0182340Y0184082D01*
X0182340Y0182583D02*
X0086090Y0182583D01*
X0086090Y0181085D02*
X0182340Y0181085D01*
X0182340Y0179586D02*
X0086090Y0179586D01*
X0086090Y0178088D02*
X0182340Y0178088D01*
X0182340Y0176589D02*
X0086090Y0176589D01*
X0086090Y0175091D02*
X0182340Y0175091D01*
X0182340Y0173592D02*
X0086090Y0173592D01*
X0086090Y0172094D02*
X0182340Y0172094D01*
X0182340Y0170595D02*
X0086090Y0170595D01*
X0086090Y0169097D02*
X0182340Y0169097D01*
X0182340Y0167598D02*
X0086090Y0167598D01*
X0086090Y0166100D02*
X0182340Y0166100D01*
X0182340Y0164601D02*
X0086090Y0164601D01*
X0086090Y0163103D02*
X0182340Y0163103D01*
X0182340Y0161604D02*
X0086090Y0161604D01*
X0086090Y0160106D02*
X0182340Y0160106D01*
X0182340Y0158607D02*
X0086090Y0158607D01*
X0086090Y0157109D02*
X0182340Y0157109D01*
X0182340Y0155610D02*
X0086090Y0155610D01*
X0086090Y0154112D02*
X0182340Y0154112D01*
X0182340Y0152613D02*
X0086090Y0152613D01*
X0086090Y0151115D02*
X0182340Y0151115D01*
X0182340Y0149616D02*
X0086090Y0149616D01*
X0086090Y0148118D02*
X0182340Y0148118D01*
X0182340Y0146619D02*
X0086090Y0146619D01*
X0086090Y0145121D02*
X0182340Y0145121D01*
X0182340Y0143622D02*
X0086090Y0143622D01*
X0086090Y0142124D02*
X0182340Y0142124D01*
X0182340Y0140625D02*
X0086090Y0140625D01*
X0086090Y0139126D02*
X0182340Y0139126D01*
X0182340Y0137628D02*
X0086090Y0137628D01*
X0086090Y0136129D02*
X0182340Y0136129D01*
X0182340Y0134631D02*
X0086090Y0134631D01*
X0086090Y0133132D02*
X0182340Y0133132D01*
X0182340Y0131634D02*
X0086090Y0131634D01*
X0086090Y0130135D02*
X0182340Y0130135D01*
X0182340Y0128637D02*
X0086090Y0128637D01*
X0086090Y0127138D02*
X0182340Y0127138D01*
X0182340Y0125640D02*
X0086090Y0125640D01*
X0086090Y0124141D02*
X0182340Y0124141D01*
X0182340Y0122643D02*
X0086090Y0122643D01*
X0086090Y0121144D02*
X0182340Y0121144D01*
X0182340Y0119646D02*
X0086090Y0119646D01*
X0086090Y0118147D02*
X0159090Y0118147D01*
X0159090Y0116649D02*
X0086090Y0116649D01*
X0086090Y0115150D02*
X0159090Y0115150D01*
X0159090Y0113652D02*
X0086090Y0113652D01*
X0086090Y0112153D02*
X0159090Y0112153D01*
X0159090Y0110655D02*
X0086090Y0110655D01*
X0086090Y0109156D02*
X0159090Y0109156D01*
X0159090Y0107658D02*
X0086090Y0107658D01*
X0086090Y0106159D02*
X0159090Y0106159D01*
X0159090Y0104661D02*
X0086090Y0104661D01*
X0086090Y0103162D02*
X0159090Y0103162D01*
X0159090Y0101664D02*
X0086090Y0101664D01*
X0086090Y0100165D02*
X0159090Y0100165D01*
X0159090Y0098667D02*
X0086090Y0098667D01*
X0086090Y0097168D02*
X0159090Y0097168D01*
X0159090Y0095670D02*
X0086090Y0095670D01*
X0164090Y0108224D02*
X0164092Y0108365D01*
X0164098Y0108506D01*
X0164108Y0108646D01*
X0164122Y0108786D01*
X0164140Y0108926D01*
X0164161Y0109065D01*
X0164187Y0109204D01*
X0164216Y0109342D01*
X0164250Y0109478D01*
X0164287Y0109614D01*
X0164328Y0109749D01*
X0164373Y0109883D01*
X0164422Y0110015D01*
X0164474Y0110146D01*
X0164530Y0110275D01*
X0164590Y0110402D01*
X0164653Y0110528D01*
X0164719Y0110652D01*
X0164790Y0110775D01*
X0164863Y0110895D01*
X0164940Y0111013D01*
X0165020Y0111129D01*
X0165104Y0111242D01*
X0165190Y0111353D01*
X0165280Y0111462D01*
X0165373Y0111568D01*
X0165468Y0111671D01*
X0165567Y0111772D01*
X0165668Y0111870D01*
X0165772Y0111965D01*
X0165879Y0112057D01*
X0165988Y0112146D01*
X0166100Y0112231D01*
X0166214Y0112314D01*
X0166330Y0112394D01*
X0166449Y0112470D01*
X0166570Y0112542D01*
X0166692Y0112612D01*
X0166817Y0112677D01*
X0166943Y0112740D01*
X0167071Y0112798D01*
X0167201Y0112853D01*
X0167332Y0112905D01*
X0167465Y0112952D01*
X0167599Y0112996D01*
X0167734Y0113037D01*
X0167870Y0113073D01*
X0168007Y0113105D01*
X0168145Y0113134D01*
X0168283Y0113159D01*
X0168423Y0113179D01*
X0168563Y0113196D01*
X0168703Y0113209D01*
X0168844Y0113218D01*
X0168984Y0113223D01*
X0169125Y0113224D01*
X0169266Y0113221D01*
X0169407Y0113214D01*
X0169547Y0113203D01*
X0169687Y0113188D01*
X0169827Y0113169D01*
X0169966Y0113147D01*
X0170104Y0113120D01*
X0170242Y0113090D01*
X0170378Y0113055D01*
X0170514Y0113017D01*
X0170648Y0112975D01*
X0170782Y0112929D01*
X0170914Y0112880D01*
X0171044Y0112826D01*
X0171173Y0112769D01*
X0171300Y0112709D01*
X0171426Y0112645D01*
X0171549Y0112577D01*
X0171671Y0112506D01*
X0171791Y0112432D01*
X0171908Y0112354D01*
X0172023Y0112273D01*
X0172136Y0112189D01*
X0172247Y0112102D01*
X0172355Y0112011D01*
X0172460Y0111918D01*
X0172563Y0111821D01*
X0172663Y0111722D01*
X0172760Y0111620D01*
X0172854Y0111515D01*
X0172945Y0111408D01*
X0173033Y0111298D01*
X0173118Y0111186D01*
X0173200Y0111071D01*
X0173279Y0110954D01*
X0173354Y0110835D01*
X0173426Y0110714D01*
X0173494Y0110591D01*
X0173559Y0110466D01*
X0173621Y0110339D01*
X0173678Y0110210D01*
X0173733Y0110080D01*
X0173783Y0109949D01*
X0173830Y0109816D01*
X0173873Y0109682D01*
X0173912Y0109546D01*
X0173947Y0109410D01*
X0173979Y0109273D01*
X0174006Y0109135D01*
X0174030Y0108996D01*
X0174050Y0108856D01*
X0174066Y0108716D01*
X0174078Y0108576D01*
X0174086Y0108435D01*
X0174090Y0108294D01*
X0174090Y0108154D01*
X0174086Y0108013D01*
X0174078Y0107872D01*
X0174066Y0107732D01*
X0174050Y0107592D01*
X0174030Y0107452D01*
X0174006Y0107313D01*
X0173979Y0107175D01*
X0173947Y0107038D01*
X0173912Y0106902D01*
X0173873Y0106766D01*
X0173830Y0106632D01*
X0173783Y0106499D01*
X0173733Y0106368D01*
X0173678Y0106238D01*
X0173621Y0106109D01*
X0173559Y0105982D01*
X0173494Y0105857D01*
X0173426Y0105734D01*
X0173354Y0105613D01*
X0173279Y0105494D01*
X0173200Y0105377D01*
X0173118Y0105262D01*
X0173033Y0105150D01*
X0172945Y0105040D01*
X0172854Y0104933D01*
X0172760Y0104828D01*
X0172663Y0104726D01*
X0172563Y0104627D01*
X0172460Y0104530D01*
X0172355Y0104437D01*
X0172247Y0104346D01*
X0172136Y0104259D01*
X0172023Y0104175D01*
X0171908Y0104094D01*
X0171791Y0104016D01*
X0171671Y0103942D01*
X0171549Y0103871D01*
X0171426Y0103803D01*
X0171300Y0103739D01*
X0171173Y0103679D01*
X0171044Y0103622D01*
X0170914Y0103568D01*
X0170782Y0103519D01*
X0170648Y0103473D01*
X0170514Y0103431D01*
X0170378Y0103393D01*
X0170242Y0103358D01*
X0170104Y0103328D01*
X0169966Y0103301D01*
X0169827Y0103279D01*
X0169687Y0103260D01*
X0169547Y0103245D01*
X0169407Y0103234D01*
X0169266Y0103227D01*
X0169125Y0103224D01*
X0168984Y0103225D01*
X0168844Y0103230D01*
X0168703Y0103239D01*
X0168563Y0103252D01*
X0168423Y0103269D01*
X0168283Y0103289D01*
X0168145Y0103314D01*
X0168007Y0103343D01*
X0167870Y0103375D01*
X0167734Y0103411D01*
X0167599Y0103452D01*
X0167465Y0103496D01*
X0167332Y0103543D01*
X0167201Y0103595D01*
X0167071Y0103650D01*
X0166943Y0103708D01*
X0166817Y0103771D01*
X0166692Y0103836D01*
X0166570Y0103906D01*
X0166449Y0103978D01*
X0166330Y0104054D01*
X0166214Y0104134D01*
X0166100Y0104217D01*
X0165988Y0104302D01*
X0165879Y0104391D01*
X0165772Y0104483D01*
X0165668Y0104578D01*
X0165567Y0104676D01*
X0165468Y0104777D01*
X0165373Y0104880D01*
X0165280Y0104986D01*
X0165190Y0105095D01*
X0165104Y0105206D01*
X0165020Y0105319D01*
X0164940Y0105435D01*
X0164863Y0105553D01*
X0164790Y0105673D01*
X0164719Y0105796D01*
X0164653Y0105920D01*
X0164590Y0106046D01*
X0164530Y0106173D01*
X0164474Y0106302D01*
X0164422Y0106433D01*
X0164373Y0106565D01*
X0164328Y0106699D01*
X0164287Y0106834D01*
X0164250Y0106970D01*
X0164216Y0107106D01*
X0164187Y0107244D01*
X0164161Y0107383D01*
X0164140Y0107522D01*
X0164122Y0107662D01*
X0164108Y0107802D01*
X0164098Y0107942D01*
X0164092Y0108083D01*
X0164090Y0108224D01*
D18*
X0064649Y0222307D02*
X0064649Y0236504D01*
X0046050Y0236504D02*
X0046050Y0222307D01*
X0315487Y0088461D02*
X0315487Y0047516D01*
X0338519Y0047516D01*
X0338519Y0088461D01*
X0315487Y0088461D01*
X0317517Y0084622D02*
X0317519Y0084707D01*
X0317525Y0084791D01*
X0317535Y0084876D01*
X0317549Y0084959D01*
X0317566Y0085042D01*
X0317588Y0085124D01*
X0317614Y0085205D01*
X0317643Y0085285D01*
X0317676Y0085363D01*
X0317712Y0085439D01*
X0317752Y0085514D01*
X0317796Y0085587D01*
X0317843Y0085658D01*
X0317893Y0085726D01*
X0317946Y0085792D01*
X0318003Y0085855D01*
X0318062Y0085916D01*
X0318124Y0085974D01*
X0318189Y0086029D01*
X0318256Y0086081D01*
X0318325Y0086129D01*
X0318397Y0086174D01*
X0318471Y0086216D01*
X0318547Y0086254D01*
X0318624Y0086289D01*
X0318703Y0086320D01*
X0318783Y0086348D01*
X0318865Y0086371D01*
X0318947Y0086391D01*
X0319030Y0086407D01*
X0319114Y0086419D01*
X0319199Y0086427D01*
X0319284Y0086431D01*
X0319368Y0086431D01*
X0319453Y0086427D01*
X0319538Y0086419D01*
X0319622Y0086407D01*
X0319705Y0086391D01*
X0319787Y0086371D01*
X0319869Y0086348D01*
X0319949Y0086320D01*
X0320028Y0086289D01*
X0320105Y0086254D01*
X0320181Y0086216D01*
X0320255Y0086174D01*
X0320327Y0086129D01*
X0320396Y0086081D01*
X0320463Y0086029D01*
X0320528Y0085974D01*
X0320590Y0085916D01*
X0320649Y0085855D01*
X0320706Y0085792D01*
X0320759Y0085726D01*
X0320809Y0085658D01*
X0320856Y0085587D01*
X0320900Y0085514D01*
X0320940Y0085439D01*
X0320976Y0085363D01*
X0321009Y0085285D01*
X0321038Y0085205D01*
X0321064Y0085124D01*
X0321086Y0085042D01*
X0321103Y0084959D01*
X0321117Y0084876D01*
X0321127Y0084791D01*
X0321133Y0084707D01*
X0321135Y0084622D01*
X0321133Y0084537D01*
X0321127Y0084453D01*
X0321117Y0084368D01*
X0321103Y0084285D01*
X0321086Y0084202D01*
X0321064Y0084120D01*
X0321038Y0084039D01*
X0321009Y0083959D01*
X0320976Y0083881D01*
X0320940Y0083805D01*
X0320900Y0083730D01*
X0320856Y0083657D01*
X0320809Y0083586D01*
X0320759Y0083518D01*
X0320706Y0083452D01*
X0320649Y0083389D01*
X0320590Y0083328D01*
X0320528Y0083270D01*
X0320463Y0083215D01*
X0320396Y0083163D01*
X0320327Y0083115D01*
X0320255Y0083070D01*
X0320181Y0083028D01*
X0320105Y0082990D01*
X0320028Y0082955D01*
X0319949Y0082924D01*
X0319869Y0082896D01*
X0319787Y0082873D01*
X0319705Y0082853D01*
X0319622Y0082837D01*
X0319538Y0082825D01*
X0319453Y0082817D01*
X0319368Y0082813D01*
X0319284Y0082813D01*
X0319199Y0082817D01*
X0319114Y0082825D01*
X0319030Y0082837D01*
X0318947Y0082853D01*
X0318865Y0082873D01*
X0318783Y0082896D01*
X0318703Y0082924D01*
X0318624Y0082955D01*
X0318547Y0082990D01*
X0318471Y0083028D01*
X0318397Y0083070D01*
X0318325Y0083115D01*
X0318256Y0083163D01*
X0318189Y0083215D01*
X0318124Y0083270D01*
X0318062Y0083328D01*
X0318003Y0083389D01*
X0317946Y0083452D01*
X0317893Y0083518D01*
X0317843Y0083586D01*
X0317796Y0083657D01*
X0317752Y0083730D01*
X0317712Y0083805D01*
X0317676Y0083881D01*
X0317643Y0083959D01*
X0317614Y0084039D01*
X0317588Y0084120D01*
X0317566Y0084202D01*
X0317549Y0084285D01*
X0317535Y0084368D01*
X0317525Y0084453D01*
X0317519Y0084537D01*
X0317517Y0084622D01*
X0354905Y0091457D02*
X0354905Y0048457D01*
X0354907Y0048397D01*
X0354912Y0048336D01*
X0354921Y0048277D01*
X0354934Y0048218D01*
X0354950Y0048159D01*
X0354970Y0048102D01*
X0354993Y0048047D01*
X0355020Y0047992D01*
X0355049Y0047940D01*
X0355082Y0047889D01*
X0355118Y0047840D01*
X0355156Y0047794D01*
X0355198Y0047750D01*
X0355242Y0047708D01*
X0355288Y0047670D01*
X0355337Y0047634D01*
X0355388Y0047601D01*
X0355440Y0047572D01*
X0355495Y0047545D01*
X0355550Y0047522D01*
X0355607Y0047502D01*
X0355666Y0047486D01*
X0355725Y0047473D01*
X0355784Y0047464D01*
X0355845Y0047459D01*
X0355905Y0047457D01*
X0359905Y0047457D01*
X0368905Y0047457D02*
X0372905Y0047457D01*
X0372965Y0047459D01*
X0373026Y0047464D01*
X0373085Y0047473D01*
X0373144Y0047486D01*
X0373203Y0047502D01*
X0373260Y0047522D01*
X0373315Y0047545D01*
X0373370Y0047572D01*
X0373422Y0047601D01*
X0373473Y0047634D01*
X0373522Y0047670D01*
X0373568Y0047708D01*
X0373612Y0047750D01*
X0373654Y0047794D01*
X0373692Y0047840D01*
X0373728Y0047889D01*
X0373761Y0047940D01*
X0373790Y0047992D01*
X0373817Y0048047D01*
X0373840Y0048102D01*
X0373860Y0048159D01*
X0373876Y0048218D01*
X0373889Y0048277D01*
X0373898Y0048336D01*
X0373903Y0048397D01*
X0373905Y0048457D01*
X0373905Y0091457D01*
X0373903Y0091517D01*
X0373898Y0091578D01*
X0373889Y0091637D01*
X0373876Y0091696D01*
X0373860Y0091755D01*
X0373840Y0091812D01*
X0373817Y0091867D01*
X0373790Y0091922D01*
X0373761Y0091974D01*
X0373728Y0092025D01*
X0373692Y0092074D01*
X0373654Y0092120D01*
X0373612Y0092164D01*
X0373568Y0092206D01*
X0373522Y0092244D01*
X0373473Y0092280D01*
X0373422Y0092313D01*
X0373370Y0092342D01*
X0373315Y0092369D01*
X0373260Y0092392D01*
X0373203Y0092412D01*
X0373144Y0092428D01*
X0373085Y0092441D01*
X0373026Y0092450D01*
X0372965Y0092455D01*
X0372905Y0092457D01*
X0368905Y0092457D01*
X0359905Y0092457D02*
X0355905Y0092457D01*
X0355845Y0092455D01*
X0355784Y0092450D01*
X0355725Y0092441D01*
X0355666Y0092428D01*
X0355607Y0092412D01*
X0355550Y0092392D01*
X0355495Y0092369D01*
X0355440Y0092342D01*
X0355388Y0092313D01*
X0355337Y0092280D01*
X0355288Y0092244D01*
X0355242Y0092206D01*
X0355198Y0092164D01*
X0355156Y0092120D01*
X0355118Y0092074D01*
X0355082Y0092025D01*
X0355049Y0091974D01*
X0355020Y0091922D01*
X0354993Y0091867D01*
X0354970Y0091812D01*
X0354950Y0091755D01*
X0354934Y0091696D01*
X0354921Y0091637D01*
X0354912Y0091578D01*
X0354907Y0091517D01*
X0354905Y0091457D01*
X0361905Y0072457D02*
X0364405Y0072457D01*
X0366905Y0072457D01*
X0366905Y0070957D02*
X0361905Y0070957D01*
X0361905Y0068957D01*
X0366905Y0068957D01*
X0366905Y0070957D01*
X0366905Y0067457D02*
X0364405Y0067457D01*
X0361905Y0067457D01*
X0343873Y0186256D02*
X0325881Y0186256D01*
X0332909Y0187828D02*
X0332909Y0192004D01*
X0337085Y0196180D01*
X0337085Y0187828D01*
X0332909Y0192004D01*
X0332909Y0196180D01*
X0325881Y0197752D02*
X0343873Y0197752D01*
X0354515Y0202075D02*
X0354523Y0202075D01*
X0354515Y0202075D02*
X0354515Y0249650D01*
X0372023Y0249650D01*
X0380523Y0249650D02*
X0400672Y0249650D01*
X0400672Y0237862D01*
X0400672Y0213862D01*
X0400672Y0202075D01*
X0362023Y0202075D01*
X0400672Y0213862D02*
X0411491Y0213862D01*
X0411491Y0237862D01*
X0413491Y0235862D01*
X0413491Y0215862D01*
X0411491Y0213862D01*
X0411491Y0237862D02*
X0400672Y0237862D01*
X0400672Y0259161D02*
X0362023Y0259161D01*
X0354523Y0259161D02*
X0354515Y0259161D01*
X0354515Y0306736D01*
X0372023Y0306736D01*
X0380523Y0306736D02*
X0400672Y0306736D01*
X0400672Y0294949D01*
X0400672Y0270949D01*
X0400672Y0259161D01*
X0400672Y0270949D02*
X0411491Y0270949D01*
X0411491Y0294949D01*
X0413491Y0292949D01*
X0413491Y0272949D01*
X0411491Y0270949D01*
X0411491Y0294949D02*
X0400672Y0294949D01*
D19*
X0372405Y0083457D02*
X0372405Y0056457D01*
X0369405Y0056457D02*
X0369405Y0083457D01*
X0369403Y0083590D01*
X0369398Y0083722D01*
X0369389Y0083854D01*
X0369377Y0083987D01*
X0369361Y0084118D01*
X0369342Y0084250D01*
X0369319Y0084380D01*
X0369293Y0084510D01*
X0369263Y0084640D01*
X0369230Y0084768D01*
X0369194Y0084896D01*
X0369154Y0085022D01*
X0369111Y0085148D01*
X0369064Y0085272D01*
X0369014Y0085395D01*
X0368961Y0085516D01*
X0368905Y0085636D01*
X0359905Y0090071D02*
X0359745Y0089960D01*
X0359589Y0089845D01*
X0359435Y0089726D01*
X0359283Y0089603D01*
X0359135Y0089476D01*
X0358991Y0089346D01*
X0358849Y0089213D01*
X0358710Y0089076D01*
X0358575Y0088936D01*
X0358444Y0088792D01*
X0358316Y0088646D01*
X0358191Y0088496D01*
X0358071Y0088343D01*
X0357954Y0088188D01*
X0357840Y0088029D01*
X0357731Y0087868D01*
X0357626Y0087704D01*
X0357524Y0087538D01*
X0357427Y0087370D01*
X0357334Y0087199D01*
X0357245Y0087025D01*
X0357160Y0086850D01*
X0357080Y0086673D01*
X0357004Y0086494D01*
X0356932Y0086313D01*
X0356865Y0086130D01*
X0356802Y0085946D01*
X0356744Y0085760D01*
X0356690Y0085573D01*
X0356641Y0085384D01*
X0356596Y0085195D01*
X0356556Y0085004D01*
X0356521Y0084813D01*
X0356490Y0084621D01*
X0356464Y0084428D01*
X0356443Y0084234D01*
X0356426Y0084040D01*
X0356414Y0083846D01*
X0356407Y0083651D01*
X0356405Y0083457D01*
X0356405Y0056457D01*
X0359405Y0056457D02*
X0359405Y0083457D01*
X0359407Y0083590D01*
X0359412Y0083722D01*
X0359421Y0083854D01*
X0359433Y0083987D01*
X0359449Y0084118D01*
X0359468Y0084250D01*
X0359491Y0084380D01*
X0359517Y0084510D01*
X0359547Y0084640D01*
X0359580Y0084768D01*
X0359616Y0084896D01*
X0359656Y0085022D01*
X0359699Y0085148D01*
X0359746Y0085272D01*
X0359796Y0085395D01*
X0359849Y0085516D01*
X0359905Y0085636D01*
X0368905Y0090071D02*
X0369064Y0089959D01*
X0369221Y0089844D01*
X0369375Y0089725D01*
X0369526Y0089602D01*
X0369674Y0089475D01*
X0369819Y0089345D01*
X0369961Y0089212D01*
X0370099Y0089075D01*
X0370234Y0088935D01*
X0370366Y0088791D01*
X0370494Y0088645D01*
X0370618Y0088495D01*
X0370739Y0088342D01*
X0370856Y0088187D01*
X0370969Y0088028D01*
X0371079Y0087867D01*
X0371184Y0087704D01*
X0371286Y0087537D01*
X0371383Y0087369D01*
X0371476Y0087198D01*
X0371565Y0087025D01*
X0371650Y0086849D01*
X0371730Y0086672D01*
X0371806Y0086493D01*
X0371878Y0086312D01*
X0371945Y0086129D01*
X0372008Y0085945D01*
X0372066Y0085759D01*
X0372120Y0085572D01*
X0372169Y0085384D01*
X0372214Y0085194D01*
X0372254Y0085004D01*
X0372289Y0084812D01*
X0372320Y0084620D01*
X0372346Y0084427D01*
X0372367Y0084234D01*
X0372384Y0084040D01*
X0372396Y0083845D01*
X0372403Y0083651D01*
X0372405Y0083456D01*
X0364405Y0073957D02*
X0364405Y0072457D01*
X0364405Y0067457D02*
X0364405Y0065957D01*
X0356405Y0056457D02*
X0356407Y0056262D01*
X0356414Y0056067D01*
X0356426Y0055873D01*
X0356443Y0055679D01*
X0356464Y0055486D01*
X0356490Y0055293D01*
X0356521Y0055100D01*
X0356556Y0054909D01*
X0356596Y0054718D01*
X0356641Y0054529D01*
X0356690Y0054341D01*
X0356744Y0054153D01*
X0356802Y0053968D01*
X0356865Y0053783D01*
X0356932Y0053601D01*
X0357004Y0053420D01*
X0357080Y0053241D01*
X0357160Y0053063D01*
X0357245Y0052888D01*
X0357334Y0052715D01*
X0357427Y0052544D01*
X0357525Y0052375D01*
X0357626Y0052209D01*
X0357731Y0052045D01*
X0357841Y0051884D01*
X0357954Y0051726D01*
X0358071Y0051570D01*
X0358192Y0051418D01*
X0358316Y0051268D01*
X0358444Y0051121D01*
X0358576Y0050978D01*
X0358711Y0050838D01*
X0358849Y0050701D01*
X0358991Y0050567D01*
X0359136Y0050437D01*
X0359284Y0050311D01*
X0359435Y0050188D01*
X0359589Y0050069D01*
X0359746Y0049954D01*
X0359905Y0049842D01*
X0368905Y0049842D02*
X0369065Y0049953D01*
X0369221Y0050068D01*
X0369375Y0050187D01*
X0369527Y0050310D01*
X0369675Y0050437D01*
X0369819Y0050567D01*
X0369961Y0050700D01*
X0370100Y0050837D01*
X0370235Y0050977D01*
X0370366Y0051121D01*
X0370494Y0051267D01*
X0370619Y0051417D01*
X0370739Y0051570D01*
X0370856Y0051725D01*
X0370970Y0051884D01*
X0371079Y0052045D01*
X0371184Y0052209D01*
X0371286Y0052375D01*
X0371383Y0052543D01*
X0371476Y0052714D01*
X0371565Y0052888D01*
X0371650Y0053063D01*
X0371730Y0053240D01*
X0371806Y0053419D01*
X0371878Y0053600D01*
X0371945Y0053783D01*
X0372008Y0053967D01*
X0372066Y0054153D01*
X0372120Y0054340D01*
X0372169Y0054529D01*
X0372214Y0054718D01*
X0372254Y0054909D01*
X0372289Y0055100D01*
X0372320Y0055292D01*
X0372346Y0055485D01*
X0372367Y0055679D01*
X0372384Y0055873D01*
X0372396Y0056067D01*
X0372403Y0056262D01*
X0372405Y0056456D01*
X0369405Y0056457D02*
X0369403Y0056324D01*
X0369398Y0056192D01*
X0369389Y0056060D01*
X0369377Y0055927D01*
X0369361Y0055796D01*
X0369342Y0055664D01*
X0369319Y0055534D01*
X0369293Y0055404D01*
X0369263Y0055274D01*
X0369230Y0055146D01*
X0369194Y0055018D01*
X0369154Y0054892D01*
X0369111Y0054766D01*
X0369064Y0054642D01*
X0369014Y0054519D01*
X0368961Y0054398D01*
X0368905Y0054278D01*
X0359905Y0054278D02*
X0359849Y0054398D01*
X0359796Y0054519D01*
X0359746Y0054642D01*
X0359699Y0054766D01*
X0359656Y0054892D01*
X0359616Y0055018D01*
X0359580Y0055146D01*
X0359547Y0055274D01*
X0359517Y0055404D01*
X0359491Y0055534D01*
X0359468Y0055664D01*
X0359449Y0055796D01*
X0359433Y0055927D01*
X0359421Y0056060D01*
X0359412Y0056192D01*
X0359407Y0056324D01*
X0359405Y0056457D01*
D20*
X0214208Y0200370D03*
X0214208Y0203323D03*
X0214208Y0214150D03*
X0214208Y0217102D03*
D21*
X0214208Y0215626D03*
X0214208Y0201846D03*
X0378184Y0133539D03*
D22*
X0334498Y0150482D02*
X0334498Y0171982D01*
X0330498Y0171982D01*
X0330298Y0172082D02*
X0330300Y0171977D01*
X0330298Y0171872D01*
X0330292Y0171768D01*
X0330282Y0171664D01*
X0330268Y0171560D01*
X0330250Y0171456D01*
X0330229Y0171354D01*
X0330203Y0171252D01*
X0330174Y0171152D01*
X0330141Y0171052D01*
X0330105Y0170954D01*
X0330064Y0170857D01*
X0330020Y0170762D01*
X0329973Y0170669D01*
X0329922Y0170577D01*
X0329868Y0170487D01*
X0329810Y0170400D01*
X0329750Y0170314D01*
X0329686Y0170231D01*
X0329619Y0170151D01*
X0329549Y0170073D01*
X0329476Y0169997D01*
X0329400Y0169925D01*
X0329322Y0169855D01*
X0329241Y0169788D01*
X0329158Y0169725D01*
X0329072Y0169664D01*
X0328985Y0169607D01*
X0328895Y0169553D01*
X0328803Y0169502D01*
X0328709Y0169455D01*
X0328614Y0169412D01*
X0328517Y0169372D01*
X0328419Y0169336D01*
X0328319Y0169303D01*
X0328219Y0169274D01*
X0328117Y0169249D01*
X0328014Y0169228D01*
X0327911Y0169211D01*
X0327807Y0169197D01*
X0327703Y0169187D01*
X0327598Y0169182D01*
X0327493Y0169180D01*
X0327388Y0169182D01*
X0327284Y0169188D01*
X0327180Y0169198D01*
X0327076Y0169212D01*
X0326972Y0169230D01*
X0326870Y0169251D01*
X0326768Y0169277D01*
X0326668Y0169306D01*
X0326568Y0169339D01*
X0326470Y0169375D01*
X0326373Y0169416D01*
X0326278Y0169460D01*
X0326185Y0169507D01*
X0326093Y0169558D01*
X0326003Y0169612D01*
X0325916Y0169670D01*
X0325830Y0169730D01*
X0325747Y0169794D01*
X0325667Y0169861D01*
X0325589Y0169931D01*
X0325513Y0170004D01*
X0325441Y0170080D01*
X0325371Y0170158D01*
X0325304Y0170239D01*
X0325241Y0170322D01*
X0325180Y0170408D01*
X0325123Y0170495D01*
X0325069Y0170585D01*
X0325018Y0170677D01*
X0324971Y0170771D01*
X0324928Y0170866D01*
X0324888Y0170963D01*
X0324852Y0171061D01*
X0324819Y0171161D01*
X0324790Y0171261D01*
X0324765Y0171363D01*
X0324744Y0171466D01*
X0324727Y0171569D01*
X0324713Y0171673D01*
X0324703Y0171777D01*
X0324698Y0171882D01*
X0324698Y0171982D02*
X0320798Y0171982D01*
X0320798Y0150482D01*
X0334498Y0150482D01*
X0174444Y0057161D02*
X0174444Y0039445D01*
X0156728Y0039445D01*
X0156728Y0057161D01*
X0174444Y0057161D01*
X0160665Y0048303D02*
X0160667Y0048443D01*
X0160673Y0048583D01*
X0160683Y0048722D01*
X0160697Y0048861D01*
X0160715Y0049000D01*
X0160736Y0049138D01*
X0160762Y0049276D01*
X0160792Y0049413D01*
X0160825Y0049548D01*
X0160863Y0049683D01*
X0160904Y0049817D01*
X0160949Y0049950D01*
X0160997Y0050081D01*
X0161050Y0050210D01*
X0161106Y0050339D01*
X0161165Y0050465D01*
X0161229Y0050590D01*
X0161295Y0050713D01*
X0161366Y0050834D01*
X0161439Y0050953D01*
X0161516Y0051070D01*
X0161597Y0051184D01*
X0161680Y0051296D01*
X0161767Y0051406D01*
X0161857Y0051514D01*
X0161949Y0051618D01*
X0162045Y0051720D01*
X0162144Y0051820D01*
X0162245Y0051916D01*
X0162349Y0052010D01*
X0162456Y0052100D01*
X0162565Y0052187D01*
X0162677Y0052272D01*
X0162791Y0052353D01*
X0162907Y0052431D01*
X0163025Y0052505D01*
X0163146Y0052576D01*
X0163268Y0052644D01*
X0163393Y0052708D01*
X0163519Y0052769D01*
X0163646Y0052826D01*
X0163776Y0052879D01*
X0163907Y0052929D01*
X0164039Y0052974D01*
X0164172Y0053017D01*
X0164307Y0053055D01*
X0164442Y0053089D01*
X0164579Y0053120D01*
X0164716Y0053147D01*
X0164854Y0053169D01*
X0164993Y0053188D01*
X0165132Y0053203D01*
X0165271Y0053214D01*
X0165411Y0053221D01*
X0165551Y0053224D01*
X0165691Y0053223D01*
X0165831Y0053218D01*
X0165970Y0053209D01*
X0166110Y0053196D01*
X0166249Y0053179D01*
X0166387Y0053158D01*
X0166525Y0053134D01*
X0166662Y0053105D01*
X0166798Y0053073D01*
X0166933Y0053036D01*
X0167067Y0052996D01*
X0167200Y0052952D01*
X0167331Y0052904D01*
X0167461Y0052853D01*
X0167590Y0052798D01*
X0167717Y0052739D01*
X0167842Y0052676D01*
X0167965Y0052611D01*
X0168087Y0052541D01*
X0168206Y0052468D01*
X0168324Y0052392D01*
X0168439Y0052313D01*
X0168552Y0052230D01*
X0168662Y0052144D01*
X0168770Y0052055D01*
X0168875Y0051963D01*
X0168978Y0051868D01*
X0169078Y0051770D01*
X0169175Y0051670D01*
X0169269Y0051566D01*
X0169361Y0051460D01*
X0169449Y0051352D01*
X0169534Y0051241D01*
X0169616Y0051127D01*
X0169695Y0051011D01*
X0169770Y0050894D01*
X0169842Y0050774D01*
X0169910Y0050652D01*
X0169975Y0050528D01*
X0170037Y0050402D01*
X0170095Y0050275D01*
X0170149Y0050146D01*
X0170200Y0050015D01*
X0170246Y0049883D01*
X0170289Y0049750D01*
X0170329Y0049616D01*
X0170364Y0049481D01*
X0170396Y0049344D01*
X0170423Y0049207D01*
X0170447Y0049069D01*
X0170467Y0048931D01*
X0170483Y0048792D01*
X0170495Y0048652D01*
X0170503Y0048513D01*
X0170507Y0048373D01*
X0170507Y0048233D01*
X0170503Y0048093D01*
X0170495Y0047954D01*
X0170483Y0047814D01*
X0170467Y0047675D01*
X0170447Y0047537D01*
X0170423Y0047399D01*
X0170396Y0047262D01*
X0170364Y0047125D01*
X0170329Y0046990D01*
X0170289Y0046856D01*
X0170246Y0046723D01*
X0170200Y0046591D01*
X0170149Y0046460D01*
X0170095Y0046331D01*
X0170037Y0046204D01*
X0169975Y0046078D01*
X0169910Y0045954D01*
X0169842Y0045832D01*
X0169770Y0045712D01*
X0169695Y0045595D01*
X0169616Y0045479D01*
X0169534Y0045365D01*
X0169449Y0045254D01*
X0169361Y0045146D01*
X0169269Y0045040D01*
X0169175Y0044936D01*
X0169078Y0044836D01*
X0168978Y0044738D01*
X0168875Y0044643D01*
X0168770Y0044551D01*
X0168662Y0044462D01*
X0168552Y0044376D01*
X0168439Y0044293D01*
X0168324Y0044214D01*
X0168206Y0044138D01*
X0168087Y0044065D01*
X0167965Y0043995D01*
X0167842Y0043930D01*
X0167717Y0043867D01*
X0167590Y0043808D01*
X0167461Y0043753D01*
X0167331Y0043702D01*
X0167200Y0043654D01*
X0167067Y0043610D01*
X0166933Y0043570D01*
X0166798Y0043533D01*
X0166662Y0043501D01*
X0166525Y0043472D01*
X0166387Y0043448D01*
X0166249Y0043427D01*
X0166110Y0043410D01*
X0165970Y0043397D01*
X0165831Y0043388D01*
X0165691Y0043383D01*
X0165551Y0043382D01*
X0165411Y0043385D01*
X0165271Y0043392D01*
X0165132Y0043403D01*
X0164993Y0043418D01*
X0164854Y0043437D01*
X0164716Y0043459D01*
X0164579Y0043486D01*
X0164442Y0043517D01*
X0164307Y0043551D01*
X0164172Y0043589D01*
X0164039Y0043632D01*
X0163907Y0043677D01*
X0163776Y0043727D01*
X0163646Y0043780D01*
X0163519Y0043837D01*
X0163393Y0043898D01*
X0163268Y0043962D01*
X0163146Y0044030D01*
X0163025Y0044101D01*
X0162907Y0044175D01*
X0162791Y0044253D01*
X0162677Y0044334D01*
X0162565Y0044419D01*
X0162456Y0044506D01*
X0162349Y0044596D01*
X0162245Y0044690D01*
X0162144Y0044786D01*
X0162045Y0044886D01*
X0161949Y0044988D01*
X0161857Y0045092D01*
X0161767Y0045200D01*
X0161680Y0045310D01*
X0161597Y0045422D01*
X0161516Y0045536D01*
X0161439Y0045653D01*
X0161366Y0045772D01*
X0161295Y0045893D01*
X0161229Y0046016D01*
X0161165Y0046141D01*
X0161106Y0046267D01*
X0161050Y0046396D01*
X0160997Y0046525D01*
X0160949Y0046656D01*
X0160904Y0046789D01*
X0160863Y0046923D01*
X0160825Y0047058D01*
X0160792Y0047193D01*
X0160762Y0047330D01*
X0160736Y0047468D01*
X0160715Y0047606D01*
X0160697Y0047745D01*
X0160683Y0047884D01*
X0160673Y0048023D01*
X0160667Y0048163D01*
X0160665Y0048303D01*
X0111452Y0039445D02*
X0093735Y0039445D01*
X0093735Y0057161D01*
X0111452Y0057161D01*
X0111452Y0039445D01*
X0097673Y0048303D02*
X0097675Y0048443D01*
X0097681Y0048583D01*
X0097691Y0048722D01*
X0097705Y0048861D01*
X0097723Y0049000D01*
X0097744Y0049138D01*
X0097770Y0049276D01*
X0097800Y0049413D01*
X0097833Y0049548D01*
X0097871Y0049683D01*
X0097912Y0049817D01*
X0097957Y0049950D01*
X0098005Y0050081D01*
X0098058Y0050210D01*
X0098114Y0050339D01*
X0098173Y0050465D01*
X0098237Y0050590D01*
X0098303Y0050713D01*
X0098374Y0050834D01*
X0098447Y0050953D01*
X0098524Y0051070D01*
X0098605Y0051184D01*
X0098688Y0051296D01*
X0098775Y0051406D01*
X0098865Y0051514D01*
X0098957Y0051618D01*
X0099053Y0051720D01*
X0099152Y0051820D01*
X0099253Y0051916D01*
X0099357Y0052010D01*
X0099464Y0052100D01*
X0099573Y0052187D01*
X0099685Y0052272D01*
X0099799Y0052353D01*
X0099915Y0052431D01*
X0100033Y0052505D01*
X0100154Y0052576D01*
X0100276Y0052644D01*
X0100401Y0052708D01*
X0100527Y0052769D01*
X0100654Y0052826D01*
X0100784Y0052879D01*
X0100915Y0052929D01*
X0101047Y0052974D01*
X0101180Y0053017D01*
X0101315Y0053055D01*
X0101450Y0053089D01*
X0101587Y0053120D01*
X0101724Y0053147D01*
X0101862Y0053169D01*
X0102001Y0053188D01*
X0102140Y0053203D01*
X0102279Y0053214D01*
X0102419Y0053221D01*
X0102559Y0053224D01*
X0102699Y0053223D01*
X0102839Y0053218D01*
X0102978Y0053209D01*
X0103118Y0053196D01*
X0103257Y0053179D01*
X0103395Y0053158D01*
X0103533Y0053134D01*
X0103670Y0053105D01*
X0103806Y0053073D01*
X0103941Y0053036D01*
X0104075Y0052996D01*
X0104208Y0052952D01*
X0104339Y0052904D01*
X0104469Y0052853D01*
X0104598Y0052798D01*
X0104725Y0052739D01*
X0104850Y0052676D01*
X0104973Y0052611D01*
X0105095Y0052541D01*
X0105214Y0052468D01*
X0105332Y0052392D01*
X0105447Y0052313D01*
X0105560Y0052230D01*
X0105670Y0052144D01*
X0105778Y0052055D01*
X0105883Y0051963D01*
X0105986Y0051868D01*
X0106086Y0051770D01*
X0106183Y0051670D01*
X0106277Y0051566D01*
X0106369Y0051460D01*
X0106457Y0051352D01*
X0106542Y0051241D01*
X0106624Y0051127D01*
X0106703Y0051011D01*
X0106778Y0050894D01*
X0106850Y0050774D01*
X0106918Y0050652D01*
X0106983Y0050528D01*
X0107045Y0050402D01*
X0107103Y0050275D01*
X0107157Y0050146D01*
X0107208Y0050015D01*
X0107254Y0049883D01*
X0107297Y0049750D01*
X0107337Y0049616D01*
X0107372Y0049481D01*
X0107404Y0049344D01*
X0107431Y0049207D01*
X0107455Y0049069D01*
X0107475Y0048931D01*
X0107491Y0048792D01*
X0107503Y0048652D01*
X0107511Y0048513D01*
X0107515Y0048373D01*
X0107515Y0048233D01*
X0107511Y0048093D01*
X0107503Y0047954D01*
X0107491Y0047814D01*
X0107475Y0047675D01*
X0107455Y0047537D01*
X0107431Y0047399D01*
X0107404Y0047262D01*
X0107372Y0047125D01*
X0107337Y0046990D01*
X0107297Y0046856D01*
X0107254Y0046723D01*
X0107208Y0046591D01*
X0107157Y0046460D01*
X0107103Y0046331D01*
X0107045Y0046204D01*
X0106983Y0046078D01*
X0106918Y0045954D01*
X0106850Y0045832D01*
X0106778Y0045712D01*
X0106703Y0045595D01*
X0106624Y0045479D01*
X0106542Y0045365D01*
X0106457Y0045254D01*
X0106369Y0045146D01*
X0106277Y0045040D01*
X0106183Y0044936D01*
X0106086Y0044836D01*
X0105986Y0044738D01*
X0105883Y0044643D01*
X0105778Y0044551D01*
X0105670Y0044462D01*
X0105560Y0044376D01*
X0105447Y0044293D01*
X0105332Y0044214D01*
X0105214Y0044138D01*
X0105095Y0044065D01*
X0104973Y0043995D01*
X0104850Y0043930D01*
X0104725Y0043867D01*
X0104598Y0043808D01*
X0104469Y0043753D01*
X0104339Y0043702D01*
X0104208Y0043654D01*
X0104075Y0043610D01*
X0103941Y0043570D01*
X0103806Y0043533D01*
X0103670Y0043501D01*
X0103533Y0043472D01*
X0103395Y0043448D01*
X0103257Y0043427D01*
X0103118Y0043410D01*
X0102978Y0043397D01*
X0102839Y0043388D01*
X0102699Y0043383D01*
X0102559Y0043382D01*
X0102419Y0043385D01*
X0102279Y0043392D01*
X0102140Y0043403D01*
X0102001Y0043418D01*
X0101862Y0043437D01*
X0101724Y0043459D01*
X0101587Y0043486D01*
X0101450Y0043517D01*
X0101315Y0043551D01*
X0101180Y0043589D01*
X0101047Y0043632D01*
X0100915Y0043677D01*
X0100784Y0043727D01*
X0100654Y0043780D01*
X0100527Y0043837D01*
X0100401Y0043898D01*
X0100276Y0043962D01*
X0100154Y0044030D01*
X0100033Y0044101D01*
X0099915Y0044175D01*
X0099799Y0044253D01*
X0099685Y0044334D01*
X0099573Y0044419D01*
X0099464Y0044506D01*
X0099357Y0044596D01*
X0099253Y0044690D01*
X0099152Y0044786D01*
X0099053Y0044886D01*
X0098957Y0044988D01*
X0098865Y0045092D01*
X0098775Y0045200D01*
X0098688Y0045310D01*
X0098605Y0045422D01*
X0098524Y0045536D01*
X0098447Y0045653D01*
X0098374Y0045772D01*
X0098303Y0045893D01*
X0098237Y0046016D01*
X0098173Y0046141D01*
X0098114Y0046267D01*
X0098058Y0046396D01*
X0098005Y0046525D01*
X0097957Y0046656D01*
X0097912Y0046789D01*
X0097871Y0046923D01*
X0097833Y0047058D01*
X0097800Y0047193D01*
X0097770Y0047330D01*
X0097744Y0047468D01*
X0097723Y0047606D01*
X0097705Y0047745D01*
X0097691Y0047884D01*
X0097681Y0048023D01*
X0097675Y0048163D01*
X0097673Y0048303D01*
D23*
X0376708Y0133539D03*
X0379661Y0133539D03*
D24*
X0059927Y0227856D02*
X0058926Y0227856D01*
X0059427Y0227856D02*
X0059427Y0229357D01*
X0058926Y0228856D01*
X0058454Y0229107D02*
X0058204Y0229357D01*
X0057703Y0229357D01*
X0057453Y0229107D01*
X0057453Y0228106D01*
X0057703Y0227856D01*
X0058204Y0227856D01*
X0058454Y0228106D01*
X0056981Y0228106D02*
X0056730Y0227856D01*
X0056230Y0227856D01*
X0055980Y0228106D01*
X0055980Y0229107D01*
X0056230Y0229357D01*
X0056730Y0229357D01*
X0056981Y0229107D01*
X0055507Y0229357D02*
X0054507Y0229357D01*
X0054507Y0227856D01*
X0055507Y0227856D01*
X0055007Y0228606D02*
X0054507Y0228606D01*
D25*
X0330493Y0043977D02*
X0331110Y0042743D01*
X0332344Y0041508D01*
X0332344Y0043360D01*
X0332961Y0043977D01*
X0333578Y0043977D01*
X0334196Y0043360D01*
X0334196Y0042126D01*
X0333578Y0041508D01*
X0332344Y0041508D01*
X0331727Y0040294D02*
X0332344Y0039677D01*
X0332961Y0040294D01*
X0333578Y0040294D01*
X0334196Y0039677D01*
X0334196Y0038442D01*
X0333578Y0037825D01*
X0334196Y0036611D02*
X0332961Y0035377D01*
X0332961Y0035994D02*
X0332961Y0034142D01*
X0334196Y0034142D02*
X0330493Y0034142D01*
X0330493Y0035994D01*
X0331110Y0036611D01*
X0332344Y0036611D01*
X0332961Y0035994D01*
X0331110Y0037825D02*
X0330493Y0038442D01*
X0330493Y0039677D01*
X0331110Y0040294D01*
X0331727Y0040294D01*
X0332344Y0039677D02*
X0332344Y0039060D01*
X0352540Y0039230D02*
X0352540Y0040464D01*
X0353157Y0041081D01*
X0353774Y0041081D01*
X0354391Y0040464D01*
X0355009Y0041081D01*
X0355626Y0041081D01*
X0356243Y0040464D01*
X0356243Y0039230D01*
X0355626Y0038613D01*
X0356243Y0037398D02*
X0355009Y0036164D01*
X0355009Y0036781D02*
X0355009Y0034930D01*
X0356243Y0034930D02*
X0352540Y0034930D01*
X0352540Y0036781D01*
X0353157Y0037398D01*
X0354391Y0037398D01*
X0355009Y0036781D01*
X0353157Y0038613D02*
X0352540Y0039230D01*
X0354391Y0039847D02*
X0354391Y0040464D01*
X0354391Y0042296D02*
X0353774Y0043530D01*
X0353774Y0044147D01*
X0354391Y0044765D01*
X0355626Y0044765D01*
X0356243Y0044147D01*
X0356243Y0042913D01*
X0355626Y0042296D01*
X0354391Y0042296D02*
X0352540Y0042296D01*
X0352540Y0044765D01*
X0353386Y0092292D02*
X0350917Y0092292D01*
X0353386Y0094761D01*
X0353386Y0095378D01*
X0352769Y0095995D01*
X0351534Y0095995D01*
X0350917Y0095378D01*
X0349703Y0095378D02*
X0349086Y0095995D01*
X0347851Y0095995D01*
X0347234Y0095378D01*
X0346020Y0095378D02*
X0346020Y0094143D01*
X0345402Y0093526D01*
X0343551Y0093526D01*
X0344785Y0093526D02*
X0346020Y0092292D01*
X0347234Y0092292D02*
X0349703Y0094761D01*
X0349703Y0095378D01*
X0349703Y0092292D02*
X0347234Y0092292D01*
X0346020Y0095378D02*
X0345402Y0095995D01*
X0343551Y0095995D01*
X0343551Y0092292D01*
X0343944Y0102528D02*
X0343944Y0106231D01*
X0345796Y0106231D01*
X0346413Y0105614D01*
X0346413Y0104380D01*
X0345796Y0103762D01*
X0343944Y0103762D01*
X0345179Y0103762D02*
X0346413Y0102528D01*
X0347628Y0102528D02*
X0350096Y0104997D01*
X0350096Y0105614D01*
X0349479Y0106231D01*
X0348245Y0106231D01*
X0347628Y0105614D01*
X0347628Y0102528D02*
X0350096Y0102528D01*
X0351311Y0102528D02*
X0353780Y0102528D01*
X0352545Y0102528D02*
X0352545Y0106231D01*
X0351311Y0104997D01*
D26*
X0236943Y0287132D02*
X0236943Y0290068D01*
X0235475Y0288600D02*
X0238411Y0288600D01*
D27*
X0237686Y0318787D02*
X0237686Y0320655D01*
X0236752Y0321589D01*
X0235817Y0320655D01*
X0235817Y0318787D01*
X0235817Y0320188D02*
X0237686Y0320188D01*
D28*
X0238254Y0312100D02*
X0235785Y0312100D01*
X0284785Y0265100D02*
X0287254Y0265100D01*
D29*
X0287111Y0319850D02*
X0284375Y0319850D01*
M02*
