%
M48
M72
T01C0.01500
T02C0.01969
T03C0.02362
T04C0.03937
T05C0.05906
T06C0.12598
%
T01
X82909Y67988
X90783Y71925
X119523Y67201
X134090Y44366
X197082Y81768
X210861Y56177
X224641Y44366
X296688Y62870
X303381Y67988
X330940Y62083
X350625Y54209
X354562Y48303
X335271Y36098
X313224Y146728
X297476Y154602
X311255Y180193
X313224Y229406
X321098Y227437
X330940Y296335
X267948Y329799
X267554Y249091
X262043Y241217
X246294Y245154
X210861Y223500
X216767Y176256
X171491Y142791
X114405Y156571
X108499Y192004
X134483Y232161
X126216Y235311
X98657Y251059
X75035Y249091
X49444Y225469
X25822Y219563
X96688Y113264
T02
X254169Y361295
X347869Y61689
X374641Y48697
T03
X55350Y34524
X69129Y62083
X59287Y91610
X134090Y77831
X175428Y75862
X258106Y54209
X265980Y69957
X283696Y93579
X265980Y119169
X291570Y134917
X274129Y154602
X311255Y117201
X328972Y101453
X342751Y127043
X372279Y105390
X401806Y117201
X401806Y138854
X374247Y150665
X382121Y188067
X403775Y203815
X395901Y237280
X403775Y254996
X348657Y300272
X323066Y294366
X250231Y327831
X212830Y321925
X197082Y321925
X179365Y321925
X161649Y321925
X139995Y321925
X118342Y321925
X98657Y321925
X49444Y308146
X19917Y317988
X17948Y302240
X61255Y268776
X39602Y246728
X37633Y225075
X12043Y221531
X17948Y190035
X17948Y160508
X61255Y182161
X61255Y199878
X77003Y162476
X102594Y162476
X155743Y197909
X151019Y217594
X165586Y239248
X199050Y235311
X230546Y235311
X254169Y201846
X287633Y237280
X283696Y258933
X319129Y256965
X344720Y253028
X329759Y183343
X218735Y274681
X199050Y282555
X189208Y272713
X206924Y193224
X191176Y164445
X100625Y217594
X326216Y71138
X371491Y69957
X401806Y67988
X297476Y32949
X264011Y34524
X403775Y302240
X380153Y349484
X380153Y359327
T04
X43539Y64169
X43539Y74169
X43539Y84169
X43539Y94169
X43539Y104169
X43539Y114169
X43539Y124169
X43539Y134169
X43539Y144169
X43539Y154169
X43539Y164169
X43539Y174169
X37633Y285272
X37633Y295272
X37633Y305272
X37633Y315272
X238420Y174169
X238420Y164169
X238420Y154169
X238420Y144169
X238420Y134169
X238420Y124169
X238420Y114169
X238420Y104169
X238420Y94169
X238420Y84169
X238420Y74169
X238420Y64169
X364129Y353421
X354129Y353421
X344129Y353421
X334129Y353421
X324129Y353421
X314129Y353421
X304129Y353421
X294129Y353421
X284129Y353421
X274129Y353421
T05
X369523Y303028
X369523Y292398
X369523Y282949
X369523Y273500
X369523Y262870
X369523Y245941
X369523Y235311
X369523Y225862
X369523Y216413
X369523Y205783
X389208Y206177
X389208Y225862
X389208Y245547
X389208Y263264
X389208Y282949
X389208Y302634
T06
X21885Y40429
X21885Y207752
X21885Y331768
X21885Y355390
X317161Y331768
X317161Y207752
X395901Y355390
X395901Y40429
M30
