G75*
%MOIN*%
%OFA0B0*%
%FSLAX25Y25*%
%IPPOS*%
%LPD*%
%AMOC8*
5,1,8,0,0,1.08239X$1,22.5*
%
%ADD10C,0.02400*%
%ADD11C,0.00000*%
%ADD12C,0.13398*%
%ADD13R,0.09855X0.05524*%
%ADD14R,0.05524X0.09855*%
%ADD15R,0.06300X0.02170*%
%ADD16R,0.04737X0.05131*%
%ADD17R,0.08400X0.21800*%
%ADD18R,0.10800X0.05800*%
%ADD19R,0.05131X0.04737*%
%ADD20R,0.07099X0.11036*%
%ADD21R,0.03556X0.03556*%
%ADD22R,0.03950X0.03950*%
%ADD23C,0.02496*%
%ADD24R,0.12600X0.14600*%
%ADD25R,0.14186X0.08280*%
%ADD26R,0.05918X0.15367*%
%ADD27R,0.11036X0.07099*%
%ADD28C,0.06737*%
%ADD29R,0.07099X0.06312*%
%ADD30C,0.00500*%
%ADD31R,0.03200X0.09500*%
%ADD32C,0.10800*%
%ADD33C,0.09658*%
%ADD34C,0.06706*%
%ADD35R,0.08674X0.05800*%
%ADD36R,0.05800X0.09068*%
%ADD37C,0.03900*%
%ADD38C,0.04762*%
%ADD39C,0.04369*%
D10*
X0002200Y0020744D02*
X0415586Y0020744D01*
X0415586Y0375075D01*
X0002200Y0375075D01*
X0002200Y0020744D01*
D11*
X0015586Y0040429D02*
X0015588Y0040587D01*
X0015594Y0040745D01*
X0015604Y0040903D01*
X0015618Y0041061D01*
X0015636Y0041218D01*
X0015657Y0041375D01*
X0015683Y0041531D01*
X0015713Y0041687D01*
X0015746Y0041842D01*
X0015784Y0041995D01*
X0015825Y0042148D01*
X0015870Y0042300D01*
X0015919Y0042451D01*
X0015972Y0042600D01*
X0016028Y0042748D01*
X0016088Y0042894D01*
X0016152Y0043039D01*
X0016220Y0043182D01*
X0016291Y0043324D01*
X0016365Y0043464D01*
X0016443Y0043601D01*
X0016525Y0043737D01*
X0016609Y0043871D01*
X0016698Y0044002D01*
X0016789Y0044131D01*
X0016884Y0044258D01*
X0016981Y0044383D01*
X0017082Y0044505D01*
X0017186Y0044624D01*
X0017293Y0044741D01*
X0017403Y0044855D01*
X0017516Y0044966D01*
X0017631Y0045075D01*
X0017749Y0045180D01*
X0017870Y0045282D01*
X0017993Y0045382D01*
X0018119Y0045478D01*
X0018247Y0045571D01*
X0018377Y0045661D01*
X0018510Y0045747D01*
X0018645Y0045831D01*
X0018781Y0045910D01*
X0018920Y0045987D01*
X0019061Y0046059D01*
X0019203Y0046129D01*
X0019347Y0046194D01*
X0019493Y0046256D01*
X0019640Y0046314D01*
X0019789Y0046369D01*
X0019939Y0046420D01*
X0020090Y0046467D01*
X0020242Y0046510D01*
X0020395Y0046549D01*
X0020550Y0046585D01*
X0020705Y0046616D01*
X0020861Y0046644D01*
X0021017Y0046668D01*
X0021174Y0046688D01*
X0021332Y0046704D01*
X0021489Y0046716D01*
X0021648Y0046724D01*
X0021806Y0046728D01*
X0021964Y0046728D01*
X0022122Y0046724D01*
X0022281Y0046716D01*
X0022438Y0046704D01*
X0022596Y0046688D01*
X0022753Y0046668D01*
X0022909Y0046644D01*
X0023065Y0046616D01*
X0023220Y0046585D01*
X0023375Y0046549D01*
X0023528Y0046510D01*
X0023680Y0046467D01*
X0023831Y0046420D01*
X0023981Y0046369D01*
X0024130Y0046314D01*
X0024277Y0046256D01*
X0024423Y0046194D01*
X0024567Y0046129D01*
X0024709Y0046059D01*
X0024850Y0045987D01*
X0024989Y0045910D01*
X0025125Y0045831D01*
X0025260Y0045747D01*
X0025393Y0045661D01*
X0025523Y0045571D01*
X0025651Y0045478D01*
X0025777Y0045382D01*
X0025900Y0045282D01*
X0026021Y0045180D01*
X0026139Y0045075D01*
X0026254Y0044966D01*
X0026367Y0044855D01*
X0026477Y0044741D01*
X0026584Y0044624D01*
X0026688Y0044505D01*
X0026789Y0044383D01*
X0026886Y0044258D01*
X0026981Y0044131D01*
X0027072Y0044002D01*
X0027161Y0043871D01*
X0027245Y0043737D01*
X0027327Y0043601D01*
X0027405Y0043464D01*
X0027479Y0043324D01*
X0027550Y0043182D01*
X0027618Y0043039D01*
X0027682Y0042894D01*
X0027742Y0042748D01*
X0027798Y0042600D01*
X0027851Y0042451D01*
X0027900Y0042300D01*
X0027945Y0042148D01*
X0027986Y0041995D01*
X0028024Y0041842D01*
X0028057Y0041687D01*
X0028087Y0041531D01*
X0028113Y0041375D01*
X0028134Y0041218D01*
X0028152Y0041061D01*
X0028166Y0040903D01*
X0028176Y0040745D01*
X0028182Y0040587D01*
X0028184Y0040429D01*
X0028182Y0040271D01*
X0028176Y0040113D01*
X0028166Y0039955D01*
X0028152Y0039797D01*
X0028134Y0039640D01*
X0028113Y0039483D01*
X0028087Y0039327D01*
X0028057Y0039171D01*
X0028024Y0039016D01*
X0027986Y0038863D01*
X0027945Y0038710D01*
X0027900Y0038558D01*
X0027851Y0038407D01*
X0027798Y0038258D01*
X0027742Y0038110D01*
X0027682Y0037964D01*
X0027618Y0037819D01*
X0027550Y0037676D01*
X0027479Y0037534D01*
X0027405Y0037394D01*
X0027327Y0037257D01*
X0027245Y0037121D01*
X0027161Y0036987D01*
X0027072Y0036856D01*
X0026981Y0036727D01*
X0026886Y0036600D01*
X0026789Y0036475D01*
X0026688Y0036353D01*
X0026584Y0036234D01*
X0026477Y0036117D01*
X0026367Y0036003D01*
X0026254Y0035892D01*
X0026139Y0035783D01*
X0026021Y0035678D01*
X0025900Y0035576D01*
X0025777Y0035476D01*
X0025651Y0035380D01*
X0025523Y0035287D01*
X0025393Y0035197D01*
X0025260Y0035111D01*
X0025125Y0035027D01*
X0024989Y0034948D01*
X0024850Y0034871D01*
X0024709Y0034799D01*
X0024567Y0034729D01*
X0024423Y0034664D01*
X0024277Y0034602D01*
X0024130Y0034544D01*
X0023981Y0034489D01*
X0023831Y0034438D01*
X0023680Y0034391D01*
X0023528Y0034348D01*
X0023375Y0034309D01*
X0023220Y0034273D01*
X0023065Y0034242D01*
X0022909Y0034214D01*
X0022753Y0034190D01*
X0022596Y0034170D01*
X0022438Y0034154D01*
X0022281Y0034142D01*
X0022122Y0034134D01*
X0021964Y0034130D01*
X0021806Y0034130D01*
X0021648Y0034134D01*
X0021489Y0034142D01*
X0021332Y0034154D01*
X0021174Y0034170D01*
X0021017Y0034190D01*
X0020861Y0034214D01*
X0020705Y0034242D01*
X0020550Y0034273D01*
X0020395Y0034309D01*
X0020242Y0034348D01*
X0020090Y0034391D01*
X0019939Y0034438D01*
X0019789Y0034489D01*
X0019640Y0034544D01*
X0019493Y0034602D01*
X0019347Y0034664D01*
X0019203Y0034729D01*
X0019061Y0034799D01*
X0018920Y0034871D01*
X0018781Y0034948D01*
X0018645Y0035027D01*
X0018510Y0035111D01*
X0018377Y0035197D01*
X0018247Y0035287D01*
X0018119Y0035380D01*
X0017993Y0035476D01*
X0017870Y0035576D01*
X0017749Y0035678D01*
X0017631Y0035783D01*
X0017516Y0035892D01*
X0017403Y0036003D01*
X0017293Y0036117D01*
X0017186Y0036234D01*
X0017082Y0036353D01*
X0016981Y0036475D01*
X0016884Y0036600D01*
X0016789Y0036727D01*
X0016698Y0036856D01*
X0016609Y0036987D01*
X0016525Y0037121D01*
X0016443Y0037257D01*
X0016365Y0037394D01*
X0016291Y0037534D01*
X0016220Y0037676D01*
X0016152Y0037819D01*
X0016088Y0037964D01*
X0016028Y0038110D01*
X0015972Y0038258D01*
X0015919Y0038407D01*
X0015870Y0038558D01*
X0015825Y0038710D01*
X0015784Y0038863D01*
X0015746Y0039016D01*
X0015713Y0039171D01*
X0015683Y0039327D01*
X0015657Y0039483D01*
X0015636Y0039640D01*
X0015618Y0039797D01*
X0015604Y0039955D01*
X0015594Y0040113D01*
X0015588Y0040271D01*
X0015586Y0040429D01*
X0015586Y0207752D02*
X0015588Y0207910D01*
X0015594Y0208068D01*
X0015604Y0208226D01*
X0015618Y0208384D01*
X0015636Y0208541D01*
X0015657Y0208698D01*
X0015683Y0208854D01*
X0015713Y0209010D01*
X0015746Y0209165D01*
X0015784Y0209318D01*
X0015825Y0209471D01*
X0015870Y0209623D01*
X0015919Y0209774D01*
X0015972Y0209923D01*
X0016028Y0210071D01*
X0016088Y0210217D01*
X0016152Y0210362D01*
X0016220Y0210505D01*
X0016291Y0210647D01*
X0016365Y0210787D01*
X0016443Y0210924D01*
X0016525Y0211060D01*
X0016609Y0211194D01*
X0016698Y0211325D01*
X0016789Y0211454D01*
X0016884Y0211581D01*
X0016981Y0211706D01*
X0017082Y0211828D01*
X0017186Y0211947D01*
X0017293Y0212064D01*
X0017403Y0212178D01*
X0017516Y0212289D01*
X0017631Y0212398D01*
X0017749Y0212503D01*
X0017870Y0212605D01*
X0017993Y0212705D01*
X0018119Y0212801D01*
X0018247Y0212894D01*
X0018377Y0212984D01*
X0018510Y0213070D01*
X0018645Y0213154D01*
X0018781Y0213233D01*
X0018920Y0213310D01*
X0019061Y0213382D01*
X0019203Y0213452D01*
X0019347Y0213517D01*
X0019493Y0213579D01*
X0019640Y0213637D01*
X0019789Y0213692D01*
X0019939Y0213743D01*
X0020090Y0213790D01*
X0020242Y0213833D01*
X0020395Y0213872D01*
X0020550Y0213908D01*
X0020705Y0213939D01*
X0020861Y0213967D01*
X0021017Y0213991D01*
X0021174Y0214011D01*
X0021332Y0214027D01*
X0021489Y0214039D01*
X0021648Y0214047D01*
X0021806Y0214051D01*
X0021964Y0214051D01*
X0022122Y0214047D01*
X0022281Y0214039D01*
X0022438Y0214027D01*
X0022596Y0214011D01*
X0022753Y0213991D01*
X0022909Y0213967D01*
X0023065Y0213939D01*
X0023220Y0213908D01*
X0023375Y0213872D01*
X0023528Y0213833D01*
X0023680Y0213790D01*
X0023831Y0213743D01*
X0023981Y0213692D01*
X0024130Y0213637D01*
X0024277Y0213579D01*
X0024423Y0213517D01*
X0024567Y0213452D01*
X0024709Y0213382D01*
X0024850Y0213310D01*
X0024989Y0213233D01*
X0025125Y0213154D01*
X0025260Y0213070D01*
X0025393Y0212984D01*
X0025523Y0212894D01*
X0025651Y0212801D01*
X0025777Y0212705D01*
X0025900Y0212605D01*
X0026021Y0212503D01*
X0026139Y0212398D01*
X0026254Y0212289D01*
X0026367Y0212178D01*
X0026477Y0212064D01*
X0026584Y0211947D01*
X0026688Y0211828D01*
X0026789Y0211706D01*
X0026886Y0211581D01*
X0026981Y0211454D01*
X0027072Y0211325D01*
X0027161Y0211194D01*
X0027245Y0211060D01*
X0027327Y0210924D01*
X0027405Y0210787D01*
X0027479Y0210647D01*
X0027550Y0210505D01*
X0027618Y0210362D01*
X0027682Y0210217D01*
X0027742Y0210071D01*
X0027798Y0209923D01*
X0027851Y0209774D01*
X0027900Y0209623D01*
X0027945Y0209471D01*
X0027986Y0209318D01*
X0028024Y0209165D01*
X0028057Y0209010D01*
X0028087Y0208854D01*
X0028113Y0208698D01*
X0028134Y0208541D01*
X0028152Y0208384D01*
X0028166Y0208226D01*
X0028176Y0208068D01*
X0028182Y0207910D01*
X0028184Y0207752D01*
X0028182Y0207594D01*
X0028176Y0207436D01*
X0028166Y0207278D01*
X0028152Y0207120D01*
X0028134Y0206963D01*
X0028113Y0206806D01*
X0028087Y0206650D01*
X0028057Y0206494D01*
X0028024Y0206339D01*
X0027986Y0206186D01*
X0027945Y0206033D01*
X0027900Y0205881D01*
X0027851Y0205730D01*
X0027798Y0205581D01*
X0027742Y0205433D01*
X0027682Y0205287D01*
X0027618Y0205142D01*
X0027550Y0204999D01*
X0027479Y0204857D01*
X0027405Y0204717D01*
X0027327Y0204580D01*
X0027245Y0204444D01*
X0027161Y0204310D01*
X0027072Y0204179D01*
X0026981Y0204050D01*
X0026886Y0203923D01*
X0026789Y0203798D01*
X0026688Y0203676D01*
X0026584Y0203557D01*
X0026477Y0203440D01*
X0026367Y0203326D01*
X0026254Y0203215D01*
X0026139Y0203106D01*
X0026021Y0203001D01*
X0025900Y0202899D01*
X0025777Y0202799D01*
X0025651Y0202703D01*
X0025523Y0202610D01*
X0025393Y0202520D01*
X0025260Y0202434D01*
X0025125Y0202350D01*
X0024989Y0202271D01*
X0024850Y0202194D01*
X0024709Y0202122D01*
X0024567Y0202052D01*
X0024423Y0201987D01*
X0024277Y0201925D01*
X0024130Y0201867D01*
X0023981Y0201812D01*
X0023831Y0201761D01*
X0023680Y0201714D01*
X0023528Y0201671D01*
X0023375Y0201632D01*
X0023220Y0201596D01*
X0023065Y0201565D01*
X0022909Y0201537D01*
X0022753Y0201513D01*
X0022596Y0201493D01*
X0022438Y0201477D01*
X0022281Y0201465D01*
X0022122Y0201457D01*
X0021964Y0201453D01*
X0021806Y0201453D01*
X0021648Y0201457D01*
X0021489Y0201465D01*
X0021332Y0201477D01*
X0021174Y0201493D01*
X0021017Y0201513D01*
X0020861Y0201537D01*
X0020705Y0201565D01*
X0020550Y0201596D01*
X0020395Y0201632D01*
X0020242Y0201671D01*
X0020090Y0201714D01*
X0019939Y0201761D01*
X0019789Y0201812D01*
X0019640Y0201867D01*
X0019493Y0201925D01*
X0019347Y0201987D01*
X0019203Y0202052D01*
X0019061Y0202122D01*
X0018920Y0202194D01*
X0018781Y0202271D01*
X0018645Y0202350D01*
X0018510Y0202434D01*
X0018377Y0202520D01*
X0018247Y0202610D01*
X0018119Y0202703D01*
X0017993Y0202799D01*
X0017870Y0202899D01*
X0017749Y0203001D01*
X0017631Y0203106D01*
X0017516Y0203215D01*
X0017403Y0203326D01*
X0017293Y0203440D01*
X0017186Y0203557D01*
X0017082Y0203676D01*
X0016981Y0203798D01*
X0016884Y0203923D01*
X0016789Y0204050D01*
X0016698Y0204179D01*
X0016609Y0204310D01*
X0016525Y0204444D01*
X0016443Y0204580D01*
X0016365Y0204717D01*
X0016291Y0204857D01*
X0016220Y0204999D01*
X0016152Y0205142D01*
X0016088Y0205287D01*
X0016028Y0205433D01*
X0015972Y0205581D01*
X0015919Y0205730D01*
X0015870Y0205881D01*
X0015825Y0206033D01*
X0015784Y0206186D01*
X0015746Y0206339D01*
X0015713Y0206494D01*
X0015683Y0206650D01*
X0015657Y0206806D01*
X0015636Y0206963D01*
X0015618Y0207120D01*
X0015604Y0207278D01*
X0015594Y0207436D01*
X0015588Y0207594D01*
X0015586Y0207752D01*
X0015586Y0331768D02*
X0015588Y0331926D01*
X0015594Y0332084D01*
X0015604Y0332242D01*
X0015618Y0332400D01*
X0015636Y0332557D01*
X0015657Y0332714D01*
X0015683Y0332870D01*
X0015713Y0333026D01*
X0015746Y0333181D01*
X0015784Y0333334D01*
X0015825Y0333487D01*
X0015870Y0333639D01*
X0015919Y0333790D01*
X0015972Y0333939D01*
X0016028Y0334087D01*
X0016088Y0334233D01*
X0016152Y0334378D01*
X0016220Y0334521D01*
X0016291Y0334663D01*
X0016365Y0334803D01*
X0016443Y0334940D01*
X0016525Y0335076D01*
X0016609Y0335210D01*
X0016698Y0335341D01*
X0016789Y0335470D01*
X0016884Y0335597D01*
X0016981Y0335722D01*
X0017082Y0335844D01*
X0017186Y0335963D01*
X0017293Y0336080D01*
X0017403Y0336194D01*
X0017516Y0336305D01*
X0017631Y0336414D01*
X0017749Y0336519D01*
X0017870Y0336621D01*
X0017993Y0336721D01*
X0018119Y0336817D01*
X0018247Y0336910D01*
X0018377Y0337000D01*
X0018510Y0337086D01*
X0018645Y0337170D01*
X0018781Y0337249D01*
X0018920Y0337326D01*
X0019061Y0337398D01*
X0019203Y0337468D01*
X0019347Y0337533D01*
X0019493Y0337595D01*
X0019640Y0337653D01*
X0019789Y0337708D01*
X0019939Y0337759D01*
X0020090Y0337806D01*
X0020242Y0337849D01*
X0020395Y0337888D01*
X0020550Y0337924D01*
X0020705Y0337955D01*
X0020861Y0337983D01*
X0021017Y0338007D01*
X0021174Y0338027D01*
X0021332Y0338043D01*
X0021489Y0338055D01*
X0021648Y0338063D01*
X0021806Y0338067D01*
X0021964Y0338067D01*
X0022122Y0338063D01*
X0022281Y0338055D01*
X0022438Y0338043D01*
X0022596Y0338027D01*
X0022753Y0338007D01*
X0022909Y0337983D01*
X0023065Y0337955D01*
X0023220Y0337924D01*
X0023375Y0337888D01*
X0023528Y0337849D01*
X0023680Y0337806D01*
X0023831Y0337759D01*
X0023981Y0337708D01*
X0024130Y0337653D01*
X0024277Y0337595D01*
X0024423Y0337533D01*
X0024567Y0337468D01*
X0024709Y0337398D01*
X0024850Y0337326D01*
X0024989Y0337249D01*
X0025125Y0337170D01*
X0025260Y0337086D01*
X0025393Y0337000D01*
X0025523Y0336910D01*
X0025651Y0336817D01*
X0025777Y0336721D01*
X0025900Y0336621D01*
X0026021Y0336519D01*
X0026139Y0336414D01*
X0026254Y0336305D01*
X0026367Y0336194D01*
X0026477Y0336080D01*
X0026584Y0335963D01*
X0026688Y0335844D01*
X0026789Y0335722D01*
X0026886Y0335597D01*
X0026981Y0335470D01*
X0027072Y0335341D01*
X0027161Y0335210D01*
X0027245Y0335076D01*
X0027327Y0334940D01*
X0027405Y0334803D01*
X0027479Y0334663D01*
X0027550Y0334521D01*
X0027618Y0334378D01*
X0027682Y0334233D01*
X0027742Y0334087D01*
X0027798Y0333939D01*
X0027851Y0333790D01*
X0027900Y0333639D01*
X0027945Y0333487D01*
X0027986Y0333334D01*
X0028024Y0333181D01*
X0028057Y0333026D01*
X0028087Y0332870D01*
X0028113Y0332714D01*
X0028134Y0332557D01*
X0028152Y0332400D01*
X0028166Y0332242D01*
X0028176Y0332084D01*
X0028182Y0331926D01*
X0028184Y0331768D01*
X0028182Y0331610D01*
X0028176Y0331452D01*
X0028166Y0331294D01*
X0028152Y0331136D01*
X0028134Y0330979D01*
X0028113Y0330822D01*
X0028087Y0330666D01*
X0028057Y0330510D01*
X0028024Y0330355D01*
X0027986Y0330202D01*
X0027945Y0330049D01*
X0027900Y0329897D01*
X0027851Y0329746D01*
X0027798Y0329597D01*
X0027742Y0329449D01*
X0027682Y0329303D01*
X0027618Y0329158D01*
X0027550Y0329015D01*
X0027479Y0328873D01*
X0027405Y0328733D01*
X0027327Y0328596D01*
X0027245Y0328460D01*
X0027161Y0328326D01*
X0027072Y0328195D01*
X0026981Y0328066D01*
X0026886Y0327939D01*
X0026789Y0327814D01*
X0026688Y0327692D01*
X0026584Y0327573D01*
X0026477Y0327456D01*
X0026367Y0327342D01*
X0026254Y0327231D01*
X0026139Y0327122D01*
X0026021Y0327017D01*
X0025900Y0326915D01*
X0025777Y0326815D01*
X0025651Y0326719D01*
X0025523Y0326626D01*
X0025393Y0326536D01*
X0025260Y0326450D01*
X0025125Y0326366D01*
X0024989Y0326287D01*
X0024850Y0326210D01*
X0024709Y0326138D01*
X0024567Y0326068D01*
X0024423Y0326003D01*
X0024277Y0325941D01*
X0024130Y0325883D01*
X0023981Y0325828D01*
X0023831Y0325777D01*
X0023680Y0325730D01*
X0023528Y0325687D01*
X0023375Y0325648D01*
X0023220Y0325612D01*
X0023065Y0325581D01*
X0022909Y0325553D01*
X0022753Y0325529D01*
X0022596Y0325509D01*
X0022438Y0325493D01*
X0022281Y0325481D01*
X0022122Y0325473D01*
X0021964Y0325469D01*
X0021806Y0325469D01*
X0021648Y0325473D01*
X0021489Y0325481D01*
X0021332Y0325493D01*
X0021174Y0325509D01*
X0021017Y0325529D01*
X0020861Y0325553D01*
X0020705Y0325581D01*
X0020550Y0325612D01*
X0020395Y0325648D01*
X0020242Y0325687D01*
X0020090Y0325730D01*
X0019939Y0325777D01*
X0019789Y0325828D01*
X0019640Y0325883D01*
X0019493Y0325941D01*
X0019347Y0326003D01*
X0019203Y0326068D01*
X0019061Y0326138D01*
X0018920Y0326210D01*
X0018781Y0326287D01*
X0018645Y0326366D01*
X0018510Y0326450D01*
X0018377Y0326536D01*
X0018247Y0326626D01*
X0018119Y0326719D01*
X0017993Y0326815D01*
X0017870Y0326915D01*
X0017749Y0327017D01*
X0017631Y0327122D01*
X0017516Y0327231D01*
X0017403Y0327342D01*
X0017293Y0327456D01*
X0017186Y0327573D01*
X0017082Y0327692D01*
X0016981Y0327814D01*
X0016884Y0327939D01*
X0016789Y0328066D01*
X0016698Y0328195D01*
X0016609Y0328326D01*
X0016525Y0328460D01*
X0016443Y0328596D01*
X0016365Y0328733D01*
X0016291Y0328873D01*
X0016220Y0329015D01*
X0016152Y0329158D01*
X0016088Y0329303D01*
X0016028Y0329449D01*
X0015972Y0329597D01*
X0015919Y0329746D01*
X0015870Y0329897D01*
X0015825Y0330049D01*
X0015784Y0330202D01*
X0015746Y0330355D01*
X0015713Y0330510D01*
X0015683Y0330666D01*
X0015657Y0330822D01*
X0015636Y0330979D01*
X0015618Y0331136D01*
X0015604Y0331294D01*
X0015594Y0331452D01*
X0015588Y0331610D01*
X0015586Y0331768D01*
X0015586Y0355390D02*
X0015588Y0355548D01*
X0015594Y0355706D01*
X0015604Y0355864D01*
X0015618Y0356022D01*
X0015636Y0356179D01*
X0015657Y0356336D01*
X0015683Y0356492D01*
X0015713Y0356648D01*
X0015746Y0356803D01*
X0015784Y0356956D01*
X0015825Y0357109D01*
X0015870Y0357261D01*
X0015919Y0357412D01*
X0015972Y0357561D01*
X0016028Y0357709D01*
X0016088Y0357855D01*
X0016152Y0358000D01*
X0016220Y0358143D01*
X0016291Y0358285D01*
X0016365Y0358425D01*
X0016443Y0358562D01*
X0016525Y0358698D01*
X0016609Y0358832D01*
X0016698Y0358963D01*
X0016789Y0359092D01*
X0016884Y0359219D01*
X0016981Y0359344D01*
X0017082Y0359466D01*
X0017186Y0359585D01*
X0017293Y0359702D01*
X0017403Y0359816D01*
X0017516Y0359927D01*
X0017631Y0360036D01*
X0017749Y0360141D01*
X0017870Y0360243D01*
X0017993Y0360343D01*
X0018119Y0360439D01*
X0018247Y0360532D01*
X0018377Y0360622D01*
X0018510Y0360708D01*
X0018645Y0360792D01*
X0018781Y0360871D01*
X0018920Y0360948D01*
X0019061Y0361020D01*
X0019203Y0361090D01*
X0019347Y0361155D01*
X0019493Y0361217D01*
X0019640Y0361275D01*
X0019789Y0361330D01*
X0019939Y0361381D01*
X0020090Y0361428D01*
X0020242Y0361471D01*
X0020395Y0361510D01*
X0020550Y0361546D01*
X0020705Y0361577D01*
X0020861Y0361605D01*
X0021017Y0361629D01*
X0021174Y0361649D01*
X0021332Y0361665D01*
X0021489Y0361677D01*
X0021648Y0361685D01*
X0021806Y0361689D01*
X0021964Y0361689D01*
X0022122Y0361685D01*
X0022281Y0361677D01*
X0022438Y0361665D01*
X0022596Y0361649D01*
X0022753Y0361629D01*
X0022909Y0361605D01*
X0023065Y0361577D01*
X0023220Y0361546D01*
X0023375Y0361510D01*
X0023528Y0361471D01*
X0023680Y0361428D01*
X0023831Y0361381D01*
X0023981Y0361330D01*
X0024130Y0361275D01*
X0024277Y0361217D01*
X0024423Y0361155D01*
X0024567Y0361090D01*
X0024709Y0361020D01*
X0024850Y0360948D01*
X0024989Y0360871D01*
X0025125Y0360792D01*
X0025260Y0360708D01*
X0025393Y0360622D01*
X0025523Y0360532D01*
X0025651Y0360439D01*
X0025777Y0360343D01*
X0025900Y0360243D01*
X0026021Y0360141D01*
X0026139Y0360036D01*
X0026254Y0359927D01*
X0026367Y0359816D01*
X0026477Y0359702D01*
X0026584Y0359585D01*
X0026688Y0359466D01*
X0026789Y0359344D01*
X0026886Y0359219D01*
X0026981Y0359092D01*
X0027072Y0358963D01*
X0027161Y0358832D01*
X0027245Y0358698D01*
X0027327Y0358562D01*
X0027405Y0358425D01*
X0027479Y0358285D01*
X0027550Y0358143D01*
X0027618Y0358000D01*
X0027682Y0357855D01*
X0027742Y0357709D01*
X0027798Y0357561D01*
X0027851Y0357412D01*
X0027900Y0357261D01*
X0027945Y0357109D01*
X0027986Y0356956D01*
X0028024Y0356803D01*
X0028057Y0356648D01*
X0028087Y0356492D01*
X0028113Y0356336D01*
X0028134Y0356179D01*
X0028152Y0356022D01*
X0028166Y0355864D01*
X0028176Y0355706D01*
X0028182Y0355548D01*
X0028184Y0355390D01*
X0028182Y0355232D01*
X0028176Y0355074D01*
X0028166Y0354916D01*
X0028152Y0354758D01*
X0028134Y0354601D01*
X0028113Y0354444D01*
X0028087Y0354288D01*
X0028057Y0354132D01*
X0028024Y0353977D01*
X0027986Y0353824D01*
X0027945Y0353671D01*
X0027900Y0353519D01*
X0027851Y0353368D01*
X0027798Y0353219D01*
X0027742Y0353071D01*
X0027682Y0352925D01*
X0027618Y0352780D01*
X0027550Y0352637D01*
X0027479Y0352495D01*
X0027405Y0352355D01*
X0027327Y0352218D01*
X0027245Y0352082D01*
X0027161Y0351948D01*
X0027072Y0351817D01*
X0026981Y0351688D01*
X0026886Y0351561D01*
X0026789Y0351436D01*
X0026688Y0351314D01*
X0026584Y0351195D01*
X0026477Y0351078D01*
X0026367Y0350964D01*
X0026254Y0350853D01*
X0026139Y0350744D01*
X0026021Y0350639D01*
X0025900Y0350537D01*
X0025777Y0350437D01*
X0025651Y0350341D01*
X0025523Y0350248D01*
X0025393Y0350158D01*
X0025260Y0350072D01*
X0025125Y0349988D01*
X0024989Y0349909D01*
X0024850Y0349832D01*
X0024709Y0349760D01*
X0024567Y0349690D01*
X0024423Y0349625D01*
X0024277Y0349563D01*
X0024130Y0349505D01*
X0023981Y0349450D01*
X0023831Y0349399D01*
X0023680Y0349352D01*
X0023528Y0349309D01*
X0023375Y0349270D01*
X0023220Y0349234D01*
X0023065Y0349203D01*
X0022909Y0349175D01*
X0022753Y0349151D01*
X0022596Y0349131D01*
X0022438Y0349115D01*
X0022281Y0349103D01*
X0022122Y0349095D01*
X0021964Y0349091D01*
X0021806Y0349091D01*
X0021648Y0349095D01*
X0021489Y0349103D01*
X0021332Y0349115D01*
X0021174Y0349131D01*
X0021017Y0349151D01*
X0020861Y0349175D01*
X0020705Y0349203D01*
X0020550Y0349234D01*
X0020395Y0349270D01*
X0020242Y0349309D01*
X0020090Y0349352D01*
X0019939Y0349399D01*
X0019789Y0349450D01*
X0019640Y0349505D01*
X0019493Y0349563D01*
X0019347Y0349625D01*
X0019203Y0349690D01*
X0019061Y0349760D01*
X0018920Y0349832D01*
X0018781Y0349909D01*
X0018645Y0349988D01*
X0018510Y0350072D01*
X0018377Y0350158D01*
X0018247Y0350248D01*
X0018119Y0350341D01*
X0017993Y0350437D01*
X0017870Y0350537D01*
X0017749Y0350639D01*
X0017631Y0350744D01*
X0017516Y0350853D01*
X0017403Y0350964D01*
X0017293Y0351078D01*
X0017186Y0351195D01*
X0017082Y0351314D01*
X0016981Y0351436D01*
X0016884Y0351561D01*
X0016789Y0351688D01*
X0016698Y0351817D01*
X0016609Y0351948D01*
X0016525Y0352082D01*
X0016443Y0352218D01*
X0016365Y0352355D01*
X0016291Y0352495D01*
X0016220Y0352637D01*
X0016152Y0352780D01*
X0016088Y0352925D01*
X0016028Y0353071D01*
X0015972Y0353219D01*
X0015919Y0353368D01*
X0015870Y0353519D01*
X0015825Y0353671D01*
X0015784Y0353824D01*
X0015746Y0353977D01*
X0015713Y0354132D01*
X0015683Y0354288D01*
X0015657Y0354444D01*
X0015636Y0354601D01*
X0015618Y0354758D01*
X0015604Y0354916D01*
X0015594Y0355074D01*
X0015588Y0355232D01*
X0015586Y0355390D01*
X0310862Y0331768D02*
X0310864Y0331926D01*
X0310870Y0332084D01*
X0310880Y0332242D01*
X0310894Y0332400D01*
X0310912Y0332557D01*
X0310933Y0332714D01*
X0310959Y0332870D01*
X0310989Y0333026D01*
X0311022Y0333181D01*
X0311060Y0333334D01*
X0311101Y0333487D01*
X0311146Y0333639D01*
X0311195Y0333790D01*
X0311248Y0333939D01*
X0311304Y0334087D01*
X0311364Y0334233D01*
X0311428Y0334378D01*
X0311496Y0334521D01*
X0311567Y0334663D01*
X0311641Y0334803D01*
X0311719Y0334940D01*
X0311801Y0335076D01*
X0311885Y0335210D01*
X0311974Y0335341D01*
X0312065Y0335470D01*
X0312160Y0335597D01*
X0312257Y0335722D01*
X0312358Y0335844D01*
X0312462Y0335963D01*
X0312569Y0336080D01*
X0312679Y0336194D01*
X0312792Y0336305D01*
X0312907Y0336414D01*
X0313025Y0336519D01*
X0313146Y0336621D01*
X0313269Y0336721D01*
X0313395Y0336817D01*
X0313523Y0336910D01*
X0313653Y0337000D01*
X0313786Y0337086D01*
X0313921Y0337170D01*
X0314057Y0337249D01*
X0314196Y0337326D01*
X0314337Y0337398D01*
X0314479Y0337468D01*
X0314623Y0337533D01*
X0314769Y0337595D01*
X0314916Y0337653D01*
X0315065Y0337708D01*
X0315215Y0337759D01*
X0315366Y0337806D01*
X0315518Y0337849D01*
X0315671Y0337888D01*
X0315826Y0337924D01*
X0315981Y0337955D01*
X0316137Y0337983D01*
X0316293Y0338007D01*
X0316450Y0338027D01*
X0316608Y0338043D01*
X0316765Y0338055D01*
X0316924Y0338063D01*
X0317082Y0338067D01*
X0317240Y0338067D01*
X0317398Y0338063D01*
X0317557Y0338055D01*
X0317714Y0338043D01*
X0317872Y0338027D01*
X0318029Y0338007D01*
X0318185Y0337983D01*
X0318341Y0337955D01*
X0318496Y0337924D01*
X0318651Y0337888D01*
X0318804Y0337849D01*
X0318956Y0337806D01*
X0319107Y0337759D01*
X0319257Y0337708D01*
X0319406Y0337653D01*
X0319553Y0337595D01*
X0319699Y0337533D01*
X0319843Y0337468D01*
X0319985Y0337398D01*
X0320126Y0337326D01*
X0320265Y0337249D01*
X0320401Y0337170D01*
X0320536Y0337086D01*
X0320669Y0337000D01*
X0320799Y0336910D01*
X0320927Y0336817D01*
X0321053Y0336721D01*
X0321176Y0336621D01*
X0321297Y0336519D01*
X0321415Y0336414D01*
X0321530Y0336305D01*
X0321643Y0336194D01*
X0321753Y0336080D01*
X0321860Y0335963D01*
X0321964Y0335844D01*
X0322065Y0335722D01*
X0322162Y0335597D01*
X0322257Y0335470D01*
X0322348Y0335341D01*
X0322437Y0335210D01*
X0322521Y0335076D01*
X0322603Y0334940D01*
X0322681Y0334803D01*
X0322755Y0334663D01*
X0322826Y0334521D01*
X0322894Y0334378D01*
X0322958Y0334233D01*
X0323018Y0334087D01*
X0323074Y0333939D01*
X0323127Y0333790D01*
X0323176Y0333639D01*
X0323221Y0333487D01*
X0323262Y0333334D01*
X0323300Y0333181D01*
X0323333Y0333026D01*
X0323363Y0332870D01*
X0323389Y0332714D01*
X0323410Y0332557D01*
X0323428Y0332400D01*
X0323442Y0332242D01*
X0323452Y0332084D01*
X0323458Y0331926D01*
X0323460Y0331768D01*
X0323458Y0331610D01*
X0323452Y0331452D01*
X0323442Y0331294D01*
X0323428Y0331136D01*
X0323410Y0330979D01*
X0323389Y0330822D01*
X0323363Y0330666D01*
X0323333Y0330510D01*
X0323300Y0330355D01*
X0323262Y0330202D01*
X0323221Y0330049D01*
X0323176Y0329897D01*
X0323127Y0329746D01*
X0323074Y0329597D01*
X0323018Y0329449D01*
X0322958Y0329303D01*
X0322894Y0329158D01*
X0322826Y0329015D01*
X0322755Y0328873D01*
X0322681Y0328733D01*
X0322603Y0328596D01*
X0322521Y0328460D01*
X0322437Y0328326D01*
X0322348Y0328195D01*
X0322257Y0328066D01*
X0322162Y0327939D01*
X0322065Y0327814D01*
X0321964Y0327692D01*
X0321860Y0327573D01*
X0321753Y0327456D01*
X0321643Y0327342D01*
X0321530Y0327231D01*
X0321415Y0327122D01*
X0321297Y0327017D01*
X0321176Y0326915D01*
X0321053Y0326815D01*
X0320927Y0326719D01*
X0320799Y0326626D01*
X0320669Y0326536D01*
X0320536Y0326450D01*
X0320401Y0326366D01*
X0320265Y0326287D01*
X0320126Y0326210D01*
X0319985Y0326138D01*
X0319843Y0326068D01*
X0319699Y0326003D01*
X0319553Y0325941D01*
X0319406Y0325883D01*
X0319257Y0325828D01*
X0319107Y0325777D01*
X0318956Y0325730D01*
X0318804Y0325687D01*
X0318651Y0325648D01*
X0318496Y0325612D01*
X0318341Y0325581D01*
X0318185Y0325553D01*
X0318029Y0325529D01*
X0317872Y0325509D01*
X0317714Y0325493D01*
X0317557Y0325481D01*
X0317398Y0325473D01*
X0317240Y0325469D01*
X0317082Y0325469D01*
X0316924Y0325473D01*
X0316765Y0325481D01*
X0316608Y0325493D01*
X0316450Y0325509D01*
X0316293Y0325529D01*
X0316137Y0325553D01*
X0315981Y0325581D01*
X0315826Y0325612D01*
X0315671Y0325648D01*
X0315518Y0325687D01*
X0315366Y0325730D01*
X0315215Y0325777D01*
X0315065Y0325828D01*
X0314916Y0325883D01*
X0314769Y0325941D01*
X0314623Y0326003D01*
X0314479Y0326068D01*
X0314337Y0326138D01*
X0314196Y0326210D01*
X0314057Y0326287D01*
X0313921Y0326366D01*
X0313786Y0326450D01*
X0313653Y0326536D01*
X0313523Y0326626D01*
X0313395Y0326719D01*
X0313269Y0326815D01*
X0313146Y0326915D01*
X0313025Y0327017D01*
X0312907Y0327122D01*
X0312792Y0327231D01*
X0312679Y0327342D01*
X0312569Y0327456D01*
X0312462Y0327573D01*
X0312358Y0327692D01*
X0312257Y0327814D01*
X0312160Y0327939D01*
X0312065Y0328066D01*
X0311974Y0328195D01*
X0311885Y0328326D01*
X0311801Y0328460D01*
X0311719Y0328596D01*
X0311641Y0328733D01*
X0311567Y0328873D01*
X0311496Y0329015D01*
X0311428Y0329158D01*
X0311364Y0329303D01*
X0311304Y0329449D01*
X0311248Y0329597D01*
X0311195Y0329746D01*
X0311146Y0329897D01*
X0311101Y0330049D01*
X0311060Y0330202D01*
X0311022Y0330355D01*
X0310989Y0330510D01*
X0310959Y0330666D01*
X0310933Y0330822D01*
X0310912Y0330979D01*
X0310894Y0331136D01*
X0310880Y0331294D01*
X0310870Y0331452D01*
X0310864Y0331610D01*
X0310862Y0331768D01*
X0366570Y0282949D02*
X0366572Y0283057D01*
X0366578Y0283166D01*
X0366588Y0283274D01*
X0366602Y0283381D01*
X0366620Y0283488D01*
X0366641Y0283595D01*
X0366667Y0283700D01*
X0366697Y0283805D01*
X0366730Y0283908D01*
X0366767Y0284010D01*
X0366808Y0284110D01*
X0366852Y0284209D01*
X0366901Y0284307D01*
X0366952Y0284402D01*
X0367007Y0284495D01*
X0367066Y0284587D01*
X0367128Y0284676D01*
X0367193Y0284763D01*
X0367261Y0284847D01*
X0367332Y0284929D01*
X0367406Y0285008D01*
X0367483Y0285084D01*
X0367563Y0285158D01*
X0367646Y0285228D01*
X0367731Y0285296D01*
X0367818Y0285360D01*
X0367908Y0285421D01*
X0368000Y0285479D01*
X0368094Y0285533D01*
X0368190Y0285584D01*
X0368287Y0285631D01*
X0368387Y0285675D01*
X0368488Y0285715D01*
X0368590Y0285751D01*
X0368693Y0285783D01*
X0368798Y0285812D01*
X0368904Y0285836D01*
X0369010Y0285857D01*
X0369117Y0285874D01*
X0369225Y0285887D01*
X0369333Y0285896D01*
X0369442Y0285901D01*
X0369550Y0285902D01*
X0369659Y0285899D01*
X0369767Y0285892D01*
X0369875Y0285881D01*
X0369982Y0285866D01*
X0370089Y0285847D01*
X0370195Y0285824D01*
X0370300Y0285798D01*
X0370405Y0285767D01*
X0370507Y0285733D01*
X0370609Y0285695D01*
X0370709Y0285653D01*
X0370808Y0285608D01*
X0370905Y0285559D01*
X0370999Y0285506D01*
X0371092Y0285450D01*
X0371183Y0285391D01*
X0371272Y0285328D01*
X0371358Y0285263D01*
X0371442Y0285194D01*
X0371523Y0285122D01*
X0371601Y0285047D01*
X0371677Y0284969D01*
X0371750Y0284888D01*
X0371820Y0284805D01*
X0371886Y0284720D01*
X0371950Y0284632D01*
X0372010Y0284541D01*
X0372067Y0284449D01*
X0372120Y0284354D01*
X0372170Y0284258D01*
X0372216Y0284160D01*
X0372259Y0284060D01*
X0372298Y0283959D01*
X0372333Y0283856D01*
X0372365Y0283753D01*
X0372392Y0283648D01*
X0372416Y0283542D01*
X0372436Y0283435D01*
X0372452Y0283328D01*
X0372464Y0283220D01*
X0372472Y0283112D01*
X0372476Y0283003D01*
X0372476Y0282895D01*
X0372472Y0282786D01*
X0372464Y0282678D01*
X0372452Y0282570D01*
X0372436Y0282463D01*
X0372416Y0282356D01*
X0372392Y0282250D01*
X0372365Y0282145D01*
X0372333Y0282042D01*
X0372298Y0281939D01*
X0372259Y0281838D01*
X0372216Y0281738D01*
X0372170Y0281640D01*
X0372120Y0281544D01*
X0372067Y0281449D01*
X0372010Y0281357D01*
X0371950Y0281266D01*
X0371886Y0281178D01*
X0371820Y0281093D01*
X0371750Y0281010D01*
X0371677Y0280929D01*
X0371601Y0280851D01*
X0371523Y0280776D01*
X0371442Y0280704D01*
X0371358Y0280635D01*
X0371272Y0280570D01*
X0371183Y0280507D01*
X0371092Y0280448D01*
X0371000Y0280392D01*
X0370905Y0280339D01*
X0370808Y0280290D01*
X0370709Y0280245D01*
X0370609Y0280203D01*
X0370507Y0280165D01*
X0370405Y0280131D01*
X0370300Y0280100D01*
X0370195Y0280074D01*
X0370089Y0280051D01*
X0369982Y0280032D01*
X0369875Y0280017D01*
X0369767Y0280006D01*
X0369659Y0279999D01*
X0369550Y0279996D01*
X0369442Y0279997D01*
X0369333Y0280002D01*
X0369225Y0280011D01*
X0369117Y0280024D01*
X0369010Y0280041D01*
X0368904Y0280062D01*
X0368798Y0280086D01*
X0368693Y0280115D01*
X0368590Y0280147D01*
X0368488Y0280183D01*
X0368387Y0280223D01*
X0368287Y0280267D01*
X0368190Y0280314D01*
X0368094Y0280365D01*
X0368000Y0280419D01*
X0367908Y0280477D01*
X0367818Y0280538D01*
X0367731Y0280602D01*
X0367646Y0280670D01*
X0367563Y0280740D01*
X0367483Y0280814D01*
X0367406Y0280890D01*
X0367332Y0280969D01*
X0367261Y0281051D01*
X0367193Y0281135D01*
X0367128Y0281222D01*
X0367066Y0281311D01*
X0367007Y0281403D01*
X0366952Y0281496D01*
X0366901Y0281591D01*
X0366852Y0281689D01*
X0366808Y0281788D01*
X0366767Y0281888D01*
X0366730Y0281990D01*
X0366697Y0282093D01*
X0366667Y0282198D01*
X0366641Y0282303D01*
X0366620Y0282410D01*
X0366602Y0282517D01*
X0366588Y0282624D01*
X0366578Y0282732D01*
X0366572Y0282841D01*
X0366570Y0282949D01*
X0386255Y0302634D02*
X0386257Y0302742D01*
X0386263Y0302851D01*
X0386273Y0302959D01*
X0386287Y0303066D01*
X0386305Y0303173D01*
X0386326Y0303280D01*
X0386352Y0303385D01*
X0386382Y0303490D01*
X0386415Y0303593D01*
X0386452Y0303695D01*
X0386493Y0303795D01*
X0386537Y0303894D01*
X0386586Y0303992D01*
X0386637Y0304087D01*
X0386692Y0304180D01*
X0386751Y0304272D01*
X0386813Y0304361D01*
X0386878Y0304448D01*
X0386946Y0304532D01*
X0387017Y0304614D01*
X0387091Y0304693D01*
X0387168Y0304769D01*
X0387248Y0304843D01*
X0387331Y0304913D01*
X0387416Y0304981D01*
X0387503Y0305045D01*
X0387593Y0305106D01*
X0387685Y0305164D01*
X0387779Y0305218D01*
X0387875Y0305269D01*
X0387972Y0305316D01*
X0388072Y0305360D01*
X0388173Y0305400D01*
X0388275Y0305436D01*
X0388378Y0305468D01*
X0388483Y0305497D01*
X0388589Y0305521D01*
X0388695Y0305542D01*
X0388802Y0305559D01*
X0388910Y0305572D01*
X0389018Y0305581D01*
X0389127Y0305586D01*
X0389235Y0305587D01*
X0389344Y0305584D01*
X0389452Y0305577D01*
X0389560Y0305566D01*
X0389667Y0305551D01*
X0389774Y0305532D01*
X0389880Y0305509D01*
X0389985Y0305483D01*
X0390090Y0305452D01*
X0390192Y0305418D01*
X0390294Y0305380D01*
X0390394Y0305338D01*
X0390493Y0305293D01*
X0390590Y0305244D01*
X0390684Y0305191D01*
X0390777Y0305135D01*
X0390868Y0305076D01*
X0390957Y0305013D01*
X0391043Y0304948D01*
X0391127Y0304879D01*
X0391208Y0304807D01*
X0391286Y0304732D01*
X0391362Y0304654D01*
X0391435Y0304573D01*
X0391505Y0304490D01*
X0391571Y0304405D01*
X0391635Y0304317D01*
X0391695Y0304226D01*
X0391752Y0304134D01*
X0391805Y0304039D01*
X0391855Y0303943D01*
X0391901Y0303845D01*
X0391944Y0303745D01*
X0391983Y0303644D01*
X0392018Y0303541D01*
X0392050Y0303438D01*
X0392077Y0303333D01*
X0392101Y0303227D01*
X0392121Y0303120D01*
X0392137Y0303013D01*
X0392149Y0302905D01*
X0392157Y0302797D01*
X0392161Y0302688D01*
X0392161Y0302580D01*
X0392157Y0302471D01*
X0392149Y0302363D01*
X0392137Y0302255D01*
X0392121Y0302148D01*
X0392101Y0302041D01*
X0392077Y0301935D01*
X0392050Y0301830D01*
X0392018Y0301727D01*
X0391983Y0301624D01*
X0391944Y0301523D01*
X0391901Y0301423D01*
X0391855Y0301325D01*
X0391805Y0301229D01*
X0391752Y0301134D01*
X0391695Y0301042D01*
X0391635Y0300951D01*
X0391571Y0300863D01*
X0391505Y0300778D01*
X0391435Y0300695D01*
X0391362Y0300614D01*
X0391286Y0300536D01*
X0391208Y0300461D01*
X0391127Y0300389D01*
X0391043Y0300320D01*
X0390957Y0300255D01*
X0390868Y0300192D01*
X0390777Y0300133D01*
X0390685Y0300077D01*
X0390590Y0300024D01*
X0390493Y0299975D01*
X0390394Y0299930D01*
X0390294Y0299888D01*
X0390192Y0299850D01*
X0390090Y0299816D01*
X0389985Y0299785D01*
X0389880Y0299759D01*
X0389774Y0299736D01*
X0389667Y0299717D01*
X0389560Y0299702D01*
X0389452Y0299691D01*
X0389344Y0299684D01*
X0389235Y0299681D01*
X0389127Y0299682D01*
X0389018Y0299687D01*
X0388910Y0299696D01*
X0388802Y0299709D01*
X0388695Y0299726D01*
X0388589Y0299747D01*
X0388483Y0299771D01*
X0388378Y0299800D01*
X0388275Y0299832D01*
X0388173Y0299868D01*
X0388072Y0299908D01*
X0387972Y0299952D01*
X0387875Y0299999D01*
X0387779Y0300050D01*
X0387685Y0300104D01*
X0387593Y0300162D01*
X0387503Y0300223D01*
X0387416Y0300287D01*
X0387331Y0300355D01*
X0387248Y0300425D01*
X0387168Y0300499D01*
X0387091Y0300575D01*
X0387017Y0300654D01*
X0386946Y0300736D01*
X0386878Y0300820D01*
X0386813Y0300907D01*
X0386751Y0300996D01*
X0386692Y0301088D01*
X0386637Y0301181D01*
X0386586Y0301276D01*
X0386537Y0301374D01*
X0386493Y0301473D01*
X0386452Y0301573D01*
X0386415Y0301675D01*
X0386382Y0301778D01*
X0386352Y0301883D01*
X0386326Y0301988D01*
X0386305Y0302095D01*
X0386287Y0302202D01*
X0386273Y0302309D01*
X0386263Y0302417D01*
X0386257Y0302526D01*
X0386255Y0302634D01*
X0386255Y0263264D02*
X0386257Y0263372D01*
X0386263Y0263481D01*
X0386273Y0263589D01*
X0386287Y0263696D01*
X0386305Y0263803D01*
X0386326Y0263910D01*
X0386352Y0264015D01*
X0386382Y0264120D01*
X0386415Y0264223D01*
X0386452Y0264325D01*
X0386493Y0264425D01*
X0386537Y0264524D01*
X0386586Y0264622D01*
X0386637Y0264717D01*
X0386692Y0264810D01*
X0386751Y0264902D01*
X0386813Y0264991D01*
X0386878Y0265078D01*
X0386946Y0265162D01*
X0387017Y0265244D01*
X0387091Y0265323D01*
X0387168Y0265399D01*
X0387248Y0265473D01*
X0387331Y0265543D01*
X0387416Y0265611D01*
X0387503Y0265675D01*
X0387593Y0265736D01*
X0387685Y0265794D01*
X0387779Y0265848D01*
X0387875Y0265899D01*
X0387972Y0265946D01*
X0388072Y0265990D01*
X0388173Y0266030D01*
X0388275Y0266066D01*
X0388378Y0266098D01*
X0388483Y0266127D01*
X0388589Y0266151D01*
X0388695Y0266172D01*
X0388802Y0266189D01*
X0388910Y0266202D01*
X0389018Y0266211D01*
X0389127Y0266216D01*
X0389235Y0266217D01*
X0389344Y0266214D01*
X0389452Y0266207D01*
X0389560Y0266196D01*
X0389667Y0266181D01*
X0389774Y0266162D01*
X0389880Y0266139D01*
X0389985Y0266113D01*
X0390090Y0266082D01*
X0390192Y0266048D01*
X0390294Y0266010D01*
X0390394Y0265968D01*
X0390493Y0265923D01*
X0390590Y0265874D01*
X0390684Y0265821D01*
X0390777Y0265765D01*
X0390868Y0265706D01*
X0390957Y0265643D01*
X0391043Y0265578D01*
X0391127Y0265509D01*
X0391208Y0265437D01*
X0391286Y0265362D01*
X0391362Y0265284D01*
X0391435Y0265203D01*
X0391505Y0265120D01*
X0391571Y0265035D01*
X0391635Y0264947D01*
X0391695Y0264856D01*
X0391752Y0264764D01*
X0391805Y0264669D01*
X0391855Y0264573D01*
X0391901Y0264475D01*
X0391944Y0264375D01*
X0391983Y0264274D01*
X0392018Y0264171D01*
X0392050Y0264068D01*
X0392077Y0263963D01*
X0392101Y0263857D01*
X0392121Y0263750D01*
X0392137Y0263643D01*
X0392149Y0263535D01*
X0392157Y0263427D01*
X0392161Y0263318D01*
X0392161Y0263210D01*
X0392157Y0263101D01*
X0392149Y0262993D01*
X0392137Y0262885D01*
X0392121Y0262778D01*
X0392101Y0262671D01*
X0392077Y0262565D01*
X0392050Y0262460D01*
X0392018Y0262357D01*
X0391983Y0262254D01*
X0391944Y0262153D01*
X0391901Y0262053D01*
X0391855Y0261955D01*
X0391805Y0261859D01*
X0391752Y0261764D01*
X0391695Y0261672D01*
X0391635Y0261581D01*
X0391571Y0261493D01*
X0391505Y0261408D01*
X0391435Y0261325D01*
X0391362Y0261244D01*
X0391286Y0261166D01*
X0391208Y0261091D01*
X0391127Y0261019D01*
X0391043Y0260950D01*
X0390957Y0260885D01*
X0390868Y0260822D01*
X0390777Y0260763D01*
X0390685Y0260707D01*
X0390590Y0260654D01*
X0390493Y0260605D01*
X0390394Y0260560D01*
X0390294Y0260518D01*
X0390192Y0260480D01*
X0390090Y0260446D01*
X0389985Y0260415D01*
X0389880Y0260389D01*
X0389774Y0260366D01*
X0389667Y0260347D01*
X0389560Y0260332D01*
X0389452Y0260321D01*
X0389344Y0260314D01*
X0389235Y0260311D01*
X0389127Y0260312D01*
X0389018Y0260317D01*
X0388910Y0260326D01*
X0388802Y0260339D01*
X0388695Y0260356D01*
X0388589Y0260377D01*
X0388483Y0260401D01*
X0388378Y0260430D01*
X0388275Y0260462D01*
X0388173Y0260498D01*
X0388072Y0260538D01*
X0387972Y0260582D01*
X0387875Y0260629D01*
X0387779Y0260680D01*
X0387685Y0260734D01*
X0387593Y0260792D01*
X0387503Y0260853D01*
X0387416Y0260917D01*
X0387331Y0260985D01*
X0387248Y0261055D01*
X0387168Y0261129D01*
X0387091Y0261205D01*
X0387017Y0261284D01*
X0386946Y0261366D01*
X0386878Y0261450D01*
X0386813Y0261537D01*
X0386751Y0261626D01*
X0386692Y0261718D01*
X0386637Y0261811D01*
X0386586Y0261906D01*
X0386537Y0262004D01*
X0386493Y0262103D01*
X0386452Y0262203D01*
X0386415Y0262305D01*
X0386382Y0262408D01*
X0386352Y0262513D01*
X0386326Y0262618D01*
X0386305Y0262725D01*
X0386287Y0262832D01*
X0386273Y0262939D01*
X0386263Y0263047D01*
X0386257Y0263156D01*
X0386255Y0263264D01*
X0386255Y0245547D02*
X0386257Y0245655D01*
X0386263Y0245764D01*
X0386273Y0245872D01*
X0386287Y0245979D01*
X0386305Y0246086D01*
X0386326Y0246193D01*
X0386352Y0246298D01*
X0386382Y0246403D01*
X0386415Y0246506D01*
X0386452Y0246608D01*
X0386493Y0246708D01*
X0386537Y0246807D01*
X0386586Y0246905D01*
X0386637Y0247000D01*
X0386692Y0247093D01*
X0386751Y0247185D01*
X0386813Y0247274D01*
X0386878Y0247361D01*
X0386946Y0247445D01*
X0387017Y0247527D01*
X0387091Y0247606D01*
X0387168Y0247682D01*
X0387248Y0247756D01*
X0387331Y0247826D01*
X0387416Y0247894D01*
X0387503Y0247958D01*
X0387593Y0248019D01*
X0387685Y0248077D01*
X0387779Y0248131D01*
X0387875Y0248182D01*
X0387972Y0248229D01*
X0388072Y0248273D01*
X0388173Y0248313D01*
X0388275Y0248349D01*
X0388378Y0248381D01*
X0388483Y0248410D01*
X0388589Y0248434D01*
X0388695Y0248455D01*
X0388802Y0248472D01*
X0388910Y0248485D01*
X0389018Y0248494D01*
X0389127Y0248499D01*
X0389235Y0248500D01*
X0389344Y0248497D01*
X0389452Y0248490D01*
X0389560Y0248479D01*
X0389667Y0248464D01*
X0389774Y0248445D01*
X0389880Y0248422D01*
X0389985Y0248396D01*
X0390090Y0248365D01*
X0390192Y0248331D01*
X0390294Y0248293D01*
X0390394Y0248251D01*
X0390493Y0248206D01*
X0390590Y0248157D01*
X0390684Y0248104D01*
X0390777Y0248048D01*
X0390868Y0247989D01*
X0390957Y0247926D01*
X0391043Y0247861D01*
X0391127Y0247792D01*
X0391208Y0247720D01*
X0391286Y0247645D01*
X0391362Y0247567D01*
X0391435Y0247486D01*
X0391505Y0247403D01*
X0391571Y0247318D01*
X0391635Y0247230D01*
X0391695Y0247139D01*
X0391752Y0247047D01*
X0391805Y0246952D01*
X0391855Y0246856D01*
X0391901Y0246758D01*
X0391944Y0246658D01*
X0391983Y0246557D01*
X0392018Y0246454D01*
X0392050Y0246351D01*
X0392077Y0246246D01*
X0392101Y0246140D01*
X0392121Y0246033D01*
X0392137Y0245926D01*
X0392149Y0245818D01*
X0392157Y0245710D01*
X0392161Y0245601D01*
X0392161Y0245493D01*
X0392157Y0245384D01*
X0392149Y0245276D01*
X0392137Y0245168D01*
X0392121Y0245061D01*
X0392101Y0244954D01*
X0392077Y0244848D01*
X0392050Y0244743D01*
X0392018Y0244640D01*
X0391983Y0244537D01*
X0391944Y0244436D01*
X0391901Y0244336D01*
X0391855Y0244238D01*
X0391805Y0244142D01*
X0391752Y0244047D01*
X0391695Y0243955D01*
X0391635Y0243864D01*
X0391571Y0243776D01*
X0391505Y0243691D01*
X0391435Y0243608D01*
X0391362Y0243527D01*
X0391286Y0243449D01*
X0391208Y0243374D01*
X0391127Y0243302D01*
X0391043Y0243233D01*
X0390957Y0243168D01*
X0390868Y0243105D01*
X0390777Y0243046D01*
X0390685Y0242990D01*
X0390590Y0242937D01*
X0390493Y0242888D01*
X0390394Y0242843D01*
X0390294Y0242801D01*
X0390192Y0242763D01*
X0390090Y0242729D01*
X0389985Y0242698D01*
X0389880Y0242672D01*
X0389774Y0242649D01*
X0389667Y0242630D01*
X0389560Y0242615D01*
X0389452Y0242604D01*
X0389344Y0242597D01*
X0389235Y0242594D01*
X0389127Y0242595D01*
X0389018Y0242600D01*
X0388910Y0242609D01*
X0388802Y0242622D01*
X0388695Y0242639D01*
X0388589Y0242660D01*
X0388483Y0242684D01*
X0388378Y0242713D01*
X0388275Y0242745D01*
X0388173Y0242781D01*
X0388072Y0242821D01*
X0387972Y0242865D01*
X0387875Y0242912D01*
X0387779Y0242963D01*
X0387685Y0243017D01*
X0387593Y0243075D01*
X0387503Y0243136D01*
X0387416Y0243200D01*
X0387331Y0243268D01*
X0387248Y0243338D01*
X0387168Y0243412D01*
X0387091Y0243488D01*
X0387017Y0243567D01*
X0386946Y0243649D01*
X0386878Y0243733D01*
X0386813Y0243820D01*
X0386751Y0243909D01*
X0386692Y0244001D01*
X0386637Y0244094D01*
X0386586Y0244189D01*
X0386537Y0244287D01*
X0386493Y0244386D01*
X0386452Y0244486D01*
X0386415Y0244588D01*
X0386382Y0244691D01*
X0386352Y0244796D01*
X0386326Y0244901D01*
X0386305Y0245008D01*
X0386287Y0245115D01*
X0386273Y0245222D01*
X0386263Y0245330D01*
X0386257Y0245439D01*
X0386255Y0245547D01*
X0366570Y0225862D02*
X0366572Y0225970D01*
X0366578Y0226079D01*
X0366588Y0226187D01*
X0366602Y0226294D01*
X0366620Y0226401D01*
X0366641Y0226508D01*
X0366667Y0226613D01*
X0366697Y0226718D01*
X0366730Y0226821D01*
X0366767Y0226923D01*
X0366808Y0227023D01*
X0366852Y0227122D01*
X0366901Y0227220D01*
X0366952Y0227315D01*
X0367007Y0227408D01*
X0367066Y0227500D01*
X0367128Y0227589D01*
X0367193Y0227676D01*
X0367261Y0227760D01*
X0367332Y0227842D01*
X0367406Y0227921D01*
X0367483Y0227997D01*
X0367563Y0228071D01*
X0367646Y0228141D01*
X0367731Y0228209D01*
X0367818Y0228273D01*
X0367908Y0228334D01*
X0368000Y0228392D01*
X0368094Y0228446D01*
X0368190Y0228497D01*
X0368287Y0228544D01*
X0368387Y0228588D01*
X0368488Y0228628D01*
X0368590Y0228664D01*
X0368693Y0228696D01*
X0368798Y0228725D01*
X0368904Y0228749D01*
X0369010Y0228770D01*
X0369117Y0228787D01*
X0369225Y0228800D01*
X0369333Y0228809D01*
X0369442Y0228814D01*
X0369550Y0228815D01*
X0369659Y0228812D01*
X0369767Y0228805D01*
X0369875Y0228794D01*
X0369982Y0228779D01*
X0370089Y0228760D01*
X0370195Y0228737D01*
X0370300Y0228711D01*
X0370405Y0228680D01*
X0370507Y0228646D01*
X0370609Y0228608D01*
X0370709Y0228566D01*
X0370808Y0228521D01*
X0370905Y0228472D01*
X0370999Y0228419D01*
X0371092Y0228363D01*
X0371183Y0228304D01*
X0371272Y0228241D01*
X0371358Y0228176D01*
X0371442Y0228107D01*
X0371523Y0228035D01*
X0371601Y0227960D01*
X0371677Y0227882D01*
X0371750Y0227801D01*
X0371820Y0227718D01*
X0371886Y0227633D01*
X0371950Y0227545D01*
X0372010Y0227454D01*
X0372067Y0227362D01*
X0372120Y0227267D01*
X0372170Y0227171D01*
X0372216Y0227073D01*
X0372259Y0226973D01*
X0372298Y0226872D01*
X0372333Y0226769D01*
X0372365Y0226666D01*
X0372392Y0226561D01*
X0372416Y0226455D01*
X0372436Y0226348D01*
X0372452Y0226241D01*
X0372464Y0226133D01*
X0372472Y0226025D01*
X0372476Y0225916D01*
X0372476Y0225808D01*
X0372472Y0225699D01*
X0372464Y0225591D01*
X0372452Y0225483D01*
X0372436Y0225376D01*
X0372416Y0225269D01*
X0372392Y0225163D01*
X0372365Y0225058D01*
X0372333Y0224955D01*
X0372298Y0224852D01*
X0372259Y0224751D01*
X0372216Y0224651D01*
X0372170Y0224553D01*
X0372120Y0224457D01*
X0372067Y0224362D01*
X0372010Y0224270D01*
X0371950Y0224179D01*
X0371886Y0224091D01*
X0371820Y0224006D01*
X0371750Y0223923D01*
X0371677Y0223842D01*
X0371601Y0223764D01*
X0371523Y0223689D01*
X0371442Y0223617D01*
X0371358Y0223548D01*
X0371272Y0223483D01*
X0371183Y0223420D01*
X0371092Y0223361D01*
X0371000Y0223305D01*
X0370905Y0223252D01*
X0370808Y0223203D01*
X0370709Y0223158D01*
X0370609Y0223116D01*
X0370507Y0223078D01*
X0370405Y0223044D01*
X0370300Y0223013D01*
X0370195Y0222987D01*
X0370089Y0222964D01*
X0369982Y0222945D01*
X0369875Y0222930D01*
X0369767Y0222919D01*
X0369659Y0222912D01*
X0369550Y0222909D01*
X0369442Y0222910D01*
X0369333Y0222915D01*
X0369225Y0222924D01*
X0369117Y0222937D01*
X0369010Y0222954D01*
X0368904Y0222975D01*
X0368798Y0222999D01*
X0368693Y0223028D01*
X0368590Y0223060D01*
X0368488Y0223096D01*
X0368387Y0223136D01*
X0368287Y0223180D01*
X0368190Y0223227D01*
X0368094Y0223278D01*
X0368000Y0223332D01*
X0367908Y0223390D01*
X0367818Y0223451D01*
X0367731Y0223515D01*
X0367646Y0223583D01*
X0367563Y0223653D01*
X0367483Y0223727D01*
X0367406Y0223803D01*
X0367332Y0223882D01*
X0367261Y0223964D01*
X0367193Y0224048D01*
X0367128Y0224135D01*
X0367066Y0224224D01*
X0367007Y0224316D01*
X0366952Y0224409D01*
X0366901Y0224504D01*
X0366852Y0224602D01*
X0366808Y0224701D01*
X0366767Y0224801D01*
X0366730Y0224903D01*
X0366697Y0225006D01*
X0366667Y0225111D01*
X0366641Y0225216D01*
X0366620Y0225323D01*
X0366602Y0225430D01*
X0366588Y0225537D01*
X0366578Y0225645D01*
X0366572Y0225754D01*
X0366570Y0225862D01*
X0386255Y0206177D02*
X0386257Y0206285D01*
X0386263Y0206394D01*
X0386273Y0206502D01*
X0386287Y0206609D01*
X0386305Y0206716D01*
X0386326Y0206823D01*
X0386352Y0206928D01*
X0386382Y0207033D01*
X0386415Y0207136D01*
X0386452Y0207238D01*
X0386493Y0207338D01*
X0386537Y0207437D01*
X0386586Y0207535D01*
X0386637Y0207630D01*
X0386692Y0207723D01*
X0386751Y0207815D01*
X0386813Y0207904D01*
X0386878Y0207991D01*
X0386946Y0208075D01*
X0387017Y0208157D01*
X0387091Y0208236D01*
X0387168Y0208312D01*
X0387248Y0208386D01*
X0387331Y0208456D01*
X0387416Y0208524D01*
X0387503Y0208588D01*
X0387593Y0208649D01*
X0387685Y0208707D01*
X0387779Y0208761D01*
X0387875Y0208812D01*
X0387972Y0208859D01*
X0388072Y0208903D01*
X0388173Y0208943D01*
X0388275Y0208979D01*
X0388378Y0209011D01*
X0388483Y0209040D01*
X0388589Y0209064D01*
X0388695Y0209085D01*
X0388802Y0209102D01*
X0388910Y0209115D01*
X0389018Y0209124D01*
X0389127Y0209129D01*
X0389235Y0209130D01*
X0389344Y0209127D01*
X0389452Y0209120D01*
X0389560Y0209109D01*
X0389667Y0209094D01*
X0389774Y0209075D01*
X0389880Y0209052D01*
X0389985Y0209026D01*
X0390090Y0208995D01*
X0390192Y0208961D01*
X0390294Y0208923D01*
X0390394Y0208881D01*
X0390493Y0208836D01*
X0390590Y0208787D01*
X0390684Y0208734D01*
X0390777Y0208678D01*
X0390868Y0208619D01*
X0390957Y0208556D01*
X0391043Y0208491D01*
X0391127Y0208422D01*
X0391208Y0208350D01*
X0391286Y0208275D01*
X0391362Y0208197D01*
X0391435Y0208116D01*
X0391505Y0208033D01*
X0391571Y0207948D01*
X0391635Y0207860D01*
X0391695Y0207769D01*
X0391752Y0207677D01*
X0391805Y0207582D01*
X0391855Y0207486D01*
X0391901Y0207388D01*
X0391944Y0207288D01*
X0391983Y0207187D01*
X0392018Y0207084D01*
X0392050Y0206981D01*
X0392077Y0206876D01*
X0392101Y0206770D01*
X0392121Y0206663D01*
X0392137Y0206556D01*
X0392149Y0206448D01*
X0392157Y0206340D01*
X0392161Y0206231D01*
X0392161Y0206123D01*
X0392157Y0206014D01*
X0392149Y0205906D01*
X0392137Y0205798D01*
X0392121Y0205691D01*
X0392101Y0205584D01*
X0392077Y0205478D01*
X0392050Y0205373D01*
X0392018Y0205270D01*
X0391983Y0205167D01*
X0391944Y0205066D01*
X0391901Y0204966D01*
X0391855Y0204868D01*
X0391805Y0204772D01*
X0391752Y0204677D01*
X0391695Y0204585D01*
X0391635Y0204494D01*
X0391571Y0204406D01*
X0391505Y0204321D01*
X0391435Y0204238D01*
X0391362Y0204157D01*
X0391286Y0204079D01*
X0391208Y0204004D01*
X0391127Y0203932D01*
X0391043Y0203863D01*
X0390957Y0203798D01*
X0390868Y0203735D01*
X0390777Y0203676D01*
X0390685Y0203620D01*
X0390590Y0203567D01*
X0390493Y0203518D01*
X0390394Y0203473D01*
X0390294Y0203431D01*
X0390192Y0203393D01*
X0390090Y0203359D01*
X0389985Y0203328D01*
X0389880Y0203302D01*
X0389774Y0203279D01*
X0389667Y0203260D01*
X0389560Y0203245D01*
X0389452Y0203234D01*
X0389344Y0203227D01*
X0389235Y0203224D01*
X0389127Y0203225D01*
X0389018Y0203230D01*
X0388910Y0203239D01*
X0388802Y0203252D01*
X0388695Y0203269D01*
X0388589Y0203290D01*
X0388483Y0203314D01*
X0388378Y0203343D01*
X0388275Y0203375D01*
X0388173Y0203411D01*
X0388072Y0203451D01*
X0387972Y0203495D01*
X0387875Y0203542D01*
X0387779Y0203593D01*
X0387685Y0203647D01*
X0387593Y0203705D01*
X0387503Y0203766D01*
X0387416Y0203830D01*
X0387331Y0203898D01*
X0387248Y0203968D01*
X0387168Y0204042D01*
X0387091Y0204118D01*
X0387017Y0204197D01*
X0386946Y0204279D01*
X0386878Y0204363D01*
X0386813Y0204450D01*
X0386751Y0204539D01*
X0386692Y0204631D01*
X0386637Y0204724D01*
X0386586Y0204819D01*
X0386537Y0204917D01*
X0386493Y0205016D01*
X0386452Y0205116D01*
X0386415Y0205218D01*
X0386382Y0205321D01*
X0386352Y0205426D01*
X0386326Y0205531D01*
X0386305Y0205638D01*
X0386287Y0205745D01*
X0386273Y0205852D01*
X0386263Y0205960D01*
X0386257Y0206069D01*
X0386255Y0206177D01*
X0310862Y0207752D02*
X0310864Y0207910D01*
X0310870Y0208068D01*
X0310880Y0208226D01*
X0310894Y0208384D01*
X0310912Y0208541D01*
X0310933Y0208698D01*
X0310959Y0208854D01*
X0310989Y0209010D01*
X0311022Y0209165D01*
X0311060Y0209318D01*
X0311101Y0209471D01*
X0311146Y0209623D01*
X0311195Y0209774D01*
X0311248Y0209923D01*
X0311304Y0210071D01*
X0311364Y0210217D01*
X0311428Y0210362D01*
X0311496Y0210505D01*
X0311567Y0210647D01*
X0311641Y0210787D01*
X0311719Y0210924D01*
X0311801Y0211060D01*
X0311885Y0211194D01*
X0311974Y0211325D01*
X0312065Y0211454D01*
X0312160Y0211581D01*
X0312257Y0211706D01*
X0312358Y0211828D01*
X0312462Y0211947D01*
X0312569Y0212064D01*
X0312679Y0212178D01*
X0312792Y0212289D01*
X0312907Y0212398D01*
X0313025Y0212503D01*
X0313146Y0212605D01*
X0313269Y0212705D01*
X0313395Y0212801D01*
X0313523Y0212894D01*
X0313653Y0212984D01*
X0313786Y0213070D01*
X0313921Y0213154D01*
X0314057Y0213233D01*
X0314196Y0213310D01*
X0314337Y0213382D01*
X0314479Y0213452D01*
X0314623Y0213517D01*
X0314769Y0213579D01*
X0314916Y0213637D01*
X0315065Y0213692D01*
X0315215Y0213743D01*
X0315366Y0213790D01*
X0315518Y0213833D01*
X0315671Y0213872D01*
X0315826Y0213908D01*
X0315981Y0213939D01*
X0316137Y0213967D01*
X0316293Y0213991D01*
X0316450Y0214011D01*
X0316608Y0214027D01*
X0316765Y0214039D01*
X0316924Y0214047D01*
X0317082Y0214051D01*
X0317240Y0214051D01*
X0317398Y0214047D01*
X0317557Y0214039D01*
X0317714Y0214027D01*
X0317872Y0214011D01*
X0318029Y0213991D01*
X0318185Y0213967D01*
X0318341Y0213939D01*
X0318496Y0213908D01*
X0318651Y0213872D01*
X0318804Y0213833D01*
X0318956Y0213790D01*
X0319107Y0213743D01*
X0319257Y0213692D01*
X0319406Y0213637D01*
X0319553Y0213579D01*
X0319699Y0213517D01*
X0319843Y0213452D01*
X0319985Y0213382D01*
X0320126Y0213310D01*
X0320265Y0213233D01*
X0320401Y0213154D01*
X0320536Y0213070D01*
X0320669Y0212984D01*
X0320799Y0212894D01*
X0320927Y0212801D01*
X0321053Y0212705D01*
X0321176Y0212605D01*
X0321297Y0212503D01*
X0321415Y0212398D01*
X0321530Y0212289D01*
X0321643Y0212178D01*
X0321753Y0212064D01*
X0321860Y0211947D01*
X0321964Y0211828D01*
X0322065Y0211706D01*
X0322162Y0211581D01*
X0322257Y0211454D01*
X0322348Y0211325D01*
X0322437Y0211194D01*
X0322521Y0211060D01*
X0322603Y0210924D01*
X0322681Y0210787D01*
X0322755Y0210647D01*
X0322826Y0210505D01*
X0322894Y0210362D01*
X0322958Y0210217D01*
X0323018Y0210071D01*
X0323074Y0209923D01*
X0323127Y0209774D01*
X0323176Y0209623D01*
X0323221Y0209471D01*
X0323262Y0209318D01*
X0323300Y0209165D01*
X0323333Y0209010D01*
X0323363Y0208854D01*
X0323389Y0208698D01*
X0323410Y0208541D01*
X0323428Y0208384D01*
X0323442Y0208226D01*
X0323452Y0208068D01*
X0323458Y0207910D01*
X0323460Y0207752D01*
X0323458Y0207594D01*
X0323452Y0207436D01*
X0323442Y0207278D01*
X0323428Y0207120D01*
X0323410Y0206963D01*
X0323389Y0206806D01*
X0323363Y0206650D01*
X0323333Y0206494D01*
X0323300Y0206339D01*
X0323262Y0206186D01*
X0323221Y0206033D01*
X0323176Y0205881D01*
X0323127Y0205730D01*
X0323074Y0205581D01*
X0323018Y0205433D01*
X0322958Y0205287D01*
X0322894Y0205142D01*
X0322826Y0204999D01*
X0322755Y0204857D01*
X0322681Y0204717D01*
X0322603Y0204580D01*
X0322521Y0204444D01*
X0322437Y0204310D01*
X0322348Y0204179D01*
X0322257Y0204050D01*
X0322162Y0203923D01*
X0322065Y0203798D01*
X0321964Y0203676D01*
X0321860Y0203557D01*
X0321753Y0203440D01*
X0321643Y0203326D01*
X0321530Y0203215D01*
X0321415Y0203106D01*
X0321297Y0203001D01*
X0321176Y0202899D01*
X0321053Y0202799D01*
X0320927Y0202703D01*
X0320799Y0202610D01*
X0320669Y0202520D01*
X0320536Y0202434D01*
X0320401Y0202350D01*
X0320265Y0202271D01*
X0320126Y0202194D01*
X0319985Y0202122D01*
X0319843Y0202052D01*
X0319699Y0201987D01*
X0319553Y0201925D01*
X0319406Y0201867D01*
X0319257Y0201812D01*
X0319107Y0201761D01*
X0318956Y0201714D01*
X0318804Y0201671D01*
X0318651Y0201632D01*
X0318496Y0201596D01*
X0318341Y0201565D01*
X0318185Y0201537D01*
X0318029Y0201513D01*
X0317872Y0201493D01*
X0317714Y0201477D01*
X0317557Y0201465D01*
X0317398Y0201457D01*
X0317240Y0201453D01*
X0317082Y0201453D01*
X0316924Y0201457D01*
X0316765Y0201465D01*
X0316608Y0201477D01*
X0316450Y0201493D01*
X0316293Y0201513D01*
X0316137Y0201537D01*
X0315981Y0201565D01*
X0315826Y0201596D01*
X0315671Y0201632D01*
X0315518Y0201671D01*
X0315366Y0201714D01*
X0315215Y0201761D01*
X0315065Y0201812D01*
X0314916Y0201867D01*
X0314769Y0201925D01*
X0314623Y0201987D01*
X0314479Y0202052D01*
X0314337Y0202122D01*
X0314196Y0202194D01*
X0314057Y0202271D01*
X0313921Y0202350D01*
X0313786Y0202434D01*
X0313653Y0202520D01*
X0313523Y0202610D01*
X0313395Y0202703D01*
X0313269Y0202799D01*
X0313146Y0202899D01*
X0313025Y0203001D01*
X0312907Y0203106D01*
X0312792Y0203215D01*
X0312679Y0203326D01*
X0312569Y0203440D01*
X0312462Y0203557D01*
X0312358Y0203676D01*
X0312257Y0203798D01*
X0312160Y0203923D01*
X0312065Y0204050D01*
X0311974Y0204179D01*
X0311885Y0204310D01*
X0311801Y0204444D01*
X0311719Y0204580D01*
X0311641Y0204717D01*
X0311567Y0204857D01*
X0311496Y0204999D01*
X0311428Y0205142D01*
X0311364Y0205287D01*
X0311304Y0205433D01*
X0311248Y0205581D01*
X0311195Y0205730D01*
X0311146Y0205881D01*
X0311101Y0206033D01*
X0311060Y0206186D01*
X0311022Y0206339D01*
X0310989Y0206494D01*
X0310959Y0206650D01*
X0310933Y0206806D01*
X0310912Y0206963D01*
X0310894Y0207120D01*
X0310880Y0207278D01*
X0310870Y0207436D01*
X0310864Y0207594D01*
X0310862Y0207752D01*
X0389602Y0355390D02*
X0389604Y0355548D01*
X0389610Y0355706D01*
X0389620Y0355864D01*
X0389634Y0356022D01*
X0389652Y0356179D01*
X0389673Y0356336D01*
X0389699Y0356492D01*
X0389729Y0356648D01*
X0389762Y0356803D01*
X0389800Y0356956D01*
X0389841Y0357109D01*
X0389886Y0357261D01*
X0389935Y0357412D01*
X0389988Y0357561D01*
X0390044Y0357709D01*
X0390104Y0357855D01*
X0390168Y0358000D01*
X0390236Y0358143D01*
X0390307Y0358285D01*
X0390381Y0358425D01*
X0390459Y0358562D01*
X0390541Y0358698D01*
X0390625Y0358832D01*
X0390714Y0358963D01*
X0390805Y0359092D01*
X0390900Y0359219D01*
X0390997Y0359344D01*
X0391098Y0359466D01*
X0391202Y0359585D01*
X0391309Y0359702D01*
X0391419Y0359816D01*
X0391532Y0359927D01*
X0391647Y0360036D01*
X0391765Y0360141D01*
X0391886Y0360243D01*
X0392009Y0360343D01*
X0392135Y0360439D01*
X0392263Y0360532D01*
X0392393Y0360622D01*
X0392526Y0360708D01*
X0392661Y0360792D01*
X0392797Y0360871D01*
X0392936Y0360948D01*
X0393077Y0361020D01*
X0393219Y0361090D01*
X0393363Y0361155D01*
X0393509Y0361217D01*
X0393656Y0361275D01*
X0393805Y0361330D01*
X0393955Y0361381D01*
X0394106Y0361428D01*
X0394258Y0361471D01*
X0394411Y0361510D01*
X0394566Y0361546D01*
X0394721Y0361577D01*
X0394877Y0361605D01*
X0395033Y0361629D01*
X0395190Y0361649D01*
X0395348Y0361665D01*
X0395505Y0361677D01*
X0395664Y0361685D01*
X0395822Y0361689D01*
X0395980Y0361689D01*
X0396138Y0361685D01*
X0396297Y0361677D01*
X0396454Y0361665D01*
X0396612Y0361649D01*
X0396769Y0361629D01*
X0396925Y0361605D01*
X0397081Y0361577D01*
X0397236Y0361546D01*
X0397391Y0361510D01*
X0397544Y0361471D01*
X0397696Y0361428D01*
X0397847Y0361381D01*
X0397997Y0361330D01*
X0398146Y0361275D01*
X0398293Y0361217D01*
X0398439Y0361155D01*
X0398583Y0361090D01*
X0398725Y0361020D01*
X0398866Y0360948D01*
X0399005Y0360871D01*
X0399141Y0360792D01*
X0399276Y0360708D01*
X0399409Y0360622D01*
X0399539Y0360532D01*
X0399667Y0360439D01*
X0399793Y0360343D01*
X0399916Y0360243D01*
X0400037Y0360141D01*
X0400155Y0360036D01*
X0400270Y0359927D01*
X0400383Y0359816D01*
X0400493Y0359702D01*
X0400600Y0359585D01*
X0400704Y0359466D01*
X0400805Y0359344D01*
X0400902Y0359219D01*
X0400997Y0359092D01*
X0401088Y0358963D01*
X0401177Y0358832D01*
X0401261Y0358698D01*
X0401343Y0358562D01*
X0401421Y0358425D01*
X0401495Y0358285D01*
X0401566Y0358143D01*
X0401634Y0358000D01*
X0401698Y0357855D01*
X0401758Y0357709D01*
X0401814Y0357561D01*
X0401867Y0357412D01*
X0401916Y0357261D01*
X0401961Y0357109D01*
X0402002Y0356956D01*
X0402040Y0356803D01*
X0402073Y0356648D01*
X0402103Y0356492D01*
X0402129Y0356336D01*
X0402150Y0356179D01*
X0402168Y0356022D01*
X0402182Y0355864D01*
X0402192Y0355706D01*
X0402198Y0355548D01*
X0402200Y0355390D01*
X0402198Y0355232D01*
X0402192Y0355074D01*
X0402182Y0354916D01*
X0402168Y0354758D01*
X0402150Y0354601D01*
X0402129Y0354444D01*
X0402103Y0354288D01*
X0402073Y0354132D01*
X0402040Y0353977D01*
X0402002Y0353824D01*
X0401961Y0353671D01*
X0401916Y0353519D01*
X0401867Y0353368D01*
X0401814Y0353219D01*
X0401758Y0353071D01*
X0401698Y0352925D01*
X0401634Y0352780D01*
X0401566Y0352637D01*
X0401495Y0352495D01*
X0401421Y0352355D01*
X0401343Y0352218D01*
X0401261Y0352082D01*
X0401177Y0351948D01*
X0401088Y0351817D01*
X0400997Y0351688D01*
X0400902Y0351561D01*
X0400805Y0351436D01*
X0400704Y0351314D01*
X0400600Y0351195D01*
X0400493Y0351078D01*
X0400383Y0350964D01*
X0400270Y0350853D01*
X0400155Y0350744D01*
X0400037Y0350639D01*
X0399916Y0350537D01*
X0399793Y0350437D01*
X0399667Y0350341D01*
X0399539Y0350248D01*
X0399409Y0350158D01*
X0399276Y0350072D01*
X0399141Y0349988D01*
X0399005Y0349909D01*
X0398866Y0349832D01*
X0398725Y0349760D01*
X0398583Y0349690D01*
X0398439Y0349625D01*
X0398293Y0349563D01*
X0398146Y0349505D01*
X0397997Y0349450D01*
X0397847Y0349399D01*
X0397696Y0349352D01*
X0397544Y0349309D01*
X0397391Y0349270D01*
X0397236Y0349234D01*
X0397081Y0349203D01*
X0396925Y0349175D01*
X0396769Y0349151D01*
X0396612Y0349131D01*
X0396454Y0349115D01*
X0396297Y0349103D01*
X0396138Y0349095D01*
X0395980Y0349091D01*
X0395822Y0349091D01*
X0395664Y0349095D01*
X0395505Y0349103D01*
X0395348Y0349115D01*
X0395190Y0349131D01*
X0395033Y0349151D01*
X0394877Y0349175D01*
X0394721Y0349203D01*
X0394566Y0349234D01*
X0394411Y0349270D01*
X0394258Y0349309D01*
X0394106Y0349352D01*
X0393955Y0349399D01*
X0393805Y0349450D01*
X0393656Y0349505D01*
X0393509Y0349563D01*
X0393363Y0349625D01*
X0393219Y0349690D01*
X0393077Y0349760D01*
X0392936Y0349832D01*
X0392797Y0349909D01*
X0392661Y0349988D01*
X0392526Y0350072D01*
X0392393Y0350158D01*
X0392263Y0350248D01*
X0392135Y0350341D01*
X0392009Y0350437D01*
X0391886Y0350537D01*
X0391765Y0350639D01*
X0391647Y0350744D01*
X0391532Y0350853D01*
X0391419Y0350964D01*
X0391309Y0351078D01*
X0391202Y0351195D01*
X0391098Y0351314D01*
X0390997Y0351436D01*
X0390900Y0351561D01*
X0390805Y0351688D01*
X0390714Y0351817D01*
X0390625Y0351948D01*
X0390541Y0352082D01*
X0390459Y0352218D01*
X0390381Y0352355D01*
X0390307Y0352495D01*
X0390236Y0352637D01*
X0390168Y0352780D01*
X0390104Y0352925D01*
X0390044Y0353071D01*
X0389988Y0353219D01*
X0389935Y0353368D01*
X0389886Y0353519D01*
X0389841Y0353671D01*
X0389800Y0353824D01*
X0389762Y0353977D01*
X0389729Y0354132D01*
X0389699Y0354288D01*
X0389673Y0354444D01*
X0389652Y0354601D01*
X0389634Y0354758D01*
X0389620Y0354916D01*
X0389610Y0355074D01*
X0389604Y0355232D01*
X0389602Y0355390D01*
X0389602Y0040429D02*
X0389604Y0040587D01*
X0389610Y0040745D01*
X0389620Y0040903D01*
X0389634Y0041061D01*
X0389652Y0041218D01*
X0389673Y0041375D01*
X0389699Y0041531D01*
X0389729Y0041687D01*
X0389762Y0041842D01*
X0389800Y0041995D01*
X0389841Y0042148D01*
X0389886Y0042300D01*
X0389935Y0042451D01*
X0389988Y0042600D01*
X0390044Y0042748D01*
X0390104Y0042894D01*
X0390168Y0043039D01*
X0390236Y0043182D01*
X0390307Y0043324D01*
X0390381Y0043464D01*
X0390459Y0043601D01*
X0390541Y0043737D01*
X0390625Y0043871D01*
X0390714Y0044002D01*
X0390805Y0044131D01*
X0390900Y0044258D01*
X0390997Y0044383D01*
X0391098Y0044505D01*
X0391202Y0044624D01*
X0391309Y0044741D01*
X0391419Y0044855D01*
X0391532Y0044966D01*
X0391647Y0045075D01*
X0391765Y0045180D01*
X0391886Y0045282D01*
X0392009Y0045382D01*
X0392135Y0045478D01*
X0392263Y0045571D01*
X0392393Y0045661D01*
X0392526Y0045747D01*
X0392661Y0045831D01*
X0392797Y0045910D01*
X0392936Y0045987D01*
X0393077Y0046059D01*
X0393219Y0046129D01*
X0393363Y0046194D01*
X0393509Y0046256D01*
X0393656Y0046314D01*
X0393805Y0046369D01*
X0393955Y0046420D01*
X0394106Y0046467D01*
X0394258Y0046510D01*
X0394411Y0046549D01*
X0394566Y0046585D01*
X0394721Y0046616D01*
X0394877Y0046644D01*
X0395033Y0046668D01*
X0395190Y0046688D01*
X0395348Y0046704D01*
X0395505Y0046716D01*
X0395664Y0046724D01*
X0395822Y0046728D01*
X0395980Y0046728D01*
X0396138Y0046724D01*
X0396297Y0046716D01*
X0396454Y0046704D01*
X0396612Y0046688D01*
X0396769Y0046668D01*
X0396925Y0046644D01*
X0397081Y0046616D01*
X0397236Y0046585D01*
X0397391Y0046549D01*
X0397544Y0046510D01*
X0397696Y0046467D01*
X0397847Y0046420D01*
X0397997Y0046369D01*
X0398146Y0046314D01*
X0398293Y0046256D01*
X0398439Y0046194D01*
X0398583Y0046129D01*
X0398725Y0046059D01*
X0398866Y0045987D01*
X0399005Y0045910D01*
X0399141Y0045831D01*
X0399276Y0045747D01*
X0399409Y0045661D01*
X0399539Y0045571D01*
X0399667Y0045478D01*
X0399793Y0045382D01*
X0399916Y0045282D01*
X0400037Y0045180D01*
X0400155Y0045075D01*
X0400270Y0044966D01*
X0400383Y0044855D01*
X0400493Y0044741D01*
X0400600Y0044624D01*
X0400704Y0044505D01*
X0400805Y0044383D01*
X0400902Y0044258D01*
X0400997Y0044131D01*
X0401088Y0044002D01*
X0401177Y0043871D01*
X0401261Y0043737D01*
X0401343Y0043601D01*
X0401421Y0043464D01*
X0401495Y0043324D01*
X0401566Y0043182D01*
X0401634Y0043039D01*
X0401698Y0042894D01*
X0401758Y0042748D01*
X0401814Y0042600D01*
X0401867Y0042451D01*
X0401916Y0042300D01*
X0401961Y0042148D01*
X0402002Y0041995D01*
X0402040Y0041842D01*
X0402073Y0041687D01*
X0402103Y0041531D01*
X0402129Y0041375D01*
X0402150Y0041218D01*
X0402168Y0041061D01*
X0402182Y0040903D01*
X0402192Y0040745D01*
X0402198Y0040587D01*
X0402200Y0040429D01*
X0402198Y0040271D01*
X0402192Y0040113D01*
X0402182Y0039955D01*
X0402168Y0039797D01*
X0402150Y0039640D01*
X0402129Y0039483D01*
X0402103Y0039327D01*
X0402073Y0039171D01*
X0402040Y0039016D01*
X0402002Y0038863D01*
X0401961Y0038710D01*
X0401916Y0038558D01*
X0401867Y0038407D01*
X0401814Y0038258D01*
X0401758Y0038110D01*
X0401698Y0037964D01*
X0401634Y0037819D01*
X0401566Y0037676D01*
X0401495Y0037534D01*
X0401421Y0037394D01*
X0401343Y0037257D01*
X0401261Y0037121D01*
X0401177Y0036987D01*
X0401088Y0036856D01*
X0400997Y0036727D01*
X0400902Y0036600D01*
X0400805Y0036475D01*
X0400704Y0036353D01*
X0400600Y0036234D01*
X0400493Y0036117D01*
X0400383Y0036003D01*
X0400270Y0035892D01*
X0400155Y0035783D01*
X0400037Y0035678D01*
X0399916Y0035576D01*
X0399793Y0035476D01*
X0399667Y0035380D01*
X0399539Y0035287D01*
X0399409Y0035197D01*
X0399276Y0035111D01*
X0399141Y0035027D01*
X0399005Y0034948D01*
X0398866Y0034871D01*
X0398725Y0034799D01*
X0398583Y0034729D01*
X0398439Y0034664D01*
X0398293Y0034602D01*
X0398146Y0034544D01*
X0397997Y0034489D01*
X0397847Y0034438D01*
X0397696Y0034391D01*
X0397544Y0034348D01*
X0397391Y0034309D01*
X0397236Y0034273D01*
X0397081Y0034242D01*
X0396925Y0034214D01*
X0396769Y0034190D01*
X0396612Y0034170D01*
X0396454Y0034154D01*
X0396297Y0034142D01*
X0396138Y0034134D01*
X0395980Y0034130D01*
X0395822Y0034130D01*
X0395664Y0034134D01*
X0395505Y0034142D01*
X0395348Y0034154D01*
X0395190Y0034170D01*
X0395033Y0034190D01*
X0394877Y0034214D01*
X0394721Y0034242D01*
X0394566Y0034273D01*
X0394411Y0034309D01*
X0394258Y0034348D01*
X0394106Y0034391D01*
X0393955Y0034438D01*
X0393805Y0034489D01*
X0393656Y0034544D01*
X0393509Y0034602D01*
X0393363Y0034664D01*
X0393219Y0034729D01*
X0393077Y0034799D01*
X0392936Y0034871D01*
X0392797Y0034948D01*
X0392661Y0035027D01*
X0392526Y0035111D01*
X0392393Y0035197D01*
X0392263Y0035287D01*
X0392135Y0035380D01*
X0392009Y0035476D01*
X0391886Y0035576D01*
X0391765Y0035678D01*
X0391647Y0035783D01*
X0391532Y0035892D01*
X0391419Y0036003D01*
X0391309Y0036117D01*
X0391202Y0036234D01*
X0391098Y0036353D01*
X0390997Y0036475D01*
X0390900Y0036600D01*
X0390805Y0036727D01*
X0390714Y0036856D01*
X0390625Y0036987D01*
X0390541Y0037121D01*
X0390459Y0037257D01*
X0390381Y0037394D01*
X0390307Y0037534D01*
X0390236Y0037676D01*
X0390168Y0037819D01*
X0390104Y0037964D01*
X0390044Y0038110D01*
X0389988Y0038258D01*
X0389935Y0038407D01*
X0389886Y0038558D01*
X0389841Y0038710D01*
X0389800Y0038863D01*
X0389762Y0039016D01*
X0389729Y0039171D01*
X0389699Y0039327D01*
X0389673Y0039483D01*
X0389652Y0039640D01*
X0389634Y0039797D01*
X0389620Y0039955D01*
X0389610Y0040113D01*
X0389604Y0040271D01*
X0389602Y0040429D01*
D12*
X0395901Y0040429D03*
X0317161Y0207752D03*
X0317161Y0331768D03*
X0395901Y0355390D03*
X0021885Y0355390D03*
X0021885Y0331768D03*
X0021885Y0207752D03*
X0021885Y0040429D03*
D13*
X0084680Y0103224D03*
X0084680Y0113224D03*
X0084680Y0123224D03*
X0084680Y0133224D03*
X0084680Y0143224D03*
X0084680Y0153224D03*
X0084680Y0163224D03*
X0084680Y0173224D03*
X0084680Y0183224D03*
X0084680Y0193224D03*
X0084680Y0203224D03*
X0084680Y0213224D03*
X0084680Y0223224D03*
X0084680Y0233224D03*
X0084680Y0243224D03*
X0084680Y0253224D03*
X0183499Y0253224D03*
X0183499Y0243224D03*
X0183499Y0233224D03*
X0183499Y0223224D03*
X0183499Y0213224D03*
X0183499Y0203224D03*
X0183499Y0193224D03*
X0183499Y0183224D03*
X0183499Y0173224D03*
X0183499Y0163224D03*
X0183499Y0153224D03*
X0183499Y0143224D03*
X0183499Y0133224D03*
X0183499Y0123224D03*
X0183499Y0113224D03*
X0183499Y0103224D03*
D14*
X0174523Y0093776D03*
X0164523Y0093776D03*
X0154523Y0093776D03*
X0144523Y0093776D03*
X0134523Y0093776D03*
X0124523Y0093776D03*
X0114523Y0093776D03*
X0104523Y0093776D03*
X0094523Y0093776D03*
X0094523Y0262673D03*
X0104523Y0262673D03*
X0114523Y0262673D03*
X0124523Y0262673D03*
X0134523Y0262673D03*
X0144523Y0262673D03*
X0154523Y0262673D03*
X0164523Y0262673D03*
X0174523Y0262673D03*
D15*
X0312609Y0084622D03*
X0312609Y0082063D03*
X0312609Y0079504D03*
X0312609Y0076945D03*
X0312609Y0074386D03*
X0312609Y0071827D03*
X0312609Y0069268D03*
X0312609Y0066709D03*
X0312609Y0064150D03*
X0312609Y0061591D03*
X0312609Y0059031D03*
X0312609Y0056472D03*
X0312609Y0053913D03*
X0312609Y0051354D03*
X0341397Y0051354D03*
X0341397Y0053913D03*
X0341397Y0056472D03*
X0341397Y0059031D03*
X0341397Y0061591D03*
X0341397Y0064150D03*
X0341397Y0066709D03*
X0341397Y0069268D03*
X0341397Y0071827D03*
X0341397Y0074386D03*
X0341397Y0076945D03*
X0341397Y0079504D03*
X0341397Y0082063D03*
X0341397Y0084622D03*
D16*
X0342554Y0089642D03*
X0349247Y0089642D03*
X0349641Y0099878D03*
X0342948Y0099878D03*
X0378184Y0081177D03*
X0378184Y0074484D03*
X0378184Y0065429D03*
X0378184Y0058736D03*
X0297476Y0051650D03*
X0297476Y0044957D03*
X0287633Y0044957D03*
X0287633Y0051650D03*
X0289011Y0103421D03*
X0282318Y0103421D03*
X0281137Y0111295D03*
X0274444Y0111295D03*
X0335468Y0136886D03*
X0342161Y0136886D03*
X0349247Y0136886D03*
X0355940Y0136886D03*
X0352594Y0151256D03*
X0352594Y0157949D03*
X0338814Y0174878D03*
X0338814Y0181571D03*
X0317161Y0183539D03*
X0317161Y0176846D03*
X0342554Y0207358D03*
X0349247Y0207358D03*
X0349247Y0218382D03*
X0342554Y0218382D03*
X0368539Y0193579D03*
X0375231Y0193579D03*
X0374247Y0181571D03*
X0374247Y0174878D03*
X0391767Y0194760D03*
X0398460Y0194760D03*
X0397869Y0181571D03*
X0397869Y0174878D03*
X0297476Y0237870D03*
X0297476Y0244563D03*
X0324050Y0281374D03*
X0330743Y0281374D03*
X0316570Y0296335D03*
X0309877Y0296335D03*
X0309877Y0308146D03*
X0316570Y0308146D03*
X0316570Y0316020D03*
X0309877Y0316020D03*
X0327594Y0316020D03*
X0334287Y0316020D03*
X0334287Y0308146D03*
X0327594Y0308146D03*
X0343342Y0308146D03*
X0350035Y0308146D03*
X0361058Y0317988D03*
X0367751Y0317988D03*
X0203184Y0213146D03*
X0196491Y0213146D03*
X0196570Y0203303D03*
X0203263Y0203303D03*
X0082318Y0296335D03*
X0075625Y0296335D03*
X0062633Y0302240D03*
X0055940Y0302240D03*
X0189956Y0051098D03*
X0189956Y0044406D03*
D17*
X0364405Y0050957D03*
X0364405Y0088957D03*
D18*
X0010704Y0343815D03*
D19*
X0015980Y0254406D03*
X0015980Y0247713D03*
X0027791Y0247713D03*
X0027791Y0254406D03*
X0167515Y0271059D03*
X0174208Y0271059D03*
X0298066Y0168382D03*
X0304759Y0168382D03*
X0325035Y0142201D03*
X0325035Y0135508D03*
X0355153Y0168382D03*
X0361846Y0168382D03*
X0368342Y0174878D03*
X0368342Y0181571D03*
X0350625Y0181571D03*
X0350625Y0174878D03*
X0364405Y0157949D03*
X0364405Y0151256D03*
X0364405Y0142201D03*
X0364405Y0135508D03*
X0391964Y0174878D03*
X0391964Y0181571D03*
X0347082Y0266610D03*
X0347082Y0273303D03*
X0347476Y0285902D03*
X0347476Y0292594D03*
X0350035Y0319957D03*
X0343342Y0319957D03*
X0316570Y0278618D03*
X0309877Y0278618D03*
X0300822Y0089642D03*
X0294129Y0089642D03*
X0294129Y0075862D03*
X0300822Y0075862D03*
X0277791Y0078421D03*
X0277791Y0085114D03*
X0321098Y0042988D03*
X0327003Y0042988D03*
X0327003Y0036295D03*
X0321098Y0036295D03*
X0343539Y0036295D03*
X0349444Y0036295D03*
X0349444Y0042988D03*
X0343539Y0042988D03*
X0141964Y0044957D03*
X0141964Y0051650D03*
X0104562Y0078421D03*
X0104562Y0085114D03*
X0094720Y0085114D03*
X0094720Y0078421D03*
D20*
X0264011Y0090429D03*
X0264011Y0104602D03*
X0299444Y0206571D03*
X0299444Y0220744D03*
D21*
X0066865Y0287870D03*
X0066865Y0292988D03*
X0059582Y0290429D03*
X0021885Y0270449D03*
X0019326Y0263165D03*
X0024444Y0263165D03*
D22*
X0211846Y0215626D03*
X0217751Y0215626D03*
X0217751Y0201846D03*
X0211846Y0201846D03*
X0378184Y0135902D03*
X0378184Y0129996D03*
D23*
X0341850Y0153030D02*
X0341850Y0153734D01*
X0341850Y0153030D02*
X0336146Y0153030D01*
X0336146Y0153734D01*
X0341850Y0153734D01*
X0341850Y0158030D02*
X0341850Y0158734D01*
X0341850Y0158030D02*
X0336146Y0158030D01*
X0336146Y0158734D01*
X0341850Y0158734D01*
X0341850Y0163030D02*
X0341850Y0163734D01*
X0341850Y0163030D02*
X0336146Y0163030D01*
X0336146Y0163734D01*
X0341850Y0163734D01*
X0341850Y0168030D02*
X0341850Y0168734D01*
X0341850Y0168030D02*
X0336146Y0168030D01*
X0336146Y0168734D01*
X0341850Y0168734D01*
X0319150Y0168734D02*
X0319150Y0168030D01*
X0313446Y0168030D01*
X0313446Y0168734D01*
X0319150Y0168734D01*
X0319150Y0163734D02*
X0319150Y0163030D01*
X0313446Y0163030D01*
X0313446Y0163734D01*
X0319150Y0163734D01*
X0319150Y0158734D02*
X0319150Y0158030D01*
X0313446Y0158030D01*
X0313446Y0158734D01*
X0319150Y0158734D01*
X0319150Y0153734D02*
X0319150Y0153030D01*
X0313446Y0153030D01*
X0313446Y0153734D01*
X0319150Y0153734D01*
D24*
X0327598Y0160682D03*
D25*
X0277791Y0162673D03*
X0277791Y0178028D03*
D26*
X0290980Y0152634D03*
X0303972Y0152634D03*
D27*
X0323854Y0117201D03*
X0338027Y0117201D03*
X0353381Y0117201D03*
X0367554Y0117201D03*
X0282909Y0192398D03*
X0268735Y0192398D03*
X0268735Y0211689D03*
X0282909Y0211689D03*
D28*
X0241389Y0174169D02*
X0235452Y0174169D01*
X0235452Y0164169D02*
X0241389Y0164169D01*
X0241389Y0154169D02*
X0235452Y0154169D01*
X0235452Y0144169D02*
X0241389Y0144169D01*
X0241389Y0134169D02*
X0235452Y0134169D01*
X0235452Y0124169D02*
X0241389Y0124169D01*
X0241389Y0114169D02*
X0235452Y0114169D01*
X0235452Y0104169D02*
X0241389Y0104169D01*
X0241389Y0094169D02*
X0235452Y0094169D01*
X0235452Y0084169D02*
X0241389Y0084169D01*
X0241389Y0074169D02*
X0235452Y0074169D01*
X0235452Y0064169D02*
X0241389Y0064169D01*
X0046507Y0064169D02*
X0040570Y0064169D01*
X0040570Y0074169D02*
X0046507Y0074169D01*
X0046507Y0084169D02*
X0040570Y0084169D01*
X0040570Y0094169D02*
X0046507Y0094169D01*
X0046507Y0104169D02*
X0040570Y0104169D01*
X0040570Y0114169D02*
X0046507Y0114169D01*
X0046507Y0124169D02*
X0040570Y0124169D01*
X0040570Y0134169D02*
X0046507Y0134169D01*
X0046507Y0144169D02*
X0040570Y0144169D01*
X0040570Y0154169D02*
X0046507Y0154169D01*
X0046507Y0164169D02*
X0040570Y0164169D01*
X0040570Y0174169D02*
X0046507Y0174169D01*
X0040602Y0285272D02*
X0034665Y0285272D01*
X0034665Y0295272D02*
X0040602Y0295272D01*
X0040602Y0305272D02*
X0034665Y0305272D01*
X0034665Y0315272D02*
X0040602Y0315272D01*
X0274129Y0350453D02*
X0274129Y0356390D01*
X0284129Y0356390D02*
X0284129Y0350453D01*
X0294129Y0350453D02*
X0294129Y0356390D01*
X0304129Y0356390D02*
X0304129Y0350453D01*
X0314129Y0350453D02*
X0314129Y0356390D01*
X0324129Y0356390D02*
X0324129Y0350453D01*
X0334129Y0350453D02*
X0334129Y0356390D01*
X0344129Y0356390D02*
X0344129Y0350453D01*
X0354129Y0350453D02*
X0354129Y0356390D01*
X0364129Y0356390D02*
X0364129Y0350453D01*
D29*
X0179759Y0054602D03*
X0179759Y0042004D03*
X0151413Y0042004D03*
X0151413Y0054602D03*
X0116767Y0054602D03*
X0116767Y0042004D03*
X0088420Y0042004D03*
X0088420Y0054602D03*
D30*
X0025585Y0078453D02*
X0025762Y0079116D01*
X0025822Y0079799D01*
X0025762Y0080483D01*
X0025585Y0081146D01*
X0025295Y0081768D01*
X0024901Y0082330D01*
X0024416Y0082815D01*
X0023854Y0083209D01*
X0023232Y0083499D01*
X0022569Y0083676D01*
X0021885Y0083736D01*
X0021201Y0083676D01*
X0020539Y0083499D01*
X0019917Y0083209D01*
X0019354Y0082815D01*
X0018869Y0082330D01*
X0018475Y0081768D01*
X0018185Y0081146D01*
X0018008Y0080483D01*
X0017948Y0079799D01*
X0018008Y0079116D01*
X0018185Y0078453D01*
X0018475Y0077831D01*
X0018869Y0077269D01*
X0019354Y0076783D01*
X0019917Y0076390D01*
X0020539Y0076100D01*
X0021201Y0075922D01*
X0021885Y0075862D01*
X0022569Y0075922D01*
X0023232Y0076100D01*
X0023854Y0076390D01*
X0024416Y0076783D01*
X0024901Y0077269D01*
X0025295Y0077831D01*
X0025585Y0078453D01*
X0025616Y0078571D02*
X0018154Y0078571D01*
X0018020Y0079070D02*
X0025750Y0079070D01*
X0025802Y0079568D02*
X0017968Y0079568D01*
X0017971Y0080067D02*
X0025799Y0080067D01*
X0025740Y0080565D02*
X0018030Y0080565D01*
X0018164Y0081064D02*
X0025607Y0081064D01*
X0025390Y0081562D02*
X0018380Y0081562D01*
X0018681Y0082061D02*
X0025089Y0082061D01*
X0024671Y0082559D02*
X0019099Y0082559D01*
X0019701Y0083058D02*
X0024069Y0083058D01*
X0023016Y0083557D02*
X0020754Y0083557D01*
X0018363Y0078073D02*
X0025408Y0078073D01*
X0025115Y0077574D02*
X0018655Y0077574D01*
X0019062Y0077076D02*
X0024708Y0077076D01*
X0024122Y0076577D02*
X0019648Y0076577D01*
X0020616Y0076079D02*
X0023154Y0076079D01*
X0033696Y0253028D02*
X0033012Y0253087D01*
X0032350Y0253265D01*
X0031728Y0253555D01*
X0031165Y0253949D01*
X0030680Y0254434D01*
X0030287Y0254996D01*
X0029996Y0255618D01*
X0029819Y0256281D01*
X0029759Y0256965D01*
X0029819Y0257648D01*
X0029996Y0258311D01*
X0030287Y0258933D01*
X0030680Y0259495D01*
X0031165Y0259980D01*
X0031728Y0260374D01*
X0032350Y0260664D01*
X0033012Y0260842D01*
X0033696Y0260902D01*
X0034380Y0260842D01*
X0035043Y0260664D01*
X0035665Y0260374D01*
X0036227Y0259980D01*
X0036712Y0259495D01*
X0037106Y0258933D01*
X0037396Y0258311D01*
X0037573Y0257648D01*
X0037633Y0256965D01*
X0037573Y0256281D01*
X0037396Y0255618D01*
X0037106Y0254996D01*
X0036712Y0254434D01*
X0036227Y0253949D01*
X0035665Y0253555D01*
X0035043Y0253265D01*
X0034380Y0253087D01*
X0033696Y0253028D01*
X0033435Y0253050D02*
X0033957Y0253050D01*
X0035651Y0253549D02*
X0031741Y0253549D01*
X0031067Y0254047D02*
X0036325Y0254047D01*
X0036790Y0254546D02*
X0030602Y0254546D01*
X0030264Y0255044D02*
X0037128Y0255044D01*
X0037361Y0255543D02*
X0030031Y0255543D01*
X0029883Y0256041D02*
X0037509Y0256041D01*
X0037596Y0256540D02*
X0029796Y0256540D01*
X0029766Y0257038D02*
X0037627Y0257038D01*
X0037583Y0257537D02*
X0029809Y0257537D01*
X0029923Y0258035D02*
X0037470Y0258035D01*
X0037292Y0258534D02*
X0030100Y0258534D01*
X0030356Y0259033D02*
X0037036Y0259033D01*
X0036676Y0259531D02*
X0030716Y0259531D01*
X0031235Y0260030D02*
X0036157Y0260030D01*
X0035334Y0260528D02*
X0032058Y0260528D01*
X0392024Y0315336D02*
X0392201Y0314673D01*
X0392491Y0314051D01*
X0392885Y0313489D01*
X0393370Y0313004D01*
X0393932Y0312610D01*
X0394554Y0312320D01*
X0395217Y0312142D01*
X0395901Y0312083D01*
X0396584Y0312142D01*
X0397247Y0312320D01*
X0397869Y0312610D01*
X0398431Y0313004D01*
X0398917Y0313489D01*
X0399310Y0314051D01*
X0399600Y0314673D01*
X0399778Y0315336D01*
X0399838Y0316020D01*
X0399778Y0316703D01*
X0399600Y0317366D01*
X0399310Y0317988D01*
X0398917Y0318550D01*
X0398431Y0319036D01*
X0397869Y0319429D01*
X0397247Y0319719D01*
X0396584Y0319897D01*
X0395901Y0319957D01*
X0395217Y0319897D01*
X0394554Y0319719D01*
X0393932Y0319429D01*
X0393370Y0319036D01*
X0392885Y0318550D01*
X0392491Y0317988D01*
X0392201Y0317366D01*
X0392024Y0316703D01*
X0391964Y0316020D01*
X0392024Y0315336D01*
X0392021Y0315364D02*
X0399780Y0315364D01*
X0399824Y0315863D02*
X0391977Y0315863D01*
X0391994Y0316361D02*
X0399808Y0316361D01*
X0399736Y0316860D02*
X0392066Y0316860D01*
X0392199Y0317358D02*
X0399602Y0317358D01*
X0399372Y0317857D02*
X0392430Y0317857D01*
X0392748Y0318355D02*
X0399053Y0318355D01*
X0398613Y0318854D02*
X0393188Y0318854D01*
X0393823Y0319352D02*
X0397979Y0319352D01*
X0396756Y0319851D02*
X0395045Y0319851D01*
X0392150Y0314866D02*
X0399652Y0314866D01*
X0399458Y0314367D02*
X0392344Y0314367D01*
X0392619Y0313869D02*
X0399183Y0313869D01*
X0398798Y0313370D02*
X0393004Y0313370D01*
X0393559Y0312872D02*
X0398243Y0312872D01*
X0397361Y0312373D02*
X0394440Y0312373D01*
X0395901Y0083736D02*
X0395217Y0083676D01*
X0394554Y0083499D01*
X0393932Y0083209D01*
X0393370Y0082815D01*
X0392885Y0082330D01*
X0392491Y0081768D01*
X0392201Y0081146D01*
X0392024Y0080483D01*
X0391964Y0079799D01*
X0392024Y0079116D01*
X0392201Y0078453D01*
X0392491Y0077831D01*
X0392885Y0077269D01*
X0393370Y0076783D01*
X0393932Y0076390D01*
X0394554Y0076100D01*
X0395217Y0075922D01*
X0395901Y0075862D01*
X0396584Y0075922D01*
X0397247Y0076100D01*
X0397869Y0076390D01*
X0398431Y0076783D01*
X0398917Y0077269D01*
X0399310Y0077831D01*
X0399600Y0078453D01*
X0399778Y0079116D01*
X0399838Y0079799D01*
X0399778Y0080483D01*
X0399600Y0081146D01*
X0399310Y0081768D01*
X0398917Y0082330D01*
X0398431Y0082815D01*
X0397869Y0083209D01*
X0397247Y0083499D01*
X0396584Y0083676D01*
X0395901Y0083736D01*
X0394770Y0083557D02*
X0397032Y0083557D01*
X0398085Y0083058D02*
X0393717Y0083058D01*
X0393114Y0082559D02*
X0398687Y0082559D01*
X0399105Y0082061D02*
X0392697Y0082061D01*
X0392396Y0081562D02*
X0399406Y0081562D01*
X0399622Y0081064D02*
X0392179Y0081064D01*
X0392046Y0080565D02*
X0399756Y0080565D01*
X0399814Y0080067D02*
X0391987Y0080067D01*
X0391984Y0079568D02*
X0399818Y0079568D01*
X0399766Y0079070D02*
X0392036Y0079070D01*
X0392169Y0078571D02*
X0399632Y0078571D01*
X0399423Y0078073D02*
X0392378Y0078073D01*
X0392671Y0077574D02*
X0399131Y0077574D01*
X0398724Y0077076D02*
X0393078Y0077076D01*
X0393664Y0076577D02*
X0398137Y0076577D01*
X0397170Y0076079D02*
X0394632Y0076079D01*
D31*
X0062850Y0219106D03*
X0057850Y0219106D03*
X0052850Y0219106D03*
X0047850Y0219106D03*
X0047850Y0239706D03*
X0052850Y0239706D03*
X0057850Y0239706D03*
X0062850Y0239706D03*
D32*
X0389208Y0225862D03*
X0389208Y0282949D03*
D33*
X0369523Y0292398D03*
X0369523Y0303028D03*
X0369523Y0273500D03*
X0369523Y0262870D03*
X0369523Y0245941D03*
X0369523Y0235311D03*
X0369523Y0216413D03*
X0369523Y0205783D03*
D34*
X0389208Y0206177D03*
X0369523Y0225862D03*
X0389208Y0245547D03*
X0389208Y0263264D03*
X0369523Y0282949D03*
X0389208Y0302634D03*
D35*
X0293627Y0303835D03*
X0293627Y0296335D03*
X0293657Y0288413D03*
X0293635Y0280587D03*
X0293657Y0272713D03*
X0293627Y0264839D03*
X0293635Y0311833D03*
X0293657Y0319957D03*
X0230635Y0319957D03*
X0230635Y0312083D03*
X0230635Y0288461D03*
X0230635Y0280587D03*
X0230627Y0264839D03*
D36*
X0327082Y0192004D03*
X0342672Y0192004D03*
D37*
X0311255Y0180193D03*
X0297476Y0154602D03*
X0313224Y0146728D03*
X0303381Y0067988D03*
X0296688Y0062870D03*
X0330940Y0062083D03*
X0350625Y0054209D03*
X0354562Y0048303D03*
X0335271Y0036098D03*
X0224641Y0044366D03*
X0210861Y0056177D03*
X0197082Y0081768D03*
X0134090Y0044366D03*
X0119523Y0067201D03*
X0090783Y0071925D03*
X0082909Y0067988D03*
X0096688Y0113264D03*
X0114405Y0156571D03*
X0108499Y0192004D03*
X0134483Y0232161D03*
X0126216Y0235311D03*
X0098657Y0251059D03*
X0075035Y0249091D03*
X0049444Y0225469D03*
X0025822Y0219563D03*
X0171491Y0142791D03*
X0216767Y0176256D03*
X0210861Y0223500D03*
X0246294Y0245154D03*
X0262043Y0241217D03*
X0267554Y0249091D03*
X0313224Y0229406D03*
X0321098Y0227437D03*
X0330940Y0296335D03*
X0267948Y0329799D03*
D38*
X0250231Y0327831D03*
X0212830Y0321925D03*
X0197082Y0321925D03*
X0179365Y0321925D03*
X0161649Y0321925D03*
X0139995Y0321925D03*
X0118342Y0321925D03*
X0098657Y0321925D03*
X0049444Y0308146D03*
X0019917Y0317988D03*
X0017948Y0302240D03*
X0061255Y0268776D03*
X0039602Y0246728D03*
X0037633Y0225075D03*
X0012043Y0221531D03*
X0017948Y0190035D03*
X0017948Y0160508D03*
X0061255Y0182161D03*
X0061255Y0199878D03*
X0077003Y0162476D03*
X0102594Y0162476D03*
X0155743Y0197909D03*
X0151019Y0217594D03*
X0165586Y0239248D03*
X0199050Y0235311D03*
X0230546Y0235311D03*
X0254169Y0201846D03*
X0287633Y0237280D03*
X0283696Y0258933D03*
X0319129Y0256965D03*
X0344720Y0253028D03*
X0323066Y0294366D03*
X0348657Y0300272D03*
X0403775Y0302240D03*
X0380153Y0349484D03*
X0380153Y0359327D03*
X0403775Y0254996D03*
X0395901Y0237280D03*
X0403775Y0203815D03*
X0382121Y0188067D03*
X0374247Y0150665D03*
X0401806Y0138854D03*
X0401806Y0117201D03*
X0372279Y0105390D03*
X0342751Y0127043D03*
X0328972Y0101453D03*
X0311255Y0117201D03*
X0291570Y0134917D03*
X0274129Y0154602D03*
X0265980Y0119169D03*
X0283696Y0093579D03*
X0265980Y0069957D03*
X0258106Y0054209D03*
X0264011Y0034524D03*
X0297476Y0032949D03*
X0326216Y0071138D03*
X0371491Y0069957D03*
X0401806Y0067988D03*
X0329759Y0183343D03*
X0218735Y0274681D03*
X0199050Y0282555D03*
X0189208Y0272713D03*
X0206924Y0193224D03*
X0191176Y0164445D03*
X0100625Y0217594D03*
X0059287Y0091610D03*
X0069129Y0062083D03*
X0055350Y0034524D03*
X0134090Y0077831D03*
X0175428Y0075862D03*
D39*
X0347869Y0061689D03*
X0374641Y0048697D03*
X0254169Y0361295D03*
M02*
